%TF.GenerationSoftware,KiCad,Pcbnew,(5.1.9)-1*%
%TF.CreationDate,2021-10-10T23:20:05-06:00*%
%TF.ProjectId,daBat,64614261-742e-46b6-9963-61645f706362,rev?*%
%TF.SameCoordinates,Original*%
%TF.FileFunction,Soldermask,Top*%
%TF.FilePolarity,Negative*%
%FSLAX46Y46*%
G04 Gerber Fmt 4.6, Leading zero omitted, Abs format (unit mm)*
G04 Created by KiCad (PCBNEW (5.1.9)-1) date 2021-10-10 23:20:05*
%MOMM*%
%LPD*%
G01*
G04 APERTURE LIST*
%ADD10C,3.200000*%
%ADD11O,1.905000X2.000000*%
%ADD12R,1.905000X2.000000*%
%ADD13O,2.000000X1.600000*%
%ADD14R,2.000000X2.000000*%
%ADD15C,1.440000*%
%ADD16O,1.400000X1.400000*%
%ADD17C,1.400000*%
%ADD18R,1.050000X1.500000*%
%ADD19O,1.050000X1.500000*%
%ADD20O,1.700000X1.700000*%
%ADD21R,1.700000X1.700000*%
G04 APERTURE END LIST*
D10*
%TO.C,H4*%
X179070000Y-102870000D03*
%TD*%
%TO.C,H3*%
X91440000Y-102870000D03*
%TD*%
%TO.C,H2*%
X179070000Y-53340000D03*
%TD*%
%TO.C,H1*%
X91440000Y-53340000D03*
%TD*%
D11*
%TO.C,Q8*%
X129540000Y-63500000D03*
X127000000Y-63500000D03*
D12*
X124460000Y-63500000D03*
%TD*%
D11*
%TO.C,Q5*%
X114300000Y-63500000D03*
X111760000Y-63500000D03*
D12*
X109220000Y-63500000D03*
%TD*%
D11*
%TO.C,Q2*%
X99060000Y-63500000D03*
X96520000Y-63500000D03*
D12*
X93980000Y-63500000D03*
%TD*%
D13*
%TO.C,U3*%
X144740000Y-80010000D03*
X144740000Y-82550000D03*
X144740000Y-85090000D03*
X144740000Y-87630000D03*
X144740000Y-90170000D03*
X144740000Y-92710000D03*
X144740000Y-95250000D03*
X144740000Y-97790000D03*
X121880000Y-97790000D03*
X121880000Y-95250000D03*
X121880000Y-92710000D03*
X121880000Y-90170000D03*
X121880000Y-87630000D03*
X121880000Y-85090000D03*
D14*
X121880000Y-80010000D03*
D13*
X121880000Y-82550000D03*
%TD*%
D11*
%TO.C,U2*%
X154940000Y-95250000D03*
X157480000Y-95250000D03*
D12*
X160020000Y-95250000D03*
%TD*%
D11*
%TO.C,U1*%
X170180000Y-95250000D03*
X172720000Y-95250000D03*
D12*
X175260000Y-95250000D03*
%TD*%
D15*
%TO.C,RV2*%
X162560000Y-87630000D03*
X160020000Y-87630000D03*
X157480000Y-87630000D03*
%TD*%
%TO.C,RV1*%
X177800000Y-87630000D03*
X175260000Y-87630000D03*
X172720000Y-87630000D03*
%TD*%
D16*
%TO.C,R12*%
X170180000Y-69850000D03*
D17*
X177800000Y-69850000D03*
%TD*%
D16*
%TO.C,R11*%
X177800000Y-67310000D03*
D17*
X170180000Y-67310000D03*
%TD*%
%TO.C,R10*%
X109220000Y-77470000D03*
D16*
X116840000Y-77470000D03*
%TD*%
D17*
%TO.C,R9*%
X116840000Y-80010000D03*
D16*
X116840000Y-87630000D03*
%TD*%
%TO.C,R8*%
X154940000Y-69850000D03*
D17*
X162560000Y-69850000D03*
%TD*%
D16*
%TO.C,R7*%
X162560000Y-67310000D03*
D17*
X154940000Y-67310000D03*
%TD*%
%TO.C,R6*%
X106680000Y-80010000D03*
D16*
X114300000Y-80010000D03*
%TD*%
D17*
%TO.C,R5*%
X114300000Y-82550000D03*
D16*
X114300000Y-90170000D03*
%TD*%
%TO.C,R4*%
X139700000Y-69850000D03*
D17*
X147320000Y-69850000D03*
%TD*%
D16*
%TO.C,R3*%
X147320000Y-67310000D03*
D17*
X139700000Y-67310000D03*
%TD*%
%TO.C,R2*%
X104140000Y-82550000D03*
D16*
X111760000Y-82550000D03*
%TD*%
D17*
%TO.C,R1*%
X111760000Y-85090000D03*
D16*
X111760000Y-92710000D03*
%TD*%
D11*
%TO.C,Q9*%
X175260000Y-63500000D03*
X172720000Y-63500000D03*
D12*
X170180000Y-63500000D03*
%TD*%
D18*
%TO.C,Q7*%
X176530000Y-74930000D03*
D19*
X173990000Y-74930000D03*
X175260000Y-74930000D03*
%TD*%
D11*
%TO.C,Q6*%
X160020000Y-63500000D03*
X157480000Y-63500000D03*
D12*
X154940000Y-63500000D03*
%TD*%
D18*
%TO.C,Q4*%
X165100000Y-74930000D03*
D19*
X162560000Y-74930000D03*
X163830000Y-74930000D03*
%TD*%
D11*
%TO.C,Q3*%
X144780000Y-63500000D03*
X142240000Y-63500000D03*
D12*
X139700000Y-63500000D03*
%TD*%
D18*
%TO.C,Q1*%
X153670000Y-74930000D03*
D19*
X151130000Y-74930000D03*
X152400000Y-74930000D03*
%TD*%
D20*
%TO.C,J2*%
X114300000Y-52070000D03*
X111760000Y-52070000D03*
D21*
X109220000Y-52070000D03*
%TD*%
D20*
%TO.C,J1*%
X160020000Y-52070000D03*
X157480000Y-52070000D03*
D21*
X154940000Y-52070000D03*
%TD*%
M02*
