M48
; DRILL file {KiCad (5.1.9)-1} date 10/10/21 23:20:03
; FORMAT={-:-/ absolute / inch / decimal}
; #@! TF.CreationDate,2021-10-10T23:20:03-06:00
; #@! TF.GenerationSoftware,Kicad,Pcbnew,(5.1.9)-1
; #@! TF.FileFunction,Plated,1,2,PTH
FMAT,2
INCH
T1C0.0276
T2C0.0295
T3C0.0315
T4C0.0394
T5C0.0433
%
G90
G05
T1
X4.1Y-3.25
X4.2Y-3.15
X4.3Y-3.05
X4.4Y-3.25
X4.4Y-3.35
X4.4Y-3.65
X4.5Y-3.15
X4.5Y-3.25
X4.5Y-3.55
X4.6Y-3.05
X4.6Y-3.15
X4.6Y-3.45
X5.5Y-2.65
X5.5Y-2.75
X5.8Y-2.65
X5.8Y-2.75
X6.1Y-2.65
X6.1Y-2.75
X6.4Y-2.65
X6.4Y-2.75
X6.7Y-2.65
X6.7Y-2.75
X7.0Y-2.65
X7.0Y-2.75
T2
X5.95Y-2.95
X6.0Y-2.95
X6.05Y-2.95
X6.4Y-2.95
X6.45Y-2.95
X6.5Y-2.95
X6.85Y-2.95
X6.9Y-2.95
X6.95Y-2.95
T3
X6.2Y-3.45
X6.3Y-3.45
X6.4Y-3.45
X6.8Y-3.45
X6.9Y-3.45
X7.0Y-3.45
T4
X4.3Y-2.05
X4.4Y-2.05
X4.5Y-2.05
X4.7984Y-3.15
X4.7984Y-3.25
X4.7984Y-3.35
X4.7984Y-3.45
X4.7984Y-3.55
X4.7984Y-3.65
X4.7984Y-3.75
X4.7984Y-3.85
X5.6984Y-3.15
X5.6984Y-3.25
X5.6984Y-3.35
X5.6984Y-3.45
X5.6984Y-3.55
X5.6984Y-3.65
X5.6984Y-3.75
X5.6984Y-3.85
X6.1Y-2.05
X6.2Y-2.05
X6.3Y-2.05
T5
X3.7Y-2.5
X3.8Y-2.5
X3.9Y-2.5
X4.3Y-2.5
X4.4Y-2.5
X4.5Y-2.5
X4.9Y-2.5
X5.0Y-2.5
X5.1Y-2.5
X5.5Y-2.5
X5.6Y-2.5
X5.7Y-2.5
X6.1Y-2.5
X6.1Y-3.75
X6.2Y-2.5
X6.2Y-3.75
X6.3Y-2.5
X6.3Y-3.75
X6.7Y-2.5
X6.7Y-3.75
X6.8Y-2.5
X6.8Y-3.75
X6.9Y-2.5
X6.9Y-3.75
T0
M30
