%TF.GenerationSoftware,KiCad,Pcbnew,(5.1.9)-1*%
%TF.CreationDate,2021-10-10T23:20:05-06:00*%
%TF.ProjectId,daBat,64614261-742e-46b6-9963-61645f706362,rev?*%
%TF.SameCoordinates,Original*%
%TF.FileFunction,Copper,L2,Bot*%
%TF.FilePolarity,Positive*%
%FSLAX46Y46*%
G04 Gerber Fmt 4.6, Leading zero omitted, Abs format (unit mm)*
G04 Created by KiCad (PCBNEW (5.1.9)-1) date 2021-10-10 23:20:05*
%MOMM*%
%LPD*%
G01*
G04 APERTURE LIST*
%TA.AperFunction,ComponentPad*%
%ADD10O,1.905000X2.000000*%
%TD*%
%TA.AperFunction,ComponentPad*%
%ADD11R,1.905000X2.000000*%
%TD*%
%TA.AperFunction,ComponentPad*%
%ADD12O,2.000000X1.600000*%
%TD*%
%TA.AperFunction,ComponentPad*%
%ADD13R,2.000000X2.000000*%
%TD*%
%TA.AperFunction,ComponentPad*%
%ADD14C,1.440000*%
%TD*%
%TA.AperFunction,ComponentPad*%
%ADD15O,1.400000X1.400000*%
%TD*%
%TA.AperFunction,ComponentPad*%
%ADD16C,1.400000*%
%TD*%
%TA.AperFunction,ComponentPad*%
%ADD17R,1.050000X1.500000*%
%TD*%
%TA.AperFunction,ComponentPad*%
%ADD18O,1.050000X1.500000*%
%TD*%
%TA.AperFunction,ComponentPad*%
%ADD19O,1.700000X1.700000*%
%TD*%
%TA.AperFunction,ComponentPad*%
%ADD20R,1.700000X1.700000*%
%TD*%
%TA.AperFunction,Conductor*%
%ADD21C,1.000000*%
%TD*%
%TA.AperFunction,Conductor*%
%ADD22C,0.254000*%
%TD*%
%TA.AperFunction,Conductor*%
%ADD23C,0.100000*%
%TD*%
G04 APERTURE END LIST*
D10*
%TO.P,Q8,3*%
%TO.N,GND*%
X129540000Y-63500000D03*
%TO.P,Q8,2*%
%TO.N,headerGND3*%
X127000000Y-63500000D03*
D11*
%TO.P,Q8,1*%
%TO.N,Net-(Q8-Pad1)*%
X124460000Y-63500000D03*
%TD*%
D10*
%TO.P,Q5,3*%
%TO.N,GND*%
X114300000Y-63500000D03*
%TO.P,Q5,2*%
%TO.N,headerGND2*%
X111760000Y-63500000D03*
D11*
%TO.P,Q5,1*%
%TO.N,Net-(Q5-Pad1)*%
X109220000Y-63500000D03*
%TD*%
D10*
%TO.P,Q2,3*%
%TO.N,GND*%
X99060000Y-63500000D03*
%TO.P,Q2,2*%
%TO.N,headerGND1*%
X96520000Y-63500000D03*
D11*
%TO.P,Q2,1*%
%TO.N,Net-(Q2-Pad1)*%
X93980000Y-63500000D03*
%TD*%
D12*
%TO.P,U3,16*%
%TO.N,Net-(U3-Pad16)*%
X144740000Y-80010000D03*
%TO.P,U3,15*%
%TO.N,Net-(U3-Pad15)*%
X144740000Y-82550000D03*
%TO.P,U3,14*%
%TO.N,Net-(U3-Pad14)*%
X144740000Y-85090000D03*
%TO.P,U3,13*%
%TO.N,Net-(Q1-Pad2)*%
X144740000Y-87630000D03*
%TO.P,U3,12*%
%TO.N,Net-(Q4-Pad2)*%
X144740000Y-90170000D03*
%TO.P,U3,11*%
%TO.N,Net-(Q7-Pad2)*%
X144740000Y-92710000D03*
%TO.P,U3,10*%
%TO.N,GND*%
X144740000Y-95250000D03*
%TO.P,U3,9*%
%TO.N,5vUSB*%
X144740000Y-97790000D03*
%TO.P,U3,8*%
%TO.N,Net-(U3-Pad8)*%
X121880000Y-97790000D03*
%TO.P,U3,7*%
%TO.N,Net-(U3-Pad7)*%
X121880000Y-95250000D03*
%TO.P,U3,6*%
%TO.N,Net-(R1-Pad2)*%
X121880000Y-92710000D03*
%TO.P,U3,5*%
%TO.N,Net-(R5-Pad2)*%
X121880000Y-90170000D03*
%TO.P,U3,4*%
%TO.N,Net-(R9-Pad2)*%
X121880000Y-87630000D03*
%TO.P,U3,3*%
%TO.N,Net-(U3-Pad3)*%
X121880000Y-85090000D03*
D13*
%TO.P,U3,1*%
%TO.N,Net-(U3-Pad1)*%
X121880000Y-80010000D03*
D12*
%TO.P,U3,2*%
%TO.N,Net-(U3-Pad2)*%
X121880000Y-82550000D03*
%TD*%
D10*
%TO.P,U2,3*%
%TO.N,5vUSB*%
X154940000Y-95250000D03*
%TO.P,U2,2*%
%TO.N,2.1v*%
X157480000Y-95250000D03*
D11*
%TO.P,U2,1*%
%TO.N,Net-(RV2-Pad2)*%
X160020000Y-95250000D03*
%TD*%
D10*
%TO.P,U1,3*%
%TO.N,5vUSB*%
X170180000Y-95250000D03*
%TO.P,U1,2*%
%TO.N,3.2v*%
X172720000Y-95250000D03*
D11*
%TO.P,U1,1*%
%TO.N,Net-(RV1-Pad2)*%
X175260000Y-95250000D03*
%TD*%
D14*
%TO.P,RV2,3*%
%TO.N,GND*%
X162560000Y-87630000D03*
%TO.P,RV2,2*%
%TO.N,Net-(RV2-Pad2)*%
X160020000Y-87630000D03*
%TO.P,RV2,1*%
%TO.N,2.1v*%
X157480000Y-87630000D03*
%TD*%
%TO.P,RV1,3*%
%TO.N,GND*%
X177800000Y-87630000D03*
%TO.P,RV1,2*%
%TO.N,Net-(RV1-Pad2)*%
X175260000Y-87630000D03*
%TO.P,RV1,1*%
%TO.N,3.2v*%
X172720000Y-87630000D03*
%TD*%
D15*
%TO.P,R12,2*%
%TO.N,Net-(Q9-Pad1)*%
X170180000Y-69850000D03*
D16*
%TO.P,R12,1*%
%TO.N,Net-(Q7-Pad3)*%
X177800000Y-69850000D03*
%TD*%
D15*
%TO.P,R11,2*%
%TO.N,3.2v*%
X177800000Y-67310000D03*
D16*
%TO.P,R11,1*%
%TO.N,Net-(Q9-Pad1)*%
X170180000Y-67310000D03*
%TD*%
%TO.P,R10,1*%
%TO.N,GND*%
X109220000Y-77470000D03*
D15*
%TO.P,R10,2*%
%TO.N,Net-(Q8-Pad1)*%
X116840000Y-77470000D03*
%TD*%
D16*
%TO.P,R9,1*%
%TO.N,Net-(Q8-Pad1)*%
X116840000Y-80010000D03*
D15*
%TO.P,R9,2*%
%TO.N,Net-(R9-Pad2)*%
X116840000Y-87630000D03*
%TD*%
%TO.P,R8,2*%
%TO.N,Net-(Q6-Pad1)*%
X154940000Y-69850000D03*
D16*
%TO.P,R8,1*%
%TO.N,Net-(Q4-Pad3)*%
X162560000Y-69850000D03*
%TD*%
D15*
%TO.P,R7,2*%
%TO.N,3.2v*%
X162560000Y-67310000D03*
D16*
%TO.P,R7,1*%
%TO.N,Net-(Q6-Pad1)*%
X154940000Y-67310000D03*
%TD*%
%TO.P,R6,1*%
%TO.N,GND*%
X106680000Y-80010000D03*
D15*
%TO.P,R6,2*%
%TO.N,Net-(Q5-Pad1)*%
X114300000Y-80010000D03*
%TD*%
D16*
%TO.P,R5,1*%
%TO.N,Net-(Q5-Pad1)*%
X114300000Y-82550000D03*
D15*
%TO.P,R5,2*%
%TO.N,Net-(R5-Pad2)*%
X114300000Y-90170000D03*
%TD*%
%TO.P,R4,2*%
%TO.N,Net-(Q3-Pad1)*%
X139700000Y-69850000D03*
D16*
%TO.P,R4,1*%
%TO.N,Net-(Q1-Pad3)*%
X147320000Y-69850000D03*
%TD*%
D15*
%TO.P,R3,2*%
%TO.N,2.1v*%
X147320000Y-67310000D03*
D16*
%TO.P,R3,1*%
%TO.N,Net-(Q3-Pad1)*%
X139700000Y-67310000D03*
%TD*%
%TO.P,R2,1*%
%TO.N,GND*%
X104140000Y-82550000D03*
D15*
%TO.P,R2,2*%
%TO.N,Net-(Q2-Pad1)*%
X111760000Y-82550000D03*
%TD*%
D16*
%TO.P,R1,1*%
%TO.N,Net-(Q2-Pad1)*%
X111760000Y-85090000D03*
D15*
%TO.P,R1,2*%
%TO.N,Net-(R1-Pad2)*%
X111760000Y-92710000D03*
%TD*%
D10*
%TO.P,Q9,3*%
%TO.N,3.2v*%
X175260000Y-63500000D03*
%TO.P,Q9,2*%
%TO.N,headerB*%
X172720000Y-63500000D03*
D11*
%TO.P,Q9,1*%
%TO.N,Net-(Q9-Pad1)*%
X170180000Y-63500000D03*
%TD*%
D17*
%TO.P,Q7,1*%
%TO.N,GND*%
X176530000Y-74930000D03*
D18*
%TO.P,Q7,3*%
%TO.N,Net-(Q7-Pad3)*%
X173990000Y-74930000D03*
%TO.P,Q7,2*%
%TO.N,Net-(Q7-Pad2)*%
X175260000Y-74930000D03*
%TD*%
D10*
%TO.P,Q6,3*%
%TO.N,3.2v*%
X160020000Y-63500000D03*
%TO.P,Q6,2*%
%TO.N,headerG*%
X157480000Y-63500000D03*
D11*
%TO.P,Q6,1*%
%TO.N,Net-(Q6-Pad1)*%
X154940000Y-63500000D03*
%TD*%
D17*
%TO.P,Q4,1*%
%TO.N,GND*%
X165100000Y-74930000D03*
D18*
%TO.P,Q4,3*%
%TO.N,Net-(Q4-Pad3)*%
X162560000Y-74930000D03*
%TO.P,Q4,2*%
%TO.N,Net-(Q4-Pad2)*%
X163830000Y-74930000D03*
%TD*%
D10*
%TO.P,Q3,3*%
%TO.N,2.1v*%
X144780000Y-63500000D03*
%TO.P,Q3,2*%
%TO.N,headerR*%
X142240000Y-63500000D03*
D11*
%TO.P,Q3,1*%
%TO.N,Net-(Q3-Pad1)*%
X139700000Y-63500000D03*
%TD*%
D17*
%TO.P,Q1,1*%
%TO.N,GND*%
X153670000Y-74930000D03*
D18*
%TO.P,Q1,3*%
%TO.N,Net-(Q1-Pad3)*%
X151130000Y-74930000D03*
%TO.P,Q1,2*%
%TO.N,Net-(Q1-Pad2)*%
X152400000Y-74930000D03*
%TD*%
D19*
%TO.P,J2,3*%
%TO.N,headerGND3*%
X114300000Y-52070000D03*
%TO.P,J2,2*%
%TO.N,headerGND2*%
X111760000Y-52070000D03*
D20*
%TO.P,J2,1*%
%TO.N,headerGND1*%
X109220000Y-52070000D03*
%TD*%
D19*
%TO.P,J1,3*%
%TO.N,headerB*%
X160020000Y-52070000D03*
%TO.P,J1,2*%
%TO.N,headerG*%
X157480000Y-52070000D03*
D20*
%TO.P,J1,1*%
%TO.N,headerR*%
X154940000Y-52070000D03*
%TD*%
D21*
%TO.N,GND*%
X165100000Y-85090000D02*
X162560000Y-87630000D01*
X165100000Y-74930000D02*
X165100000Y-85090000D01*
%TO.N,2.1v*%
X149904990Y-80054990D02*
X157480000Y-87630000D01*
X149225000Y-69215000D02*
X149225000Y-79375000D01*
X149225000Y-79375000D02*
X149904990Y-80054990D01*
X147320000Y-67310000D02*
X149225000Y-69215000D01*
%TO.N,3.2v*%
X162560000Y-67310000D02*
X163830000Y-67310000D01*
X172720000Y-76200000D02*
X172720000Y-87630000D01*
X163830000Y-67310000D02*
X172720000Y-76200000D01*
X172720000Y-72390000D02*
X172720000Y-76200000D01*
X177800000Y-67310000D02*
X172720000Y-72390000D01*
%TD*%
D22*
%TO.N,GND*%
X182753000Y-106553000D02*
X87757000Y-106553000D01*
X87757000Y-102649872D01*
X89205000Y-102649872D01*
X89205000Y-103090128D01*
X89290890Y-103521925D01*
X89459369Y-103928669D01*
X89703962Y-104294729D01*
X90015271Y-104606038D01*
X90381331Y-104850631D01*
X90788075Y-105019110D01*
X91219872Y-105105000D01*
X91660128Y-105105000D01*
X92091925Y-105019110D01*
X92498669Y-104850631D01*
X92864729Y-104606038D01*
X93176038Y-104294729D01*
X93420631Y-103928669D01*
X93589110Y-103521925D01*
X93675000Y-103090128D01*
X93675000Y-102649872D01*
X176835000Y-102649872D01*
X176835000Y-103090128D01*
X176920890Y-103521925D01*
X177089369Y-103928669D01*
X177333962Y-104294729D01*
X177645271Y-104606038D01*
X178011331Y-104850631D01*
X178418075Y-105019110D01*
X178849872Y-105105000D01*
X179290128Y-105105000D01*
X179721925Y-105019110D01*
X180128669Y-104850631D01*
X180494729Y-104606038D01*
X180806038Y-104294729D01*
X181050631Y-103928669D01*
X181219110Y-103521925D01*
X181305000Y-103090128D01*
X181305000Y-102649872D01*
X181219110Y-102218075D01*
X181050631Y-101811331D01*
X180806038Y-101445271D01*
X180494729Y-101133962D01*
X180128669Y-100889369D01*
X179721925Y-100720890D01*
X179290128Y-100635000D01*
X178849872Y-100635000D01*
X178418075Y-100720890D01*
X178011331Y-100889369D01*
X177645271Y-101133962D01*
X177333962Y-101445271D01*
X177089369Y-101811331D01*
X176920890Y-102218075D01*
X176835000Y-102649872D01*
X93675000Y-102649872D01*
X93589110Y-102218075D01*
X93420631Y-101811331D01*
X93176038Y-101445271D01*
X92864729Y-101133962D01*
X92498669Y-100889369D01*
X92091925Y-100720890D01*
X91660128Y-100635000D01*
X91219872Y-100635000D01*
X90788075Y-100720890D01*
X90381331Y-100889369D01*
X90015271Y-101133962D01*
X89703962Y-101445271D01*
X89459369Y-101811331D01*
X89290890Y-102218075D01*
X89205000Y-102649872D01*
X87757000Y-102649872D01*
X87757000Y-92578514D01*
X110425000Y-92578514D01*
X110425000Y-92841486D01*
X110476304Y-93099405D01*
X110576939Y-93342359D01*
X110723038Y-93561013D01*
X110908987Y-93746962D01*
X111127641Y-93893061D01*
X111370595Y-93993696D01*
X111628514Y-94045000D01*
X111891486Y-94045000D01*
X112149405Y-93993696D01*
X112392359Y-93893061D01*
X112611013Y-93746962D01*
X112796962Y-93561013D01*
X112943061Y-93342359D01*
X113043696Y-93099405D01*
X113095000Y-92841486D01*
X113095000Y-92578514D01*
X113043696Y-92320595D01*
X112943061Y-92077641D01*
X112796962Y-91858987D01*
X112611013Y-91673038D01*
X112392359Y-91526939D01*
X112149405Y-91426304D01*
X111891486Y-91375000D01*
X111628514Y-91375000D01*
X111370595Y-91426304D01*
X111127641Y-91526939D01*
X110908987Y-91673038D01*
X110723038Y-91858987D01*
X110576939Y-92077641D01*
X110476304Y-92320595D01*
X110425000Y-92578514D01*
X87757000Y-92578514D01*
X87757000Y-90038514D01*
X112965000Y-90038514D01*
X112965000Y-90301486D01*
X113016304Y-90559405D01*
X113116939Y-90802359D01*
X113263038Y-91021013D01*
X113448987Y-91206962D01*
X113667641Y-91353061D01*
X113910595Y-91453696D01*
X114168514Y-91505000D01*
X114431486Y-91505000D01*
X114689405Y-91453696D01*
X114932359Y-91353061D01*
X115151013Y-91206962D01*
X115336962Y-91021013D01*
X115483061Y-90802359D01*
X115583696Y-90559405D01*
X115635000Y-90301486D01*
X115635000Y-90038514D01*
X115583696Y-89780595D01*
X115483061Y-89537641D01*
X115336962Y-89318987D01*
X115151013Y-89133038D01*
X114932359Y-88986939D01*
X114689405Y-88886304D01*
X114431486Y-88835000D01*
X114168514Y-88835000D01*
X113910595Y-88886304D01*
X113667641Y-88986939D01*
X113448987Y-89133038D01*
X113263038Y-89318987D01*
X113116939Y-89537641D01*
X113016304Y-89780595D01*
X112965000Y-90038514D01*
X87757000Y-90038514D01*
X87757000Y-87498514D01*
X115505000Y-87498514D01*
X115505000Y-87761486D01*
X115556304Y-88019405D01*
X115656939Y-88262359D01*
X115803038Y-88481013D01*
X115988987Y-88666962D01*
X116207641Y-88813061D01*
X116450595Y-88913696D01*
X116708514Y-88965000D01*
X116971486Y-88965000D01*
X117229405Y-88913696D01*
X117472359Y-88813061D01*
X117691013Y-88666962D01*
X117876962Y-88481013D01*
X118023061Y-88262359D01*
X118123696Y-88019405D01*
X118175000Y-87761486D01*
X118175000Y-87498514D01*
X118123696Y-87240595D01*
X118023061Y-86997641D01*
X117876962Y-86778987D01*
X117691013Y-86593038D01*
X117472359Y-86446939D01*
X117229405Y-86346304D01*
X116971486Y-86295000D01*
X116708514Y-86295000D01*
X116450595Y-86346304D01*
X116207641Y-86446939D01*
X115988987Y-86593038D01*
X115803038Y-86778987D01*
X115656939Y-86997641D01*
X115556304Y-87240595D01*
X115505000Y-87498514D01*
X87757000Y-87498514D01*
X87757000Y-83471269D01*
X103398336Y-83471269D01*
X103457797Y-83705037D01*
X103696242Y-83815934D01*
X103951740Y-83878183D01*
X104214473Y-83889390D01*
X104474344Y-83849125D01*
X104721366Y-83758935D01*
X104822203Y-83705037D01*
X104881664Y-83471269D01*
X104140000Y-82729605D01*
X103398336Y-83471269D01*
X87757000Y-83471269D01*
X87757000Y-82624473D01*
X102800610Y-82624473D01*
X102840875Y-82884344D01*
X102931065Y-83131366D01*
X102984963Y-83232203D01*
X103218731Y-83291664D01*
X103960395Y-82550000D01*
X104319605Y-82550000D01*
X105061269Y-83291664D01*
X105295037Y-83232203D01*
X105405934Y-82993758D01*
X105468183Y-82738260D01*
X105479390Y-82475527D01*
X105470557Y-82418514D01*
X110425000Y-82418514D01*
X110425000Y-82681486D01*
X110476304Y-82939405D01*
X110576939Y-83182359D01*
X110723038Y-83401013D01*
X110908987Y-83586962D01*
X111127641Y-83733061D01*
X111337530Y-83820000D01*
X111127641Y-83906939D01*
X110908987Y-84053038D01*
X110723038Y-84238987D01*
X110576939Y-84457641D01*
X110476304Y-84700595D01*
X110425000Y-84958514D01*
X110425000Y-85221486D01*
X110476304Y-85479405D01*
X110576939Y-85722359D01*
X110723038Y-85941013D01*
X110908987Y-86126962D01*
X111127641Y-86273061D01*
X111370595Y-86373696D01*
X111628514Y-86425000D01*
X111891486Y-86425000D01*
X112149405Y-86373696D01*
X112392359Y-86273061D01*
X112611013Y-86126962D01*
X112796962Y-85941013D01*
X112943061Y-85722359D01*
X113043696Y-85479405D01*
X113095000Y-85221486D01*
X113095000Y-84958514D01*
X113043696Y-84700595D01*
X112943061Y-84457641D01*
X112796962Y-84238987D01*
X112611013Y-84053038D01*
X112392359Y-83906939D01*
X112182470Y-83820000D01*
X112392359Y-83733061D01*
X112611013Y-83586962D01*
X112796962Y-83401013D01*
X112943061Y-83182359D01*
X113030000Y-82972470D01*
X113116939Y-83182359D01*
X113263038Y-83401013D01*
X113448987Y-83586962D01*
X113667641Y-83733061D01*
X113910595Y-83833696D01*
X114168514Y-83885000D01*
X114431486Y-83885000D01*
X114689405Y-83833696D01*
X114932359Y-83733061D01*
X115151013Y-83586962D01*
X115336962Y-83401013D01*
X115483061Y-83182359D01*
X115583696Y-82939405D01*
X115635000Y-82681486D01*
X115635000Y-82550000D01*
X120238057Y-82550000D01*
X120265764Y-82831309D01*
X120347818Y-83101808D01*
X120481068Y-83351101D01*
X120660392Y-83569608D01*
X120878899Y-83748932D01*
X121011858Y-83820000D01*
X120878899Y-83891068D01*
X120660392Y-84070392D01*
X120481068Y-84288899D01*
X120347818Y-84538192D01*
X120265764Y-84808691D01*
X120238057Y-85090000D01*
X120265764Y-85371309D01*
X120347818Y-85641808D01*
X120481068Y-85891101D01*
X120660392Y-86109608D01*
X120878899Y-86288932D01*
X121011858Y-86360000D01*
X120878899Y-86431068D01*
X120660392Y-86610392D01*
X120481068Y-86828899D01*
X120347818Y-87078192D01*
X120265764Y-87348691D01*
X120238057Y-87630000D01*
X120265764Y-87911309D01*
X120347818Y-88181808D01*
X120481068Y-88431101D01*
X120660392Y-88649608D01*
X120878899Y-88828932D01*
X121011858Y-88900000D01*
X120878899Y-88971068D01*
X120660392Y-89150392D01*
X120481068Y-89368899D01*
X120347818Y-89618192D01*
X120265764Y-89888691D01*
X120238057Y-90170000D01*
X120265764Y-90451309D01*
X120347818Y-90721808D01*
X120481068Y-90971101D01*
X120660392Y-91189608D01*
X120878899Y-91368932D01*
X121011858Y-91440000D01*
X120878899Y-91511068D01*
X120660392Y-91690392D01*
X120481068Y-91908899D01*
X120347818Y-92158192D01*
X120265764Y-92428691D01*
X120238057Y-92710000D01*
X120265764Y-92991309D01*
X120347818Y-93261808D01*
X120481068Y-93511101D01*
X120660392Y-93729608D01*
X120878899Y-93908932D01*
X121011858Y-93980000D01*
X120878899Y-94051068D01*
X120660392Y-94230392D01*
X120481068Y-94448899D01*
X120347818Y-94698192D01*
X120265764Y-94968691D01*
X120238057Y-95250000D01*
X120265764Y-95531309D01*
X120347818Y-95801808D01*
X120481068Y-96051101D01*
X120660392Y-96269608D01*
X120878899Y-96448932D01*
X121011858Y-96520000D01*
X120878899Y-96591068D01*
X120660392Y-96770392D01*
X120481068Y-96988899D01*
X120347818Y-97238192D01*
X120265764Y-97508691D01*
X120238057Y-97790000D01*
X120265764Y-98071309D01*
X120347818Y-98341808D01*
X120481068Y-98591101D01*
X120660392Y-98809608D01*
X120878899Y-98988932D01*
X121128192Y-99122182D01*
X121398691Y-99204236D01*
X121609508Y-99225000D01*
X122150492Y-99225000D01*
X122361309Y-99204236D01*
X122631808Y-99122182D01*
X122881101Y-98988932D01*
X123099608Y-98809608D01*
X123278932Y-98591101D01*
X123412182Y-98341808D01*
X123494236Y-98071309D01*
X123521943Y-97790000D01*
X143098057Y-97790000D01*
X143125764Y-98071309D01*
X143207818Y-98341808D01*
X143341068Y-98591101D01*
X143520392Y-98809608D01*
X143738899Y-98988932D01*
X143988192Y-99122182D01*
X144258691Y-99204236D01*
X144469508Y-99225000D01*
X145010492Y-99225000D01*
X145221309Y-99204236D01*
X145491808Y-99122182D01*
X145741101Y-98988932D01*
X145959608Y-98809608D01*
X146138932Y-98591101D01*
X146272182Y-98341808D01*
X146354236Y-98071309D01*
X146381943Y-97790000D01*
X146354236Y-97508691D01*
X146272182Y-97238192D01*
X146138932Y-96988899D01*
X145959608Y-96770392D01*
X145741101Y-96591068D01*
X145611655Y-96521878D01*
X145629227Y-96514430D01*
X145862662Y-96355673D01*
X146060639Y-96154425D01*
X146215551Y-95918421D01*
X146321444Y-95656730D01*
X146331904Y-95599039D01*
X146209915Y-95377000D01*
X144867000Y-95377000D01*
X144867000Y-95397000D01*
X144613000Y-95397000D01*
X144613000Y-95377000D01*
X143270085Y-95377000D01*
X143148096Y-95599039D01*
X143158556Y-95656730D01*
X143264449Y-95918421D01*
X143419361Y-96154425D01*
X143617338Y-96355673D01*
X143850773Y-96514430D01*
X143868345Y-96521878D01*
X143738899Y-96591068D01*
X143520392Y-96770392D01*
X143341068Y-96988899D01*
X143207818Y-97238192D01*
X143125764Y-97508691D01*
X143098057Y-97790000D01*
X123521943Y-97790000D01*
X123494236Y-97508691D01*
X123412182Y-97238192D01*
X123278932Y-96988899D01*
X123099608Y-96770392D01*
X122881101Y-96591068D01*
X122748142Y-96520000D01*
X122881101Y-96448932D01*
X123099608Y-96269608D01*
X123278932Y-96051101D01*
X123412182Y-95801808D01*
X123494236Y-95531309D01*
X123521943Y-95250000D01*
X123509584Y-95124514D01*
X153352500Y-95124514D01*
X153352500Y-95375485D01*
X153375470Y-95608703D01*
X153466245Y-95907948D01*
X153613655Y-96183734D01*
X153812037Y-96425463D01*
X154053765Y-96623845D01*
X154329551Y-96771255D01*
X154628796Y-96862030D01*
X154940000Y-96892681D01*
X155251203Y-96862030D01*
X155550448Y-96771255D01*
X155826234Y-96623845D01*
X156067963Y-96425463D01*
X156210000Y-96252391D01*
X156352037Y-96425463D01*
X156593765Y-96623845D01*
X156869551Y-96771255D01*
X157168796Y-96862030D01*
X157480000Y-96892681D01*
X157791203Y-96862030D01*
X158090448Y-96771255D01*
X158366234Y-96623845D01*
X158492095Y-96520553D01*
X158536963Y-96604494D01*
X158616315Y-96701185D01*
X158713006Y-96780537D01*
X158823320Y-96839502D01*
X158943018Y-96875812D01*
X159067500Y-96888072D01*
X160972500Y-96888072D01*
X161096982Y-96875812D01*
X161216680Y-96839502D01*
X161326994Y-96780537D01*
X161423685Y-96701185D01*
X161503037Y-96604494D01*
X161562002Y-96494180D01*
X161598312Y-96374482D01*
X161610572Y-96250000D01*
X161610572Y-95124514D01*
X168592500Y-95124514D01*
X168592500Y-95375485D01*
X168615470Y-95608703D01*
X168706245Y-95907948D01*
X168853655Y-96183734D01*
X169052037Y-96425463D01*
X169293765Y-96623845D01*
X169569551Y-96771255D01*
X169868796Y-96862030D01*
X170180000Y-96892681D01*
X170491203Y-96862030D01*
X170790448Y-96771255D01*
X171066234Y-96623845D01*
X171307963Y-96425463D01*
X171450000Y-96252391D01*
X171592037Y-96425463D01*
X171833765Y-96623845D01*
X172109551Y-96771255D01*
X172408796Y-96862030D01*
X172720000Y-96892681D01*
X173031203Y-96862030D01*
X173330448Y-96771255D01*
X173606234Y-96623845D01*
X173732095Y-96520553D01*
X173776963Y-96604494D01*
X173856315Y-96701185D01*
X173953006Y-96780537D01*
X174063320Y-96839502D01*
X174183018Y-96875812D01*
X174307500Y-96888072D01*
X176212500Y-96888072D01*
X176336982Y-96875812D01*
X176456680Y-96839502D01*
X176566994Y-96780537D01*
X176663685Y-96701185D01*
X176743037Y-96604494D01*
X176802002Y-96494180D01*
X176838312Y-96374482D01*
X176850572Y-96250000D01*
X176850572Y-94250000D01*
X176838312Y-94125518D01*
X176802002Y-94005820D01*
X176743037Y-93895506D01*
X176663685Y-93798815D01*
X176566994Y-93719463D01*
X176456680Y-93660498D01*
X176336982Y-93624188D01*
X176212500Y-93611928D01*
X174307500Y-93611928D01*
X174183018Y-93624188D01*
X174063320Y-93660498D01*
X173953006Y-93719463D01*
X173856315Y-93798815D01*
X173776963Y-93895506D01*
X173732095Y-93979446D01*
X173606235Y-93876155D01*
X173330449Y-93728745D01*
X173031204Y-93637970D01*
X172720000Y-93607319D01*
X172408797Y-93637970D01*
X172109552Y-93728745D01*
X171833766Y-93876155D01*
X171592037Y-94074537D01*
X171450000Y-94247609D01*
X171307963Y-94074537D01*
X171066235Y-93876155D01*
X170790449Y-93728745D01*
X170491204Y-93637970D01*
X170180000Y-93607319D01*
X169868797Y-93637970D01*
X169569552Y-93728745D01*
X169293766Y-93876155D01*
X169052037Y-94074537D01*
X168853655Y-94316265D01*
X168706245Y-94592051D01*
X168615470Y-94891296D01*
X168592500Y-95124514D01*
X161610572Y-95124514D01*
X161610572Y-94250000D01*
X161598312Y-94125518D01*
X161562002Y-94005820D01*
X161503037Y-93895506D01*
X161423685Y-93798815D01*
X161326994Y-93719463D01*
X161216680Y-93660498D01*
X161096982Y-93624188D01*
X160972500Y-93611928D01*
X159067500Y-93611928D01*
X158943018Y-93624188D01*
X158823320Y-93660498D01*
X158713006Y-93719463D01*
X158616315Y-93798815D01*
X158536963Y-93895506D01*
X158492095Y-93979446D01*
X158366235Y-93876155D01*
X158090449Y-93728745D01*
X157791204Y-93637970D01*
X157480000Y-93607319D01*
X157168797Y-93637970D01*
X156869552Y-93728745D01*
X156593766Y-93876155D01*
X156352037Y-94074537D01*
X156210000Y-94247609D01*
X156067963Y-94074537D01*
X155826235Y-93876155D01*
X155550449Y-93728745D01*
X155251204Y-93637970D01*
X154940000Y-93607319D01*
X154628797Y-93637970D01*
X154329552Y-93728745D01*
X154053766Y-93876155D01*
X153812037Y-94074537D01*
X153613655Y-94316265D01*
X153466245Y-94592051D01*
X153375470Y-94891296D01*
X153352500Y-95124514D01*
X123509584Y-95124514D01*
X123494236Y-94968691D01*
X123412182Y-94698192D01*
X123278932Y-94448899D01*
X123099608Y-94230392D01*
X122881101Y-94051068D01*
X122748142Y-93980000D01*
X122881101Y-93908932D01*
X123099608Y-93729608D01*
X123278932Y-93511101D01*
X123412182Y-93261808D01*
X123494236Y-92991309D01*
X123521943Y-92710000D01*
X123494236Y-92428691D01*
X123412182Y-92158192D01*
X123278932Y-91908899D01*
X123099608Y-91690392D01*
X122881101Y-91511068D01*
X122748142Y-91440000D01*
X122881101Y-91368932D01*
X123099608Y-91189608D01*
X123278932Y-90971101D01*
X123412182Y-90721808D01*
X123494236Y-90451309D01*
X123521943Y-90170000D01*
X123494236Y-89888691D01*
X123412182Y-89618192D01*
X123278932Y-89368899D01*
X123099608Y-89150392D01*
X122881101Y-88971068D01*
X122748142Y-88900000D01*
X122881101Y-88828932D01*
X123099608Y-88649608D01*
X123278932Y-88431101D01*
X123412182Y-88181808D01*
X123494236Y-87911309D01*
X123521943Y-87630000D01*
X123494236Y-87348691D01*
X123412182Y-87078192D01*
X123278932Y-86828899D01*
X123099608Y-86610392D01*
X122881101Y-86431068D01*
X122748142Y-86360000D01*
X122881101Y-86288932D01*
X123099608Y-86109608D01*
X123278932Y-85891101D01*
X123412182Y-85641808D01*
X123494236Y-85371309D01*
X123521943Y-85090000D01*
X123494236Y-84808691D01*
X123412182Y-84538192D01*
X123278932Y-84288899D01*
X123099608Y-84070392D01*
X122881101Y-83891068D01*
X122748142Y-83820000D01*
X122881101Y-83748932D01*
X123099608Y-83569608D01*
X123278932Y-83351101D01*
X123412182Y-83101808D01*
X123494236Y-82831309D01*
X123521943Y-82550000D01*
X123494236Y-82268691D01*
X123412182Y-81998192D01*
X123278932Y-81748899D01*
X123146524Y-81587559D01*
X123234494Y-81540537D01*
X123331185Y-81461185D01*
X123410537Y-81364494D01*
X123469502Y-81254180D01*
X123505812Y-81134482D01*
X123518072Y-81010000D01*
X123518072Y-80010000D01*
X143098057Y-80010000D01*
X143125764Y-80291309D01*
X143207818Y-80561808D01*
X143341068Y-80811101D01*
X143520392Y-81029608D01*
X143738899Y-81208932D01*
X143871858Y-81280000D01*
X143738899Y-81351068D01*
X143520392Y-81530392D01*
X143341068Y-81748899D01*
X143207818Y-81998192D01*
X143125764Y-82268691D01*
X143098057Y-82550000D01*
X143125764Y-82831309D01*
X143207818Y-83101808D01*
X143341068Y-83351101D01*
X143520392Y-83569608D01*
X143738899Y-83748932D01*
X143871858Y-83820000D01*
X143738899Y-83891068D01*
X143520392Y-84070392D01*
X143341068Y-84288899D01*
X143207818Y-84538192D01*
X143125764Y-84808691D01*
X143098057Y-85090000D01*
X143125764Y-85371309D01*
X143207818Y-85641808D01*
X143341068Y-85891101D01*
X143520392Y-86109608D01*
X143738899Y-86288932D01*
X143871858Y-86360000D01*
X143738899Y-86431068D01*
X143520392Y-86610392D01*
X143341068Y-86828899D01*
X143207818Y-87078192D01*
X143125764Y-87348691D01*
X143098057Y-87630000D01*
X143125764Y-87911309D01*
X143207818Y-88181808D01*
X143341068Y-88431101D01*
X143520392Y-88649608D01*
X143738899Y-88828932D01*
X143871858Y-88900000D01*
X143738899Y-88971068D01*
X143520392Y-89150392D01*
X143341068Y-89368899D01*
X143207818Y-89618192D01*
X143125764Y-89888691D01*
X143098057Y-90170000D01*
X143125764Y-90451309D01*
X143207818Y-90721808D01*
X143341068Y-90971101D01*
X143520392Y-91189608D01*
X143738899Y-91368932D01*
X143871858Y-91440000D01*
X143738899Y-91511068D01*
X143520392Y-91690392D01*
X143341068Y-91908899D01*
X143207818Y-92158192D01*
X143125764Y-92428691D01*
X143098057Y-92710000D01*
X143125764Y-92991309D01*
X143207818Y-93261808D01*
X143341068Y-93511101D01*
X143520392Y-93729608D01*
X143738899Y-93908932D01*
X143868345Y-93978122D01*
X143850773Y-93985570D01*
X143617338Y-94144327D01*
X143419361Y-94345575D01*
X143264449Y-94581579D01*
X143158556Y-94843270D01*
X143148096Y-94900961D01*
X143270085Y-95123000D01*
X144613000Y-95123000D01*
X144613000Y-95103000D01*
X144867000Y-95103000D01*
X144867000Y-95123000D01*
X146209915Y-95123000D01*
X146331904Y-94900961D01*
X146321444Y-94843270D01*
X146215551Y-94581579D01*
X146060639Y-94345575D01*
X145862662Y-94144327D01*
X145629227Y-93985570D01*
X145611655Y-93978122D01*
X145741101Y-93908932D01*
X145959608Y-93729608D01*
X146138932Y-93511101D01*
X146272182Y-93261808D01*
X146354236Y-92991309D01*
X146381943Y-92710000D01*
X146354236Y-92428691D01*
X146272182Y-92158192D01*
X146138932Y-91908899D01*
X145959608Y-91690392D01*
X145741101Y-91511068D01*
X145608142Y-91440000D01*
X145741101Y-91368932D01*
X145959608Y-91189608D01*
X146138932Y-90971101D01*
X146272182Y-90721808D01*
X146354236Y-90451309D01*
X146381943Y-90170000D01*
X146354236Y-89888691D01*
X146272182Y-89618192D01*
X146138932Y-89368899D01*
X145959608Y-89150392D01*
X145741101Y-88971068D01*
X145608142Y-88900000D01*
X145741101Y-88828932D01*
X145959608Y-88649608D01*
X146138932Y-88431101D01*
X146272182Y-88181808D01*
X146354236Y-87911309D01*
X146381943Y-87630000D01*
X146354236Y-87348691D01*
X146272182Y-87078192D01*
X146138932Y-86828899D01*
X145959608Y-86610392D01*
X145741101Y-86431068D01*
X145608142Y-86360000D01*
X145741101Y-86288932D01*
X145959608Y-86109608D01*
X146138932Y-85891101D01*
X146272182Y-85641808D01*
X146354236Y-85371309D01*
X146381943Y-85090000D01*
X146354236Y-84808691D01*
X146272182Y-84538192D01*
X146138932Y-84288899D01*
X145959608Y-84070392D01*
X145741101Y-83891068D01*
X145608142Y-83820000D01*
X145741101Y-83748932D01*
X145959608Y-83569608D01*
X146138932Y-83351101D01*
X146272182Y-83101808D01*
X146354236Y-82831309D01*
X146381943Y-82550000D01*
X146354236Y-82268691D01*
X146272182Y-81998192D01*
X146138932Y-81748899D01*
X145959608Y-81530392D01*
X145741101Y-81351068D01*
X145608142Y-81280000D01*
X145741101Y-81208932D01*
X145959608Y-81029608D01*
X146138932Y-80811101D01*
X146272182Y-80561808D01*
X146354236Y-80291309D01*
X146381943Y-80010000D01*
X146354236Y-79728691D01*
X146272182Y-79458192D01*
X146138932Y-79208899D01*
X145959608Y-78990392D01*
X145741101Y-78811068D01*
X145491808Y-78677818D01*
X145221309Y-78595764D01*
X145010492Y-78575000D01*
X144469508Y-78575000D01*
X144258691Y-78595764D01*
X143988192Y-78677818D01*
X143738899Y-78811068D01*
X143520392Y-78990392D01*
X143341068Y-79208899D01*
X143207818Y-79458192D01*
X143125764Y-79728691D01*
X143098057Y-80010000D01*
X123518072Y-80010000D01*
X123518072Y-79010000D01*
X123505812Y-78885518D01*
X123469502Y-78765820D01*
X123410537Y-78655506D01*
X123331185Y-78558815D01*
X123234494Y-78479463D01*
X123124180Y-78420498D01*
X123004482Y-78384188D01*
X122880000Y-78371928D01*
X120880000Y-78371928D01*
X120755518Y-78384188D01*
X120635820Y-78420498D01*
X120525506Y-78479463D01*
X120428815Y-78558815D01*
X120349463Y-78655506D01*
X120290498Y-78765820D01*
X120254188Y-78885518D01*
X120241928Y-79010000D01*
X120241928Y-81010000D01*
X120254188Y-81134482D01*
X120290498Y-81254180D01*
X120349463Y-81364494D01*
X120428815Y-81461185D01*
X120525506Y-81540537D01*
X120613476Y-81587559D01*
X120481068Y-81748899D01*
X120347818Y-81998192D01*
X120265764Y-82268691D01*
X120238057Y-82550000D01*
X115635000Y-82550000D01*
X115635000Y-82418514D01*
X115583696Y-82160595D01*
X115483061Y-81917641D01*
X115336962Y-81698987D01*
X115151013Y-81513038D01*
X114932359Y-81366939D01*
X114722470Y-81280000D01*
X114932359Y-81193061D01*
X115151013Y-81046962D01*
X115336962Y-80861013D01*
X115483061Y-80642359D01*
X115570000Y-80432470D01*
X115656939Y-80642359D01*
X115803038Y-80861013D01*
X115988987Y-81046962D01*
X116207641Y-81193061D01*
X116450595Y-81293696D01*
X116708514Y-81345000D01*
X116971486Y-81345000D01*
X117229405Y-81293696D01*
X117472359Y-81193061D01*
X117691013Y-81046962D01*
X117876962Y-80861013D01*
X118023061Y-80642359D01*
X118123696Y-80399405D01*
X118175000Y-80141486D01*
X118175000Y-79878514D01*
X118123696Y-79620595D01*
X118023061Y-79377641D01*
X117876962Y-79158987D01*
X117691013Y-78973038D01*
X117472359Y-78826939D01*
X117262470Y-78740000D01*
X117472359Y-78653061D01*
X117691013Y-78506962D01*
X117876962Y-78321013D01*
X118023061Y-78102359D01*
X118123696Y-77859405D01*
X118175000Y-77601486D01*
X118175000Y-77338514D01*
X118123696Y-77080595D01*
X118023061Y-76837641D01*
X117876962Y-76618987D01*
X117691013Y-76433038D01*
X117472359Y-76286939D01*
X117229405Y-76186304D01*
X116971486Y-76135000D01*
X116708514Y-76135000D01*
X116450595Y-76186304D01*
X116207641Y-76286939D01*
X115988987Y-76433038D01*
X115803038Y-76618987D01*
X115656939Y-76837641D01*
X115556304Y-77080595D01*
X115505000Y-77338514D01*
X115505000Y-77601486D01*
X115556304Y-77859405D01*
X115656939Y-78102359D01*
X115803038Y-78321013D01*
X115988987Y-78506962D01*
X116207641Y-78653061D01*
X116417530Y-78740000D01*
X116207641Y-78826939D01*
X115988987Y-78973038D01*
X115803038Y-79158987D01*
X115656939Y-79377641D01*
X115570000Y-79587530D01*
X115483061Y-79377641D01*
X115336962Y-79158987D01*
X115151013Y-78973038D01*
X114932359Y-78826939D01*
X114689405Y-78726304D01*
X114431486Y-78675000D01*
X114168514Y-78675000D01*
X113910595Y-78726304D01*
X113667641Y-78826939D01*
X113448987Y-78973038D01*
X113263038Y-79158987D01*
X113116939Y-79377641D01*
X113016304Y-79620595D01*
X112965000Y-79878514D01*
X112965000Y-80141486D01*
X113016304Y-80399405D01*
X113116939Y-80642359D01*
X113263038Y-80861013D01*
X113448987Y-81046962D01*
X113667641Y-81193061D01*
X113877530Y-81280000D01*
X113667641Y-81366939D01*
X113448987Y-81513038D01*
X113263038Y-81698987D01*
X113116939Y-81917641D01*
X113030000Y-82127530D01*
X112943061Y-81917641D01*
X112796962Y-81698987D01*
X112611013Y-81513038D01*
X112392359Y-81366939D01*
X112149405Y-81266304D01*
X111891486Y-81215000D01*
X111628514Y-81215000D01*
X111370595Y-81266304D01*
X111127641Y-81366939D01*
X110908987Y-81513038D01*
X110723038Y-81698987D01*
X110576939Y-81917641D01*
X110476304Y-82160595D01*
X110425000Y-82418514D01*
X105470557Y-82418514D01*
X105439125Y-82215656D01*
X105348935Y-81968634D01*
X105295037Y-81867797D01*
X105061269Y-81808336D01*
X104319605Y-82550000D01*
X103960395Y-82550000D01*
X103218731Y-81808336D01*
X102984963Y-81867797D01*
X102874066Y-82106242D01*
X102811817Y-82361740D01*
X102800610Y-82624473D01*
X87757000Y-82624473D01*
X87757000Y-81628731D01*
X103398336Y-81628731D01*
X104140000Y-82370395D01*
X104881664Y-81628731D01*
X104822203Y-81394963D01*
X104583758Y-81284066D01*
X104328260Y-81221817D01*
X104065527Y-81210610D01*
X103805656Y-81250875D01*
X103558634Y-81341065D01*
X103457797Y-81394963D01*
X103398336Y-81628731D01*
X87757000Y-81628731D01*
X87757000Y-80931269D01*
X105938336Y-80931269D01*
X105997797Y-81165037D01*
X106236242Y-81275934D01*
X106491740Y-81338183D01*
X106754473Y-81349390D01*
X107014344Y-81309125D01*
X107261366Y-81218935D01*
X107362203Y-81165037D01*
X107421664Y-80931269D01*
X106680000Y-80189605D01*
X105938336Y-80931269D01*
X87757000Y-80931269D01*
X87757000Y-80084473D01*
X105340610Y-80084473D01*
X105380875Y-80344344D01*
X105471065Y-80591366D01*
X105524963Y-80692203D01*
X105758731Y-80751664D01*
X106500395Y-80010000D01*
X106859605Y-80010000D01*
X107601269Y-80751664D01*
X107835037Y-80692203D01*
X107945934Y-80453758D01*
X108008183Y-80198260D01*
X108019390Y-79935527D01*
X107979125Y-79675656D01*
X107888935Y-79428634D01*
X107835037Y-79327797D01*
X107601269Y-79268336D01*
X106859605Y-80010000D01*
X106500395Y-80010000D01*
X105758731Y-79268336D01*
X105524963Y-79327797D01*
X105414066Y-79566242D01*
X105351817Y-79821740D01*
X105340610Y-80084473D01*
X87757000Y-80084473D01*
X87757000Y-79088731D01*
X105938336Y-79088731D01*
X106680000Y-79830395D01*
X107421664Y-79088731D01*
X107362203Y-78854963D01*
X107123758Y-78744066D01*
X106868260Y-78681817D01*
X106605527Y-78670610D01*
X106345656Y-78710875D01*
X106098634Y-78801065D01*
X105997797Y-78854963D01*
X105938336Y-79088731D01*
X87757000Y-79088731D01*
X87757000Y-78391269D01*
X108478336Y-78391269D01*
X108537797Y-78625037D01*
X108776242Y-78735934D01*
X109031740Y-78798183D01*
X109294473Y-78809390D01*
X109554344Y-78769125D01*
X109801366Y-78678935D01*
X109902203Y-78625037D01*
X109961664Y-78391269D01*
X109220000Y-77649605D01*
X108478336Y-78391269D01*
X87757000Y-78391269D01*
X87757000Y-77544473D01*
X107880610Y-77544473D01*
X107920875Y-77804344D01*
X108011065Y-78051366D01*
X108064963Y-78152203D01*
X108298731Y-78211664D01*
X109040395Y-77470000D01*
X109399605Y-77470000D01*
X110141269Y-78211664D01*
X110375037Y-78152203D01*
X110485934Y-77913758D01*
X110548183Y-77658260D01*
X110559390Y-77395527D01*
X110519125Y-77135656D01*
X110428935Y-76888634D01*
X110375037Y-76787797D01*
X110141269Y-76728336D01*
X109399605Y-77470000D01*
X109040395Y-77470000D01*
X108298731Y-76728336D01*
X108064963Y-76787797D01*
X107954066Y-77026242D01*
X107891817Y-77281740D01*
X107880610Y-77544473D01*
X87757000Y-77544473D01*
X87757000Y-76548731D01*
X108478336Y-76548731D01*
X109220000Y-77290395D01*
X109961664Y-76548731D01*
X109902203Y-76314963D01*
X109663758Y-76204066D01*
X109408260Y-76141817D01*
X109145527Y-76130610D01*
X108885656Y-76170875D01*
X108638634Y-76261065D01*
X108537797Y-76314963D01*
X108478336Y-76548731D01*
X87757000Y-76548731D01*
X87757000Y-67178514D01*
X138365000Y-67178514D01*
X138365000Y-67441486D01*
X138416304Y-67699405D01*
X138516939Y-67942359D01*
X138663038Y-68161013D01*
X138848987Y-68346962D01*
X139067641Y-68493061D01*
X139277530Y-68580000D01*
X139067641Y-68666939D01*
X138848987Y-68813038D01*
X138663038Y-68998987D01*
X138516939Y-69217641D01*
X138416304Y-69460595D01*
X138365000Y-69718514D01*
X138365000Y-69981486D01*
X138416304Y-70239405D01*
X138516939Y-70482359D01*
X138663038Y-70701013D01*
X138848987Y-70886962D01*
X139067641Y-71033061D01*
X139310595Y-71133696D01*
X139568514Y-71185000D01*
X139831486Y-71185000D01*
X140089405Y-71133696D01*
X140332359Y-71033061D01*
X140551013Y-70886962D01*
X140736962Y-70701013D01*
X140883061Y-70482359D01*
X140983696Y-70239405D01*
X141035000Y-69981486D01*
X141035000Y-69718514D01*
X140983696Y-69460595D01*
X140883061Y-69217641D01*
X140736962Y-68998987D01*
X140551013Y-68813038D01*
X140332359Y-68666939D01*
X140122470Y-68580000D01*
X140332359Y-68493061D01*
X140551013Y-68346962D01*
X140736962Y-68161013D01*
X140883061Y-67942359D01*
X140983696Y-67699405D01*
X141035000Y-67441486D01*
X141035000Y-67178514D01*
X145985000Y-67178514D01*
X145985000Y-67441486D01*
X146036304Y-67699405D01*
X146136939Y-67942359D01*
X146283038Y-68161013D01*
X146468987Y-68346962D01*
X146687641Y-68493061D01*
X146897530Y-68580000D01*
X146687641Y-68666939D01*
X146468987Y-68813038D01*
X146283038Y-68998987D01*
X146136939Y-69217641D01*
X146036304Y-69460595D01*
X145985000Y-69718514D01*
X145985000Y-69981486D01*
X146036304Y-70239405D01*
X146136939Y-70482359D01*
X146283038Y-70701013D01*
X146468987Y-70886962D01*
X146687641Y-71033061D01*
X146930595Y-71133696D01*
X147188514Y-71185000D01*
X147451486Y-71185000D01*
X147709405Y-71133696D01*
X147952359Y-71033061D01*
X148090000Y-70941093D01*
X148090001Y-79319239D01*
X148084509Y-79375000D01*
X148106423Y-79597498D01*
X148171324Y-79811446D01*
X148207173Y-79878514D01*
X148276717Y-80008623D01*
X148418552Y-80181449D01*
X148461860Y-80216991D01*
X149063002Y-80818133D01*
X156153971Y-87909103D01*
X156177072Y-88025239D01*
X156279215Y-88271833D01*
X156427503Y-88493762D01*
X156616238Y-88682497D01*
X156838167Y-88830785D01*
X157084761Y-88932928D01*
X157346544Y-88985000D01*
X157613456Y-88985000D01*
X157875239Y-88932928D01*
X158121833Y-88830785D01*
X158343762Y-88682497D01*
X158532497Y-88493762D01*
X158680785Y-88271833D01*
X158750000Y-88104734D01*
X158819215Y-88271833D01*
X158967503Y-88493762D01*
X159156238Y-88682497D01*
X159378167Y-88830785D01*
X159624761Y-88932928D01*
X159886544Y-88985000D01*
X160153456Y-88985000D01*
X160415239Y-88932928D01*
X160661833Y-88830785D01*
X160883762Y-88682497D01*
X161000699Y-88565560D01*
X161804045Y-88565560D01*
X161865932Y-88801368D01*
X162107790Y-88914266D01*
X162367027Y-88977811D01*
X162633680Y-88989561D01*
X162897501Y-88949063D01*
X163148353Y-88857875D01*
X163254068Y-88801368D01*
X163315955Y-88565560D01*
X162560000Y-87809605D01*
X161804045Y-88565560D01*
X161000699Y-88565560D01*
X161072497Y-88493762D01*
X161220785Y-88271833D01*
X161290438Y-88103676D01*
X161332125Y-88218353D01*
X161388632Y-88324068D01*
X161624440Y-88385955D01*
X162380395Y-87630000D01*
X162739605Y-87630000D01*
X163495560Y-88385955D01*
X163731368Y-88324068D01*
X163844266Y-88082210D01*
X163907811Y-87822973D01*
X163919561Y-87556320D01*
X163879063Y-87292499D01*
X163787875Y-87041647D01*
X163731368Y-86935932D01*
X163495560Y-86874045D01*
X162739605Y-87630000D01*
X162380395Y-87630000D01*
X161624440Y-86874045D01*
X161388632Y-86935932D01*
X161288236Y-87151007D01*
X161220785Y-86988167D01*
X161072497Y-86766238D01*
X161000699Y-86694440D01*
X161804045Y-86694440D01*
X162560000Y-87450395D01*
X163315955Y-86694440D01*
X163254068Y-86458632D01*
X163012210Y-86345734D01*
X162752973Y-86282189D01*
X162486320Y-86270439D01*
X162222499Y-86310937D01*
X161971647Y-86402125D01*
X161865932Y-86458632D01*
X161804045Y-86694440D01*
X161000699Y-86694440D01*
X160883762Y-86577503D01*
X160661833Y-86429215D01*
X160415239Y-86327072D01*
X160153456Y-86275000D01*
X159886544Y-86275000D01*
X159624761Y-86327072D01*
X159378167Y-86429215D01*
X159156238Y-86577503D01*
X158967503Y-86766238D01*
X158819215Y-86988167D01*
X158750000Y-87155266D01*
X158680785Y-86988167D01*
X158532497Y-86766238D01*
X158343762Y-86577503D01*
X158121833Y-86429215D01*
X157875239Y-86327072D01*
X157759103Y-86303971D01*
X150668133Y-79213002D01*
X150360000Y-78904869D01*
X150360000Y-76023703D01*
X150482421Y-76124171D01*
X150683940Y-76231885D01*
X150902600Y-76298215D01*
X151130000Y-76320612D01*
X151357399Y-76298215D01*
X151576059Y-76231885D01*
X151764999Y-76130894D01*
X151953940Y-76231885D01*
X152172600Y-76298215D01*
X152400000Y-76320612D01*
X152627399Y-76298215D01*
X152836098Y-76234907D01*
X152900820Y-76269502D01*
X153020518Y-76305812D01*
X153145000Y-76318072D01*
X153384250Y-76315000D01*
X153543000Y-76156250D01*
X153543000Y-75383109D01*
X153543215Y-75382400D01*
X153560000Y-75211979D01*
X153560000Y-75057000D01*
X153797000Y-75057000D01*
X153797000Y-76156250D01*
X153955750Y-76315000D01*
X154195000Y-76318072D01*
X154319482Y-76305812D01*
X154439180Y-76269502D01*
X154549494Y-76210537D01*
X154646185Y-76131185D01*
X154725537Y-76034494D01*
X154784502Y-75924180D01*
X154820812Y-75804482D01*
X154833072Y-75680000D01*
X154830000Y-75215750D01*
X154671250Y-75057000D01*
X153797000Y-75057000D01*
X153560000Y-75057000D01*
X153560000Y-74648022D01*
X153543215Y-74477601D01*
X153543000Y-74476892D01*
X153543000Y-73703750D01*
X153797000Y-73703750D01*
X153797000Y-74803000D01*
X154671250Y-74803000D01*
X154826229Y-74648021D01*
X161400000Y-74648021D01*
X161400000Y-75211978D01*
X161416785Y-75382399D01*
X161483115Y-75601059D01*
X161590829Y-75802578D01*
X161735788Y-75979212D01*
X161912421Y-76124171D01*
X162113940Y-76231885D01*
X162332600Y-76298215D01*
X162560000Y-76320612D01*
X162787399Y-76298215D01*
X163006059Y-76231885D01*
X163194999Y-76130894D01*
X163383940Y-76231885D01*
X163602600Y-76298215D01*
X163830000Y-76320612D01*
X164057399Y-76298215D01*
X164266098Y-76234907D01*
X164330820Y-76269502D01*
X164450518Y-76305812D01*
X164575000Y-76318072D01*
X164814250Y-76315000D01*
X164973000Y-76156250D01*
X164973000Y-75383109D01*
X164973215Y-75382400D01*
X164990000Y-75211979D01*
X164990000Y-75057000D01*
X165227000Y-75057000D01*
X165227000Y-76156250D01*
X165385750Y-76315000D01*
X165625000Y-76318072D01*
X165749482Y-76305812D01*
X165869180Y-76269502D01*
X165979494Y-76210537D01*
X166076185Y-76131185D01*
X166155537Y-76034494D01*
X166214502Y-75924180D01*
X166250812Y-75804482D01*
X166263072Y-75680000D01*
X166260000Y-75215750D01*
X166101250Y-75057000D01*
X165227000Y-75057000D01*
X164990000Y-75057000D01*
X164990000Y-74648022D01*
X164973215Y-74477601D01*
X164973000Y-74476892D01*
X164973000Y-73703750D01*
X165227000Y-73703750D01*
X165227000Y-74803000D01*
X166101250Y-74803000D01*
X166260000Y-74644250D01*
X166263072Y-74180000D01*
X166250812Y-74055518D01*
X166214502Y-73935820D01*
X166155537Y-73825506D01*
X166076185Y-73728815D01*
X165979494Y-73649463D01*
X165869180Y-73590498D01*
X165749482Y-73554188D01*
X165625000Y-73541928D01*
X165385750Y-73545000D01*
X165227000Y-73703750D01*
X164973000Y-73703750D01*
X164814250Y-73545000D01*
X164575000Y-73541928D01*
X164450518Y-73554188D01*
X164330820Y-73590498D01*
X164266098Y-73625093D01*
X164057400Y-73561785D01*
X163830000Y-73539388D01*
X163602601Y-73561785D01*
X163383941Y-73628115D01*
X163195001Y-73729106D01*
X163006060Y-73628115D01*
X162787400Y-73561785D01*
X162560000Y-73539388D01*
X162332601Y-73561785D01*
X162113941Y-73628115D01*
X161912422Y-73735829D01*
X161735789Y-73880788D01*
X161590830Y-74057421D01*
X161483115Y-74258940D01*
X161416785Y-74477600D01*
X161400000Y-74648021D01*
X154826229Y-74648021D01*
X154830000Y-74644250D01*
X154833072Y-74180000D01*
X154820812Y-74055518D01*
X154784502Y-73935820D01*
X154725537Y-73825506D01*
X154646185Y-73728815D01*
X154549494Y-73649463D01*
X154439180Y-73590498D01*
X154319482Y-73554188D01*
X154195000Y-73541928D01*
X153955750Y-73545000D01*
X153797000Y-73703750D01*
X153543000Y-73703750D01*
X153384250Y-73545000D01*
X153145000Y-73541928D01*
X153020518Y-73554188D01*
X152900820Y-73590498D01*
X152836098Y-73625093D01*
X152627400Y-73561785D01*
X152400000Y-73539388D01*
X152172601Y-73561785D01*
X151953941Y-73628115D01*
X151765001Y-73729106D01*
X151576060Y-73628115D01*
X151357400Y-73561785D01*
X151130000Y-73539388D01*
X150902601Y-73561785D01*
X150683941Y-73628115D01*
X150482422Y-73735829D01*
X150360000Y-73836298D01*
X150360000Y-69270752D01*
X150365491Y-69215000D01*
X150343577Y-68992501D01*
X150278676Y-68778553D01*
X150173284Y-68581377D01*
X150160914Y-68566304D01*
X150031449Y-68408551D01*
X149988141Y-68373009D01*
X148793646Y-67178514D01*
X153605000Y-67178514D01*
X153605000Y-67441486D01*
X153656304Y-67699405D01*
X153756939Y-67942359D01*
X153903038Y-68161013D01*
X154088987Y-68346962D01*
X154307641Y-68493061D01*
X154517530Y-68580000D01*
X154307641Y-68666939D01*
X154088987Y-68813038D01*
X153903038Y-68998987D01*
X153756939Y-69217641D01*
X153656304Y-69460595D01*
X153605000Y-69718514D01*
X153605000Y-69981486D01*
X153656304Y-70239405D01*
X153756939Y-70482359D01*
X153903038Y-70701013D01*
X154088987Y-70886962D01*
X154307641Y-71033061D01*
X154550595Y-71133696D01*
X154808514Y-71185000D01*
X155071486Y-71185000D01*
X155329405Y-71133696D01*
X155572359Y-71033061D01*
X155791013Y-70886962D01*
X155976962Y-70701013D01*
X156123061Y-70482359D01*
X156223696Y-70239405D01*
X156275000Y-69981486D01*
X156275000Y-69718514D01*
X156223696Y-69460595D01*
X156123061Y-69217641D01*
X155976962Y-68998987D01*
X155791013Y-68813038D01*
X155572359Y-68666939D01*
X155362470Y-68580000D01*
X155572359Y-68493061D01*
X155791013Y-68346962D01*
X155976962Y-68161013D01*
X156123061Y-67942359D01*
X156223696Y-67699405D01*
X156275000Y-67441486D01*
X156275000Y-67178514D01*
X161225000Y-67178514D01*
X161225000Y-67441486D01*
X161276304Y-67699405D01*
X161376939Y-67942359D01*
X161523038Y-68161013D01*
X161708987Y-68346962D01*
X161927641Y-68493061D01*
X162137530Y-68580000D01*
X161927641Y-68666939D01*
X161708987Y-68813038D01*
X161523038Y-68998987D01*
X161376939Y-69217641D01*
X161276304Y-69460595D01*
X161225000Y-69718514D01*
X161225000Y-69981486D01*
X161276304Y-70239405D01*
X161376939Y-70482359D01*
X161523038Y-70701013D01*
X161708987Y-70886962D01*
X161927641Y-71033061D01*
X162170595Y-71133696D01*
X162428514Y-71185000D01*
X162691486Y-71185000D01*
X162949405Y-71133696D01*
X163192359Y-71033061D01*
X163411013Y-70886962D01*
X163596962Y-70701013D01*
X163743061Y-70482359D01*
X163843696Y-70239405D01*
X163895000Y-69981486D01*
X163895000Y-69718514D01*
X163843696Y-69460595D01*
X163743061Y-69217641D01*
X163596962Y-68998987D01*
X163411013Y-68813038D01*
X163192359Y-68666939D01*
X162982470Y-68580000D01*
X163192359Y-68493061D01*
X163264288Y-68445000D01*
X163359869Y-68445000D01*
X171585000Y-76670133D01*
X171585001Y-86889711D01*
X171519215Y-86988167D01*
X171417072Y-87234761D01*
X171365000Y-87496544D01*
X171365000Y-87763456D01*
X171417072Y-88025239D01*
X171519215Y-88271833D01*
X171667503Y-88493762D01*
X171856238Y-88682497D01*
X172078167Y-88830785D01*
X172324761Y-88932928D01*
X172586544Y-88985000D01*
X172853456Y-88985000D01*
X173115239Y-88932928D01*
X173361833Y-88830785D01*
X173583762Y-88682497D01*
X173772497Y-88493762D01*
X173920785Y-88271833D01*
X173990000Y-88104734D01*
X174059215Y-88271833D01*
X174207503Y-88493762D01*
X174396238Y-88682497D01*
X174618167Y-88830785D01*
X174864761Y-88932928D01*
X175126544Y-88985000D01*
X175393456Y-88985000D01*
X175655239Y-88932928D01*
X175901833Y-88830785D01*
X176123762Y-88682497D01*
X176240699Y-88565560D01*
X177044045Y-88565560D01*
X177105932Y-88801368D01*
X177347790Y-88914266D01*
X177607027Y-88977811D01*
X177873680Y-88989561D01*
X178137501Y-88949063D01*
X178388353Y-88857875D01*
X178494068Y-88801368D01*
X178555955Y-88565560D01*
X177800000Y-87809605D01*
X177044045Y-88565560D01*
X176240699Y-88565560D01*
X176312497Y-88493762D01*
X176460785Y-88271833D01*
X176530438Y-88103676D01*
X176572125Y-88218353D01*
X176628632Y-88324068D01*
X176864440Y-88385955D01*
X177620395Y-87630000D01*
X177979605Y-87630000D01*
X178735560Y-88385955D01*
X178971368Y-88324068D01*
X179084266Y-88082210D01*
X179147811Y-87822973D01*
X179159561Y-87556320D01*
X179119063Y-87292499D01*
X179027875Y-87041647D01*
X178971368Y-86935932D01*
X178735560Y-86874045D01*
X177979605Y-87630000D01*
X177620395Y-87630000D01*
X176864440Y-86874045D01*
X176628632Y-86935932D01*
X176528236Y-87151007D01*
X176460785Y-86988167D01*
X176312497Y-86766238D01*
X176240699Y-86694440D01*
X177044045Y-86694440D01*
X177800000Y-87450395D01*
X178555955Y-86694440D01*
X178494068Y-86458632D01*
X178252210Y-86345734D01*
X177992973Y-86282189D01*
X177726320Y-86270439D01*
X177462499Y-86310937D01*
X177211647Y-86402125D01*
X177105932Y-86458632D01*
X177044045Y-86694440D01*
X176240699Y-86694440D01*
X176123762Y-86577503D01*
X175901833Y-86429215D01*
X175655239Y-86327072D01*
X175393456Y-86275000D01*
X175126544Y-86275000D01*
X174864761Y-86327072D01*
X174618167Y-86429215D01*
X174396238Y-86577503D01*
X174207503Y-86766238D01*
X174059215Y-86988167D01*
X173990000Y-87155266D01*
X173920785Y-86988167D01*
X173855000Y-86889713D01*
X173855000Y-76307316D01*
X173990000Y-76320612D01*
X174217399Y-76298215D01*
X174436059Y-76231885D01*
X174624999Y-76130894D01*
X174813940Y-76231885D01*
X175032600Y-76298215D01*
X175260000Y-76320612D01*
X175487399Y-76298215D01*
X175696098Y-76234907D01*
X175760820Y-76269502D01*
X175880518Y-76305812D01*
X176005000Y-76318072D01*
X176244250Y-76315000D01*
X176403000Y-76156250D01*
X176403000Y-75383109D01*
X176403215Y-75382400D01*
X176420000Y-75211979D01*
X176420000Y-75057000D01*
X176657000Y-75057000D01*
X176657000Y-76156250D01*
X176815750Y-76315000D01*
X177055000Y-76318072D01*
X177179482Y-76305812D01*
X177299180Y-76269502D01*
X177409494Y-76210537D01*
X177506185Y-76131185D01*
X177585537Y-76034494D01*
X177644502Y-75924180D01*
X177680812Y-75804482D01*
X177693072Y-75680000D01*
X177690000Y-75215750D01*
X177531250Y-75057000D01*
X176657000Y-75057000D01*
X176420000Y-75057000D01*
X176420000Y-74648022D01*
X176403215Y-74477601D01*
X176403000Y-74476892D01*
X176403000Y-73703750D01*
X176657000Y-73703750D01*
X176657000Y-74803000D01*
X177531250Y-74803000D01*
X177690000Y-74644250D01*
X177693072Y-74180000D01*
X177680812Y-74055518D01*
X177644502Y-73935820D01*
X177585537Y-73825506D01*
X177506185Y-73728815D01*
X177409494Y-73649463D01*
X177299180Y-73590498D01*
X177179482Y-73554188D01*
X177055000Y-73541928D01*
X176815750Y-73545000D01*
X176657000Y-73703750D01*
X176403000Y-73703750D01*
X176244250Y-73545000D01*
X176005000Y-73541928D01*
X175880518Y-73554188D01*
X175760820Y-73590498D01*
X175696098Y-73625093D01*
X175487400Y-73561785D01*
X175260000Y-73539388D01*
X175032601Y-73561785D01*
X174813941Y-73628115D01*
X174625001Y-73729106D01*
X174436060Y-73628115D01*
X174217400Y-73561785D01*
X173990000Y-73539388D01*
X173855000Y-73552684D01*
X173855000Y-72860131D01*
X176509572Y-70205560D01*
X176516304Y-70239405D01*
X176616939Y-70482359D01*
X176763038Y-70701013D01*
X176948987Y-70886962D01*
X177167641Y-71033061D01*
X177410595Y-71133696D01*
X177668514Y-71185000D01*
X177931486Y-71185000D01*
X178189405Y-71133696D01*
X178432359Y-71033061D01*
X178651013Y-70886962D01*
X178836962Y-70701013D01*
X178983061Y-70482359D01*
X179083696Y-70239405D01*
X179135000Y-69981486D01*
X179135000Y-69718514D01*
X179083696Y-69460595D01*
X178983061Y-69217641D01*
X178836962Y-68998987D01*
X178651013Y-68813038D01*
X178432359Y-68666939D01*
X178222470Y-68580000D01*
X178432359Y-68493061D01*
X178651013Y-68346962D01*
X178836962Y-68161013D01*
X178983061Y-67942359D01*
X179083696Y-67699405D01*
X179135000Y-67441486D01*
X179135000Y-67178514D01*
X179083696Y-66920595D01*
X178983061Y-66677641D01*
X178836962Y-66458987D01*
X178651013Y-66273038D01*
X178432359Y-66126939D01*
X178189405Y-66026304D01*
X177931486Y-65975000D01*
X177668514Y-65975000D01*
X177410595Y-66026304D01*
X177167641Y-66126939D01*
X176948987Y-66273038D01*
X176763038Y-66458987D01*
X176616939Y-66677641D01*
X176516304Y-66920595D01*
X176499427Y-67005441D01*
X171956865Y-71548004D01*
X171913551Y-71583551D01*
X171771716Y-71756377D01*
X171666325Y-71953553D01*
X171666324Y-71953554D01*
X171601423Y-72167502D01*
X171579509Y-72390000D01*
X171585000Y-72445752D01*
X171585000Y-73459868D01*
X165303646Y-67178514D01*
X168845000Y-67178514D01*
X168845000Y-67441486D01*
X168896304Y-67699405D01*
X168996939Y-67942359D01*
X169143038Y-68161013D01*
X169328987Y-68346962D01*
X169547641Y-68493061D01*
X169757530Y-68580000D01*
X169547641Y-68666939D01*
X169328987Y-68813038D01*
X169143038Y-68998987D01*
X168996939Y-69217641D01*
X168896304Y-69460595D01*
X168845000Y-69718514D01*
X168845000Y-69981486D01*
X168896304Y-70239405D01*
X168996939Y-70482359D01*
X169143038Y-70701013D01*
X169328987Y-70886962D01*
X169547641Y-71033061D01*
X169790595Y-71133696D01*
X170048514Y-71185000D01*
X170311486Y-71185000D01*
X170569405Y-71133696D01*
X170812359Y-71033061D01*
X171031013Y-70886962D01*
X171216962Y-70701013D01*
X171363061Y-70482359D01*
X171463696Y-70239405D01*
X171515000Y-69981486D01*
X171515000Y-69718514D01*
X171463696Y-69460595D01*
X171363061Y-69217641D01*
X171216962Y-68998987D01*
X171031013Y-68813038D01*
X170812359Y-68666939D01*
X170602470Y-68580000D01*
X170812359Y-68493061D01*
X171031013Y-68346962D01*
X171216962Y-68161013D01*
X171363061Y-67942359D01*
X171463696Y-67699405D01*
X171515000Y-67441486D01*
X171515000Y-67178514D01*
X171463696Y-66920595D01*
X171363061Y-66677641D01*
X171216962Y-66458987D01*
X171031013Y-66273038D01*
X170812359Y-66126939D01*
X170569405Y-66026304D01*
X170311486Y-65975000D01*
X170048514Y-65975000D01*
X169790595Y-66026304D01*
X169547641Y-66126939D01*
X169328987Y-66273038D01*
X169143038Y-66458987D01*
X168996939Y-66677641D01*
X168896304Y-66920595D01*
X168845000Y-67178514D01*
X165303646Y-67178514D01*
X164671996Y-66546865D01*
X164636449Y-66503551D01*
X164463623Y-66361716D01*
X164266447Y-66256324D01*
X164052499Y-66191423D01*
X163885752Y-66175000D01*
X163885751Y-66175000D01*
X163830000Y-66169509D01*
X163774249Y-66175000D01*
X163264288Y-66175000D01*
X163192359Y-66126939D01*
X162949405Y-66026304D01*
X162691486Y-65975000D01*
X162428514Y-65975000D01*
X162170595Y-66026304D01*
X161927641Y-66126939D01*
X161708987Y-66273038D01*
X161523038Y-66458987D01*
X161376939Y-66677641D01*
X161276304Y-66920595D01*
X161225000Y-67178514D01*
X156275000Y-67178514D01*
X156223696Y-66920595D01*
X156123061Y-66677641D01*
X155976962Y-66458987D01*
X155791013Y-66273038D01*
X155572359Y-66126939D01*
X155329405Y-66026304D01*
X155071486Y-65975000D01*
X154808514Y-65975000D01*
X154550595Y-66026304D01*
X154307641Y-66126939D01*
X154088987Y-66273038D01*
X153903038Y-66458987D01*
X153756939Y-66677641D01*
X153656304Y-66920595D01*
X153605000Y-67178514D01*
X148793646Y-67178514D01*
X148620573Y-67005442D01*
X148603696Y-66920595D01*
X148503061Y-66677641D01*
X148356962Y-66458987D01*
X148171013Y-66273038D01*
X147952359Y-66126939D01*
X147709405Y-66026304D01*
X147451486Y-65975000D01*
X147188514Y-65975000D01*
X146930595Y-66026304D01*
X146687641Y-66126939D01*
X146468987Y-66273038D01*
X146283038Y-66458987D01*
X146136939Y-66677641D01*
X146036304Y-66920595D01*
X145985000Y-67178514D01*
X141035000Y-67178514D01*
X140983696Y-66920595D01*
X140883061Y-66677641D01*
X140736962Y-66458987D01*
X140551013Y-66273038D01*
X140332359Y-66126939D01*
X140089405Y-66026304D01*
X139831486Y-65975000D01*
X139568514Y-65975000D01*
X139310595Y-66026304D01*
X139067641Y-66126939D01*
X138848987Y-66273038D01*
X138663038Y-66458987D01*
X138516939Y-66677641D01*
X138416304Y-66920595D01*
X138365000Y-67178514D01*
X87757000Y-67178514D01*
X87757000Y-62500000D01*
X92389428Y-62500000D01*
X92389428Y-64500000D01*
X92401688Y-64624482D01*
X92437998Y-64744180D01*
X92496963Y-64854494D01*
X92576315Y-64951185D01*
X92673006Y-65030537D01*
X92783320Y-65089502D01*
X92903018Y-65125812D01*
X93027500Y-65138072D01*
X94932500Y-65138072D01*
X95056982Y-65125812D01*
X95176680Y-65089502D01*
X95286994Y-65030537D01*
X95383685Y-64951185D01*
X95463037Y-64854494D01*
X95507905Y-64770553D01*
X95633766Y-64873845D01*
X95909552Y-65021255D01*
X96208797Y-65112030D01*
X96520000Y-65142681D01*
X96831204Y-65112030D01*
X97130449Y-65021255D01*
X97406235Y-64873845D01*
X97647963Y-64675463D01*
X97795162Y-64496100D01*
X97950563Y-64681315D01*
X98193077Y-64875969D01*
X98468906Y-65019571D01*
X98687020Y-65090563D01*
X98933000Y-64970594D01*
X98933000Y-63627000D01*
X99187000Y-63627000D01*
X99187000Y-64970594D01*
X99432980Y-65090563D01*
X99651094Y-65019571D01*
X99926923Y-64875969D01*
X100169437Y-64681315D01*
X100369316Y-64443089D01*
X100518879Y-64170446D01*
X100612378Y-63873863D01*
X100485570Y-63627000D01*
X99187000Y-63627000D01*
X98933000Y-63627000D01*
X98913000Y-63627000D01*
X98913000Y-63373000D01*
X98933000Y-63373000D01*
X98933000Y-62029406D01*
X99187000Y-62029406D01*
X99187000Y-63373000D01*
X100485570Y-63373000D01*
X100612378Y-63126137D01*
X100518879Y-62829554D01*
X100369316Y-62556911D01*
X100321566Y-62500000D01*
X107629428Y-62500000D01*
X107629428Y-64500000D01*
X107641688Y-64624482D01*
X107677998Y-64744180D01*
X107736963Y-64854494D01*
X107816315Y-64951185D01*
X107913006Y-65030537D01*
X108023320Y-65089502D01*
X108143018Y-65125812D01*
X108267500Y-65138072D01*
X110172500Y-65138072D01*
X110296982Y-65125812D01*
X110416680Y-65089502D01*
X110526994Y-65030537D01*
X110623685Y-64951185D01*
X110703037Y-64854494D01*
X110747905Y-64770553D01*
X110873766Y-64873845D01*
X111149552Y-65021255D01*
X111448797Y-65112030D01*
X111760000Y-65142681D01*
X112071204Y-65112030D01*
X112370449Y-65021255D01*
X112646235Y-64873845D01*
X112887963Y-64675463D01*
X113035162Y-64496100D01*
X113190563Y-64681315D01*
X113433077Y-64875969D01*
X113708906Y-65019571D01*
X113927020Y-65090563D01*
X114173000Y-64970594D01*
X114173000Y-63627000D01*
X114427000Y-63627000D01*
X114427000Y-64970594D01*
X114672980Y-65090563D01*
X114891094Y-65019571D01*
X115166923Y-64875969D01*
X115409437Y-64681315D01*
X115609316Y-64443089D01*
X115758879Y-64170446D01*
X115852378Y-63873863D01*
X115725570Y-63627000D01*
X114427000Y-63627000D01*
X114173000Y-63627000D01*
X114153000Y-63627000D01*
X114153000Y-63373000D01*
X114173000Y-63373000D01*
X114173000Y-62029406D01*
X114427000Y-62029406D01*
X114427000Y-63373000D01*
X115725570Y-63373000D01*
X115852378Y-63126137D01*
X115758879Y-62829554D01*
X115609316Y-62556911D01*
X115561566Y-62500000D01*
X122869428Y-62500000D01*
X122869428Y-64500000D01*
X122881688Y-64624482D01*
X122917998Y-64744180D01*
X122976963Y-64854494D01*
X123056315Y-64951185D01*
X123153006Y-65030537D01*
X123263320Y-65089502D01*
X123383018Y-65125812D01*
X123507500Y-65138072D01*
X125412500Y-65138072D01*
X125536982Y-65125812D01*
X125656680Y-65089502D01*
X125766994Y-65030537D01*
X125863685Y-64951185D01*
X125943037Y-64854494D01*
X125987905Y-64770553D01*
X126113766Y-64873845D01*
X126389552Y-65021255D01*
X126688797Y-65112030D01*
X127000000Y-65142681D01*
X127311204Y-65112030D01*
X127610449Y-65021255D01*
X127886235Y-64873845D01*
X128127963Y-64675463D01*
X128275162Y-64496100D01*
X128430563Y-64681315D01*
X128673077Y-64875969D01*
X128948906Y-65019571D01*
X129167020Y-65090563D01*
X129413000Y-64970594D01*
X129413000Y-63627000D01*
X129667000Y-63627000D01*
X129667000Y-64970594D01*
X129912980Y-65090563D01*
X130131094Y-65019571D01*
X130406923Y-64875969D01*
X130649437Y-64681315D01*
X130849316Y-64443089D01*
X130998879Y-64170446D01*
X131092378Y-63873863D01*
X130965570Y-63627000D01*
X129667000Y-63627000D01*
X129413000Y-63627000D01*
X129393000Y-63627000D01*
X129393000Y-63373000D01*
X129413000Y-63373000D01*
X129413000Y-62029406D01*
X129667000Y-62029406D01*
X129667000Y-63373000D01*
X130965570Y-63373000D01*
X131092378Y-63126137D01*
X130998879Y-62829554D01*
X130849316Y-62556911D01*
X130801566Y-62500000D01*
X138109428Y-62500000D01*
X138109428Y-64500000D01*
X138121688Y-64624482D01*
X138157998Y-64744180D01*
X138216963Y-64854494D01*
X138296315Y-64951185D01*
X138393006Y-65030537D01*
X138503320Y-65089502D01*
X138623018Y-65125812D01*
X138747500Y-65138072D01*
X140652500Y-65138072D01*
X140776982Y-65125812D01*
X140896680Y-65089502D01*
X141006994Y-65030537D01*
X141103685Y-64951185D01*
X141183037Y-64854494D01*
X141227905Y-64770553D01*
X141353766Y-64873845D01*
X141629552Y-65021255D01*
X141928797Y-65112030D01*
X142240000Y-65142681D01*
X142551204Y-65112030D01*
X142850449Y-65021255D01*
X143126235Y-64873845D01*
X143367963Y-64675463D01*
X143510000Y-64502391D01*
X143652037Y-64675463D01*
X143893766Y-64873845D01*
X144169552Y-65021255D01*
X144468797Y-65112030D01*
X144780000Y-65142681D01*
X145091204Y-65112030D01*
X145390449Y-65021255D01*
X145666235Y-64873845D01*
X145907963Y-64675463D01*
X146106345Y-64433734D01*
X146253755Y-64157948D01*
X146344530Y-63858703D01*
X146367500Y-63625485D01*
X146367500Y-63374514D01*
X146344530Y-63141296D01*
X146253755Y-62842051D01*
X146106345Y-62566265D01*
X146051963Y-62500000D01*
X153349428Y-62500000D01*
X153349428Y-64500000D01*
X153361688Y-64624482D01*
X153397998Y-64744180D01*
X153456963Y-64854494D01*
X153536315Y-64951185D01*
X153633006Y-65030537D01*
X153743320Y-65089502D01*
X153863018Y-65125812D01*
X153987500Y-65138072D01*
X155892500Y-65138072D01*
X156016982Y-65125812D01*
X156136680Y-65089502D01*
X156246994Y-65030537D01*
X156343685Y-64951185D01*
X156423037Y-64854494D01*
X156467905Y-64770553D01*
X156593766Y-64873845D01*
X156869552Y-65021255D01*
X157168797Y-65112030D01*
X157480000Y-65142681D01*
X157791204Y-65112030D01*
X158090449Y-65021255D01*
X158366235Y-64873845D01*
X158607963Y-64675463D01*
X158750000Y-64502391D01*
X158892037Y-64675463D01*
X159133766Y-64873845D01*
X159409552Y-65021255D01*
X159708797Y-65112030D01*
X160020000Y-65142681D01*
X160331204Y-65112030D01*
X160630449Y-65021255D01*
X160906235Y-64873845D01*
X161147963Y-64675463D01*
X161346345Y-64433734D01*
X161493755Y-64157948D01*
X161584530Y-63858703D01*
X161607500Y-63625485D01*
X161607500Y-63374514D01*
X161584530Y-63141296D01*
X161493755Y-62842051D01*
X161346345Y-62566265D01*
X161291963Y-62500000D01*
X168589428Y-62500000D01*
X168589428Y-64500000D01*
X168601688Y-64624482D01*
X168637998Y-64744180D01*
X168696963Y-64854494D01*
X168776315Y-64951185D01*
X168873006Y-65030537D01*
X168983320Y-65089502D01*
X169103018Y-65125812D01*
X169227500Y-65138072D01*
X171132500Y-65138072D01*
X171256982Y-65125812D01*
X171376680Y-65089502D01*
X171486994Y-65030537D01*
X171583685Y-64951185D01*
X171663037Y-64854494D01*
X171707905Y-64770553D01*
X171833766Y-64873845D01*
X172109552Y-65021255D01*
X172408797Y-65112030D01*
X172720000Y-65142681D01*
X173031204Y-65112030D01*
X173330449Y-65021255D01*
X173606235Y-64873845D01*
X173847963Y-64675463D01*
X173990000Y-64502391D01*
X174132037Y-64675463D01*
X174373766Y-64873845D01*
X174649552Y-65021255D01*
X174948797Y-65112030D01*
X175260000Y-65142681D01*
X175571204Y-65112030D01*
X175870449Y-65021255D01*
X176146235Y-64873845D01*
X176387963Y-64675463D01*
X176586345Y-64433734D01*
X176733755Y-64157948D01*
X176824530Y-63858703D01*
X176847500Y-63625485D01*
X176847500Y-63374514D01*
X176824530Y-63141296D01*
X176733755Y-62842051D01*
X176586345Y-62566265D01*
X176387963Y-62324537D01*
X176146234Y-62126155D01*
X175870448Y-61978745D01*
X175571203Y-61887970D01*
X175260000Y-61857319D01*
X174948796Y-61887970D01*
X174649551Y-61978745D01*
X174373765Y-62126155D01*
X174132037Y-62324537D01*
X173990000Y-62497609D01*
X173847963Y-62324537D01*
X173606234Y-62126155D01*
X173330448Y-61978745D01*
X173031203Y-61887970D01*
X172720000Y-61857319D01*
X172408796Y-61887970D01*
X172109551Y-61978745D01*
X171833765Y-62126155D01*
X171707905Y-62229446D01*
X171663037Y-62145506D01*
X171583685Y-62048815D01*
X171486994Y-61969463D01*
X171376680Y-61910498D01*
X171256982Y-61874188D01*
X171132500Y-61861928D01*
X169227500Y-61861928D01*
X169103018Y-61874188D01*
X168983320Y-61910498D01*
X168873006Y-61969463D01*
X168776315Y-62048815D01*
X168696963Y-62145506D01*
X168637998Y-62255820D01*
X168601688Y-62375518D01*
X168589428Y-62500000D01*
X161291963Y-62500000D01*
X161147963Y-62324537D01*
X160906234Y-62126155D01*
X160630448Y-61978745D01*
X160331203Y-61887970D01*
X160020000Y-61857319D01*
X159708796Y-61887970D01*
X159409551Y-61978745D01*
X159133765Y-62126155D01*
X158892037Y-62324537D01*
X158750000Y-62497609D01*
X158607963Y-62324537D01*
X158366234Y-62126155D01*
X158090448Y-61978745D01*
X157791203Y-61887970D01*
X157480000Y-61857319D01*
X157168796Y-61887970D01*
X156869551Y-61978745D01*
X156593765Y-62126155D01*
X156467905Y-62229446D01*
X156423037Y-62145506D01*
X156343685Y-62048815D01*
X156246994Y-61969463D01*
X156136680Y-61910498D01*
X156016982Y-61874188D01*
X155892500Y-61861928D01*
X153987500Y-61861928D01*
X153863018Y-61874188D01*
X153743320Y-61910498D01*
X153633006Y-61969463D01*
X153536315Y-62048815D01*
X153456963Y-62145506D01*
X153397998Y-62255820D01*
X153361688Y-62375518D01*
X153349428Y-62500000D01*
X146051963Y-62500000D01*
X145907963Y-62324537D01*
X145666234Y-62126155D01*
X145390448Y-61978745D01*
X145091203Y-61887970D01*
X144780000Y-61857319D01*
X144468796Y-61887970D01*
X144169551Y-61978745D01*
X143893765Y-62126155D01*
X143652037Y-62324537D01*
X143510000Y-62497609D01*
X143367963Y-62324537D01*
X143126234Y-62126155D01*
X142850448Y-61978745D01*
X142551203Y-61887970D01*
X142240000Y-61857319D01*
X141928796Y-61887970D01*
X141629551Y-61978745D01*
X141353765Y-62126155D01*
X141227905Y-62229446D01*
X141183037Y-62145506D01*
X141103685Y-62048815D01*
X141006994Y-61969463D01*
X140896680Y-61910498D01*
X140776982Y-61874188D01*
X140652500Y-61861928D01*
X138747500Y-61861928D01*
X138623018Y-61874188D01*
X138503320Y-61910498D01*
X138393006Y-61969463D01*
X138296315Y-62048815D01*
X138216963Y-62145506D01*
X138157998Y-62255820D01*
X138121688Y-62375518D01*
X138109428Y-62500000D01*
X130801566Y-62500000D01*
X130649437Y-62318685D01*
X130406923Y-62124031D01*
X130131094Y-61980429D01*
X129912980Y-61909437D01*
X129667000Y-62029406D01*
X129413000Y-62029406D01*
X129167020Y-61909437D01*
X128948906Y-61980429D01*
X128673077Y-62124031D01*
X128430563Y-62318685D01*
X128275163Y-62503899D01*
X128127963Y-62324537D01*
X127886234Y-62126155D01*
X127610448Y-61978745D01*
X127311203Y-61887970D01*
X127000000Y-61857319D01*
X126688796Y-61887970D01*
X126389551Y-61978745D01*
X126113765Y-62126155D01*
X125987905Y-62229446D01*
X125943037Y-62145506D01*
X125863685Y-62048815D01*
X125766994Y-61969463D01*
X125656680Y-61910498D01*
X125536982Y-61874188D01*
X125412500Y-61861928D01*
X123507500Y-61861928D01*
X123383018Y-61874188D01*
X123263320Y-61910498D01*
X123153006Y-61969463D01*
X123056315Y-62048815D01*
X122976963Y-62145506D01*
X122917998Y-62255820D01*
X122881688Y-62375518D01*
X122869428Y-62500000D01*
X115561566Y-62500000D01*
X115409437Y-62318685D01*
X115166923Y-62124031D01*
X114891094Y-61980429D01*
X114672980Y-61909437D01*
X114427000Y-62029406D01*
X114173000Y-62029406D01*
X113927020Y-61909437D01*
X113708906Y-61980429D01*
X113433077Y-62124031D01*
X113190563Y-62318685D01*
X113035163Y-62503899D01*
X112887963Y-62324537D01*
X112646234Y-62126155D01*
X112370448Y-61978745D01*
X112071203Y-61887970D01*
X111760000Y-61857319D01*
X111448796Y-61887970D01*
X111149551Y-61978745D01*
X110873765Y-62126155D01*
X110747905Y-62229446D01*
X110703037Y-62145506D01*
X110623685Y-62048815D01*
X110526994Y-61969463D01*
X110416680Y-61910498D01*
X110296982Y-61874188D01*
X110172500Y-61861928D01*
X108267500Y-61861928D01*
X108143018Y-61874188D01*
X108023320Y-61910498D01*
X107913006Y-61969463D01*
X107816315Y-62048815D01*
X107736963Y-62145506D01*
X107677998Y-62255820D01*
X107641688Y-62375518D01*
X107629428Y-62500000D01*
X100321566Y-62500000D01*
X100169437Y-62318685D01*
X99926923Y-62124031D01*
X99651094Y-61980429D01*
X99432980Y-61909437D01*
X99187000Y-62029406D01*
X98933000Y-62029406D01*
X98687020Y-61909437D01*
X98468906Y-61980429D01*
X98193077Y-62124031D01*
X97950563Y-62318685D01*
X97795163Y-62503899D01*
X97647963Y-62324537D01*
X97406234Y-62126155D01*
X97130448Y-61978745D01*
X96831203Y-61887970D01*
X96520000Y-61857319D01*
X96208796Y-61887970D01*
X95909551Y-61978745D01*
X95633765Y-62126155D01*
X95507905Y-62229446D01*
X95463037Y-62145506D01*
X95383685Y-62048815D01*
X95286994Y-61969463D01*
X95176680Y-61910498D01*
X95056982Y-61874188D01*
X94932500Y-61861928D01*
X93027500Y-61861928D01*
X92903018Y-61874188D01*
X92783320Y-61910498D01*
X92673006Y-61969463D01*
X92576315Y-62048815D01*
X92496963Y-62145506D01*
X92437998Y-62255820D01*
X92401688Y-62375518D01*
X92389428Y-62500000D01*
X87757000Y-62500000D01*
X87757000Y-53119872D01*
X89205000Y-53119872D01*
X89205000Y-53560128D01*
X89290890Y-53991925D01*
X89459369Y-54398669D01*
X89703962Y-54764729D01*
X90015271Y-55076038D01*
X90381331Y-55320631D01*
X90788075Y-55489110D01*
X91219872Y-55575000D01*
X91660128Y-55575000D01*
X92091925Y-55489110D01*
X92498669Y-55320631D01*
X92864729Y-55076038D01*
X93176038Y-54764729D01*
X93420631Y-54398669D01*
X93589110Y-53991925D01*
X93675000Y-53560128D01*
X93675000Y-53119872D01*
X93589110Y-52688075D01*
X93420631Y-52281331D01*
X93176038Y-51915271D01*
X92864729Y-51603962D01*
X92498669Y-51359369D01*
X92162203Y-51220000D01*
X107731928Y-51220000D01*
X107731928Y-52920000D01*
X107744188Y-53044482D01*
X107780498Y-53164180D01*
X107839463Y-53274494D01*
X107918815Y-53371185D01*
X108015506Y-53450537D01*
X108125820Y-53509502D01*
X108245518Y-53545812D01*
X108370000Y-53558072D01*
X110070000Y-53558072D01*
X110194482Y-53545812D01*
X110314180Y-53509502D01*
X110424494Y-53450537D01*
X110521185Y-53371185D01*
X110600537Y-53274494D01*
X110659502Y-53164180D01*
X110681513Y-53091620D01*
X110813368Y-53223475D01*
X111056589Y-53385990D01*
X111326842Y-53497932D01*
X111613740Y-53555000D01*
X111906260Y-53555000D01*
X112193158Y-53497932D01*
X112463411Y-53385990D01*
X112706632Y-53223475D01*
X112913475Y-53016632D01*
X113030000Y-52842240D01*
X113146525Y-53016632D01*
X113353368Y-53223475D01*
X113596589Y-53385990D01*
X113866842Y-53497932D01*
X114153740Y-53555000D01*
X114446260Y-53555000D01*
X114733158Y-53497932D01*
X115003411Y-53385990D01*
X115246632Y-53223475D01*
X115453475Y-53016632D01*
X115615990Y-52773411D01*
X115727932Y-52503158D01*
X115785000Y-52216260D01*
X115785000Y-51923740D01*
X115727932Y-51636842D01*
X115615990Y-51366589D01*
X115518043Y-51220000D01*
X153451928Y-51220000D01*
X153451928Y-52920000D01*
X153464188Y-53044482D01*
X153500498Y-53164180D01*
X153559463Y-53274494D01*
X153638815Y-53371185D01*
X153735506Y-53450537D01*
X153845820Y-53509502D01*
X153965518Y-53545812D01*
X154090000Y-53558072D01*
X155790000Y-53558072D01*
X155914482Y-53545812D01*
X156034180Y-53509502D01*
X156144494Y-53450537D01*
X156241185Y-53371185D01*
X156320537Y-53274494D01*
X156379502Y-53164180D01*
X156401513Y-53091620D01*
X156533368Y-53223475D01*
X156776589Y-53385990D01*
X157046842Y-53497932D01*
X157333740Y-53555000D01*
X157626260Y-53555000D01*
X157913158Y-53497932D01*
X158183411Y-53385990D01*
X158426632Y-53223475D01*
X158633475Y-53016632D01*
X158750000Y-52842240D01*
X158866525Y-53016632D01*
X159073368Y-53223475D01*
X159316589Y-53385990D01*
X159586842Y-53497932D01*
X159873740Y-53555000D01*
X160166260Y-53555000D01*
X160453158Y-53497932D01*
X160723411Y-53385990D01*
X160966632Y-53223475D01*
X161070235Y-53119872D01*
X176835000Y-53119872D01*
X176835000Y-53560128D01*
X176920890Y-53991925D01*
X177089369Y-54398669D01*
X177333962Y-54764729D01*
X177645271Y-55076038D01*
X178011331Y-55320631D01*
X178418075Y-55489110D01*
X178849872Y-55575000D01*
X179290128Y-55575000D01*
X179721925Y-55489110D01*
X180128669Y-55320631D01*
X180494729Y-55076038D01*
X180806038Y-54764729D01*
X181050631Y-54398669D01*
X181219110Y-53991925D01*
X181305000Y-53560128D01*
X181305000Y-53119872D01*
X181219110Y-52688075D01*
X181050631Y-52281331D01*
X180806038Y-51915271D01*
X180494729Y-51603962D01*
X180128669Y-51359369D01*
X179721925Y-51190890D01*
X179290128Y-51105000D01*
X178849872Y-51105000D01*
X178418075Y-51190890D01*
X178011331Y-51359369D01*
X177645271Y-51603962D01*
X177333962Y-51915271D01*
X177089369Y-52281331D01*
X176920890Y-52688075D01*
X176835000Y-53119872D01*
X161070235Y-53119872D01*
X161173475Y-53016632D01*
X161335990Y-52773411D01*
X161447932Y-52503158D01*
X161505000Y-52216260D01*
X161505000Y-51923740D01*
X161447932Y-51636842D01*
X161335990Y-51366589D01*
X161173475Y-51123368D01*
X160966632Y-50916525D01*
X160723411Y-50754010D01*
X160453158Y-50642068D01*
X160166260Y-50585000D01*
X159873740Y-50585000D01*
X159586842Y-50642068D01*
X159316589Y-50754010D01*
X159073368Y-50916525D01*
X158866525Y-51123368D01*
X158750000Y-51297760D01*
X158633475Y-51123368D01*
X158426632Y-50916525D01*
X158183411Y-50754010D01*
X157913158Y-50642068D01*
X157626260Y-50585000D01*
X157333740Y-50585000D01*
X157046842Y-50642068D01*
X156776589Y-50754010D01*
X156533368Y-50916525D01*
X156401513Y-51048380D01*
X156379502Y-50975820D01*
X156320537Y-50865506D01*
X156241185Y-50768815D01*
X156144494Y-50689463D01*
X156034180Y-50630498D01*
X155914482Y-50594188D01*
X155790000Y-50581928D01*
X154090000Y-50581928D01*
X153965518Y-50594188D01*
X153845820Y-50630498D01*
X153735506Y-50689463D01*
X153638815Y-50768815D01*
X153559463Y-50865506D01*
X153500498Y-50975820D01*
X153464188Y-51095518D01*
X153451928Y-51220000D01*
X115518043Y-51220000D01*
X115453475Y-51123368D01*
X115246632Y-50916525D01*
X115003411Y-50754010D01*
X114733158Y-50642068D01*
X114446260Y-50585000D01*
X114153740Y-50585000D01*
X113866842Y-50642068D01*
X113596589Y-50754010D01*
X113353368Y-50916525D01*
X113146525Y-51123368D01*
X113030000Y-51297760D01*
X112913475Y-51123368D01*
X112706632Y-50916525D01*
X112463411Y-50754010D01*
X112193158Y-50642068D01*
X111906260Y-50585000D01*
X111613740Y-50585000D01*
X111326842Y-50642068D01*
X111056589Y-50754010D01*
X110813368Y-50916525D01*
X110681513Y-51048380D01*
X110659502Y-50975820D01*
X110600537Y-50865506D01*
X110521185Y-50768815D01*
X110424494Y-50689463D01*
X110314180Y-50630498D01*
X110194482Y-50594188D01*
X110070000Y-50581928D01*
X108370000Y-50581928D01*
X108245518Y-50594188D01*
X108125820Y-50630498D01*
X108015506Y-50689463D01*
X107918815Y-50768815D01*
X107839463Y-50865506D01*
X107780498Y-50975820D01*
X107744188Y-51095518D01*
X107731928Y-51220000D01*
X92162203Y-51220000D01*
X92091925Y-51190890D01*
X91660128Y-51105000D01*
X91219872Y-51105000D01*
X90788075Y-51190890D01*
X90381331Y-51359369D01*
X90015271Y-51603962D01*
X89703962Y-51915271D01*
X89459369Y-52281331D01*
X89290890Y-52688075D01*
X89205000Y-53119872D01*
X87757000Y-53119872D01*
X87757000Y-49657000D01*
X182753000Y-49657000D01*
X182753000Y-106553000D01*
%TA.AperFunction,Conductor*%
D23*
G36*
X182753000Y-106553000D02*
G01*
X87757000Y-106553000D01*
X87757000Y-102649872D01*
X89205000Y-102649872D01*
X89205000Y-103090128D01*
X89290890Y-103521925D01*
X89459369Y-103928669D01*
X89703962Y-104294729D01*
X90015271Y-104606038D01*
X90381331Y-104850631D01*
X90788075Y-105019110D01*
X91219872Y-105105000D01*
X91660128Y-105105000D01*
X92091925Y-105019110D01*
X92498669Y-104850631D01*
X92864729Y-104606038D01*
X93176038Y-104294729D01*
X93420631Y-103928669D01*
X93589110Y-103521925D01*
X93675000Y-103090128D01*
X93675000Y-102649872D01*
X176835000Y-102649872D01*
X176835000Y-103090128D01*
X176920890Y-103521925D01*
X177089369Y-103928669D01*
X177333962Y-104294729D01*
X177645271Y-104606038D01*
X178011331Y-104850631D01*
X178418075Y-105019110D01*
X178849872Y-105105000D01*
X179290128Y-105105000D01*
X179721925Y-105019110D01*
X180128669Y-104850631D01*
X180494729Y-104606038D01*
X180806038Y-104294729D01*
X181050631Y-103928669D01*
X181219110Y-103521925D01*
X181305000Y-103090128D01*
X181305000Y-102649872D01*
X181219110Y-102218075D01*
X181050631Y-101811331D01*
X180806038Y-101445271D01*
X180494729Y-101133962D01*
X180128669Y-100889369D01*
X179721925Y-100720890D01*
X179290128Y-100635000D01*
X178849872Y-100635000D01*
X178418075Y-100720890D01*
X178011331Y-100889369D01*
X177645271Y-101133962D01*
X177333962Y-101445271D01*
X177089369Y-101811331D01*
X176920890Y-102218075D01*
X176835000Y-102649872D01*
X93675000Y-102649872D01*
X93589110Y-102218075D01*
X93420631Y-101811331D01*
X93176038Y-101445271D01*
X92864729Y-101133962D01*
X92498669Y-100889369D01*
X92091925Y-100720890D01*
X91660128Y-100635000D01*
X91219872Y-100635000D01*
X90788075Y-100720890D01*
X90381331Y-100889369D01*
X90015271Y-101133962D01*
X89703962Y-101445271D01*
X89459369Y-101811331D01*
X89290890Y-102218075D01*
X89205000Y-102649872D01*
X87757000Y-102649872D01*
X87757000Y-92578514D01*
X110425000Y-92578514D01*
X110425000Y-92841486D01*
X110476304Y-93099405D01*
X110576939Y-93342359D01*
X110723038Y-93561013D01*
X110908987Y-93746962D01*
X111127641Y-93893061D01*
X111370595Y-93993696D01*
X111628514Y-94045000D01*
X111891486Y-94045000D01*
X112149405Y-93993696D01*
X112392359Y-93893061D01*
X112611013Y-93746962D01*
X112796962Y-93561013D01*
X112943061Y-93342359D01*
X113043696Y-93099405D01*
X113095000Y-92841486D01*
X113095000Y-92578514D01*
X113043696Y-92320595D01*
X112943061Y-92077641D01*
X112796962Y-91858987D01*
X112611013Y-91673038D01*
X112392359Y-91526939D01*
X112149405Y-91426304D01*
X111891486Y-91375000D01*
X111628514Y-91375000D01*
X111370595Y-91426304D01*
X111127641Y-91526939D01*
X110908987Y-91673038D01*
X110723038Y-91858987D01*
X110576939Y-92077641D01*
X110476304Y-92320595D01*
X110425000Y-92578514D01*
X87757000Y-92578514D01*
X87757000Y-90038514D01*
X112965000Y-90038514D01*
X112965000Y-90301486D01*
X113016304Y-90559405D01*
X113116939Y-90802359D01*
X113263038Y-91021013D01*
X113448987Y-91206962D01*
X113667641Y-91353061D01*
X113910595Y-91453696D01*
X114168514Y-91505000D01*
X114431486Y-91505000D01*
X114689405Y-91453696D01*
X114932359Y-91353061D01*
X115151013Y-91206962D01*
X115336962Y-91021013D01*
X115483061Y-90802359D01*
X115583696Y-90559405D01*
X115635000Y-90301486D01*
X115635000Y-90038514D01*
X115583696Y-89780595D01*
X115483061Y-89537641D01*
X115336962Y-89318987D01*
X115151013Y-89133038D01*
X114932359Y-88986939D01*
X114689405Y-88886304D01*
X114431486Y-88835000D01*
X114168514Y-88835000D01*
X113910595Y-88886304D01*
X113667641Y-88986939D01*
X113448987Y-89133038D01*
X113263038Y-89318987D01*
X113116939Y-89537641D01*
X113016304Y-89780595D01*
X112965000Y-90038514D01*
X87757000Y-90038514D01*
X87757000Y-87498514D01*
X115505000Y-87498514D01*
X115505000Y-87761486D01*
X115556304Y-88019405D01*
X115656939Y-88262359D01*
X115803038Y-88481013D01*
X115988987Y-88666962D01*
X116207641Y-88813061D01*
X116450595Y-88913696D01*
X116708514Y-88965000D01*
X116971486Y-88965000D01*
X117229405Y-88913696D01*
X117472359Y-88813061D01*
X117691013Y-88666962D01*
X117876962Y-88481013D01*
X118023061Y-88262359D01*
X118123696Y-88019405D01*
X118175000Y-87761486D01*
X118175000Y-87498514D01*
X118123696Y-87240595D01*
X118023061Y-86997641D01*
X117876962Y-86778987D01*
X117691013Y-86593038D01*
X117472359Y-86446939D01*
X117229405Y-86346304D01*
X116971486Y-86295000D01*
X116708514Y-86295000D01*
X116450595Y-86346304D01*
X116207641Y-86446939D01*
X115988987Y-86593038D01*
X115803038Y-86778987D01*
X115656939Y-86997641D01*
X115556304Y-87240595D01*
X115505000Y-87498514D01*
X87757000Y-87498514D01*
X87757000Y-83471269D01*
X103398336Y-83471269D01*
X103457797Y-83705037D01*
X103696242Y-83815934D01*
X103951740Y-83878183D01*
X104214473Y-83889390D01*
X104474344Y-83849125D01*
X104721366Y-83758935D01*
X104822203Y-83705037D01*
X104881664Y-83471269D01*
X104140000Y-82729605D01*
X103398336Y-83471269D01*
X87757000Y-83471269D01*
X87757000Y-82624473D01*
X102800610Y-82624473D01*
X102840875Y-82884344D01*
X102931065Y-83131366D01*
X102984963Y-83232203D01*
X103218731Y-83291664D01*
X103960395Y-82550000D01*
X104319605Y-82550000D01*
X105061269Y-83291664D01*
X105295037Y-83232203D01*
X105405934Y-82993758D01*
X105468183Y-82738260D01*
X105479390Y-82475527D01*
X105470557Y-82418514D01*
X110425000Y-82418514D01*
X110425000Y-82681486D01*
X110476304Y-82939405D01*
X110576939Y-83182359D01*
X110723038Y-83401013D01*
X110908987Y-83586962D01*
X111127641Y-83733061D01*
X111337530Y-83820000D01*
X111127641Y-83906939D01*
X110908987Y-84053038D01*
X110723038Y-84238987D01*
X110576939Y-84457641D01*
X110476304Y-84700595D01*
X110425000Y-84958514D01*
X110425000Y-85221486D01*
X110476304Y-85479405D01*
X110576939Y-85722359D01*
X110723038Y-85941013D01*
X110908987Y-86126962D01*
X111127641Y-86273061D01*
X111370595Y-86373696D01*
X111628514Y-86425000D01*
X111891486Y-86425000D01*
X112149405Y-86373696D01*
X112392359Y-86273061D01*
X112611013Y-86126962D01*
X112796962Y-85941013D01*
X112943061Y-85722359D01*
X113043696Y-85479405D01*
X113095000Y-85221486D01*
X113095000Y-84958514D01*
X113043696Y-84700595D01*
X112943061Y-84457641D01*
X112796962Y-84238987D01*
X112611013Y-84053038D01*
X112392359Y-83906939D01*
X112182470Y-83820000D01*
X112392359Y-83733061D01*
X112611013Y-83586962D01*
X112796962Y-83401013D01*
X112943061Y-83182359D01*
X113030000Y-82972470D01*
X113116939Y-83182359D01*
X113263038Y-83401013D01*
X113448987Y-83586962D01*
X113667641Y-83733061D01*
X113910595Y-83833696D01*
X114168514Y-83885000D01*
X114431486Y-83885000D01*
X114689405Y-83833696D01*
X114932359Y-83733061D01*
X115151013Y-83586962D01*
X115336962Y-83401013D01*
X115483061Y-83182359D01*
X115583696Y-82939405D01*
X115635000Y-82681486D01*
X115635000Y-82550000D01*
X120238057Y-82550000D01*
X120265764Y-82831309D01*
X120347818Y-83101808D01*
X120481068Y-83351101D01*
X120660392Y-83569608D01*
X120878899Y-83748932D01*
X121011858Y-83820000D01*
X120878899Y-83891068D01*
X120660392Y-84070392D01*
X120481068Y-84288899D01*
X120347818Y-84538192D01*
X120265764Y-84808691D01*
X120238057Y-85090000D01*
X120265764Y-85371309D01*
X120347818Y-85641808D01*
X120481068Y-85891101D01*
X120660392Y-86109608D01*
X120878899Y-86288932D01*
X121011858Y-86360000D01*
X120878899Y-86431068D01*
X120660392Y-86610392D01*
X120481068Y-86828899D01*
X120347818Y-87078192D01*
X120265764Y-87348691D01*
X120238057Y-87630000D01*
X120265764Y-87911309D01*
X120347818Y-88181808D01*
X120481068Y-88431101D01*
X120660392Y-88649608D01*
X120878899Y-88828932D01*
X121011858Y-88900000D01*
X120878899Y-88971068D01*
X120660392Y-89150392D01*
X120481068Y-89368899D01*
X120347818Y-89618192D01*
X120265764Y-89888691D01*
X120238057Y-90170000D01*
X120265764Y-90451309D01*
X120347818Y-90721808D01*
X120481068Y-90971101D01*
X120660392Y-91189608D01*
X120878899Y-91368932D01*
X121011858Y-91440000D01*
X120878899Y-91511068D01*
X120660392Y-91690392D01*
X120481068Y-91908899D01*
X120347818Y-92158192D01*
X120265764Y-92428691D01*
X120238057Y-92710000D01*
X120265764Y-92991309D01*
X120347818Y-93261808D01*
X120481068Y-93511101D01*
X120660392Y-93729608D01*
X120878899Y-93908932D01*
X121011858Y-93980000D01*
X120878899Y-94051068D01*
X120660392Y-94230392D01*
X120481068Y-94448899D01*
X120347818Y-94698192D01*
X120265764Y-94968691D01*
X120238057Y-95250000D01*
X120265764Y-95531309D01*
X120347818Y-95801808D01*
X120481068Y-96051101D01*
X120660392Y-96269608D01*
X120878899Y-96448932D01*
X121011858Y-96520000D01*
X120878899Y-96591068D01*
X120660392Y-96770392D01*
X120481068Y-96988899D01*
X120347818Y-97238192D01*
X120265764Y-97508691D01*
X120238057Y-97790000D01*
X120265764Y-98071309D01*
X120347818Y-98341808D01*
X120481068Y-98591101D01*
X120660392Y-98809608D01*
X120878899Y-98988932D01*
X121128192Y-99122182D01*
X121398691Y-99204236D01*
X121609508Y-99225000D01*
X122150492Y-99225000D01*
X122361309Y-99204236D01*
X122631808Y-99122182D01*
X122881101Y-98988932D01*
X123099608Y-98809608D01*
X123278932Y-98591101D01*
X123412182Y-98341808D01*
X123494236Y-98071309D01*
X123521943Y-97790000D01*
X143098057Y-97790000D01*
X143125764Y-98071309D01*
X143207818Y-98341808D01*
X143341068Y-98591101D01*
X143520392Y-98809608D01*
X143738899Y-98988932D01*
X143988192Y-99122182D01*
X144258691Y-99204236D01*
X144469508Y-99225000D01*
X145010492Y-99225000D01*
X145221309Y-99204236D01*
X145491808Y-99122182D01*
X145741101Y-98988932D01*
X145959608Y-98809608D01*
X146138932Y-98591101D01*
X146272182Y-98341808D01*
X146354236Y-98071309D01*
X146381943Y-97790000D01*
X146354236Y-97508691D01*
X146272182Y-97238192D01*
X146138932Y-96988899D01*
X145959608Y-96770392D01*
X145741101Y-96591068D01*
X145611655Y-96521878D01*
X145629227Y-96514430D01*
X145862662Y-96355673D01*
X146060639Y-96154425D01*
X146215551Y-95918421D01*
X146321444Y-95656730D01*
X146331904Y-95599039D01*
X146209915Y-95377000D01*
X144867000Y-95377000D01*
X144867000Y-95397000D01*
X144613000Y-95397000D01*
X144613000Y-95377000D01*
X143270085Y-95377000D01*
X143148096Y-95599039D01*
X143158556Y-95656730D01*
X143264449Y-95918421D01*
X143419361Y-96154425D01*
X143617338Y-96355673D01*
X143850773Y-96514430D01*
X143868345Y-96521878D01*
X143738899Y-96591068D01*
X143520392Y-96770392D01*
X143341068Y-96988899D01*
X143207818Y-97238192D01*
X143125764Y-97508691D01*
X143098057Y-97790000D01*
X123521943Y-97790000D01*
X123494236Y-97508691D01*
X123412182Y-97238192D01*
X123278932Y-96988899D01*
X123099608Y-96770392D01*
X122881101Y-96591068D01*
X122748142Y-96520000D01*
X122881101Y-96448932D01*
X123099608Y-96269608D01*
X123278932Y-96051101D01*
X123412182Y-95801808D01*
X123494236Y-95531309D01*
X123521943Y-95250000D01*
X123509584Y-95124514D01*
X153352500Y-95124514D01*
X153352500Y-95375485D01*
X153375470Y-95608703D01*
X153466245Y-95907948D01*
X153613655Y-96183734D01*
X153812037Y-96425463D01*
X154053765Y-96623845D01*
X154329551Y-96771255D01*
X154628796Y-96862030D01*
X154940000Y-96892681D01*
X155251203Y-96862030D01*
X155550448Y-96771255D01*
X155826234Y-96623845D01*
X156067963Y-96425463D01*
X156210000Y-96252391D01*
X156352037Y-96425463D01*
X156593765Y-96623845D01*
X156869551Y-96771255D01*
X157168796Y-96862030D01*
X157480000Y-96892681D01*
X157791203Y-96862030D01*
X158090448Y-96771255D01*
X158366234Y-96623845D01*
X158492095Y-96520553D01*
X158536963Y-96604494D01*
X158616315Y-96701185D01*
X158713006Y-96780537D01*
X158823320Y-96839502D01*
X158943018Y-96875812D01*
X159067500Y-96888072D01*
X160972500Y-96888072D01*
X161096982Y-96875812D01*
X161216680Y-96839502D01*
X161326994Y-96780537D01*
X161423685Y-96701185D01*
X161503037Y-96604494D01*
X161562002Y-96494180D01*
X161598312Y-96374482D01*
X161610572Y-96250000D01*
X161610572Y-95124514D01*
X168592500Y-95124514D01*
X168592500Y-95375485D01*
X168615470Y-95608703D01*
X168706245Y-95907948D01*
X168853655Y-96183734D01*
X169052037Y-96425463D01*
X169293765Y-96623845D01*
X169569551Y-96771255D01*
X169868796Y-96862030D01*
X170180000Y-96892681D01*
X170491203Y-96862030D01*
X170790448Y-96771255D01*
X171066234Y-96623845D01*
X171307963Y-96425463D01*
X171450000Y-96252391D01*
X171592037Y-96425463D01*
X171833765Y-96623845D01*
X172109551Y-96771255D01*
X172408796Y-96862030D01*
X172720000Y-96892681D01*
X173031203Y-96862030D01*
X173330448Y-96771255D01*
X173606234Y-96623845D01*
X173732095Y-96520553D01*
X173776963Y-96604494D01*
X173856315Y-96701185D01*
X173953006Y-96780537D01*
X174063320Y-96839502D01*
X174183018Y-96875812D01*
X174307500Y-96888072D01*
X176212500Y-96888072D01*
X176336982Y-96875812D01*
X176456680Y-96839502D01*
X176566994Y-96780537D01*
X176663685Y-96701185D01*
X176743037Y-96604494D01*
X176802002Y-96494180D01*
X176838312Y-96374482D01*
X176850572Y-96250000D01*
X176850572Y-94250000D01*
X176838312Y-94125518D01*
X176802002Y-94005820D01*
X176743037Y-93895506D01*
X176663685Y-93798815D01*
X176566994Y-93719463D01*
X176456680Y-93660498D01*
X176336982Y-93624188D01*
X176212500Y-93611928D01*
X174307500Y-93611928D01*
X174183018Y-93624188D01*
X174063320Y-93660498D01*
X173953006Y-93719463D01*
X173856315Y-93798815D01*
X173776963Y-93895506D01*
X173732095Y-93979446D01*
X173606235Y-93876155D01*
X173330449Y-93728745D01*
X173031204Y-93637970D01*
X172720000Y-93607319D01*
X172408797Y-93637970D01*
X172109552Y-93728745D01*
X171833766Y-93876155D01*
X171592037Y-94074537D01*
X171450000Y-94247609D01*
X171307963Y-94074537D01*
X171066235Y-93876155D01*
X170790449Y-93728745D01*
X170491204Y-93637970D01*
X170180000Y-93607319D01*
X169868797Y-93637970D01*
X169569552Y-93728745D01*
X169293766Y-93876155D01*
X169052037Y-94074537D01*
X168853655Y-94316265D01*
X168706245Y-94592051D01*
X168615470Y-94891296D01*
X168592500Y-95124514D01*
X161610572Y-95124514D01*
X161610572Y-94250000D01*
X161598312Y-94125518D01*
X161562002Y-94005820D01*
X161503037Y-93895506D01*
X161423685Y-93798815D01*
X161326994Y-93719463D01*
X161216680Y-93660498D01*
X161096982Y-93624188D01*
X160972500Y-93611928D01*
X159067500Y-93611928D01*
X158943018Y-93624188D01*
X158823320Y-93660498D01*
X158713006Y-93719463D01*
X158616315Y-93798815D01*
X158536963Y-93895506D01*
X158492095Y-93979446D01*
X158366235Y-93876155D01*
X158090449Y-93728745D01*
X157791204Y-93637970D01*
X157480000Y-93607319D01*
X157168797Y-93637970D01*
X156869552Y-93728745D01*
X156593766Y-93876155D01*
X156352037Y-94074537D01*
X156210000Y-94247609D01*
X156067963Y-94074537D01*
X155826235Y-93876155D01*
X155550449Y-93728745D01*
X155251204Y-93637970D01*
X154940000Y-93607319D01*
X154628797Y-93637970D01*
X154329552Y-93728745D01*
X154053766Y-93876155D01*
X153812037Y-94074537D01*
X153613655Y-94316265D01*
X153466245Y-94592051D01*
X153375470Y-94891296D01*
X153352500Y-95124514D01*
X123509584Y-95124514D01*
X123494236Y-94968691D01*
X123412182Y-94698192D01*
X123278932Y-94448899D01*
X123099608Y-94230392D01*
X122881101Y-94051068D01*
X122748142Y-93980000D01*
X122881101Y-93908932D01*
X123099608Y-93729608D01*
X123278932Y-93511101D01*
X123412182Y-93261808D01*
X123494236Y-92991309D01*
X123521943Y-92710000D01*
X123494236Y-92428691D01*
X123412182Y-92158192D01*
X123278932Y-91908899D01*
X123099608Y-91690392D01*
X122881101Y-91511068D01*
X122748142Y-91440000D01*
X122881101Y-91368932D01*
X123099608Y-91189608D01*
X123278932Y-90971101D01*
X123412182Y-90721808D01*
X123494236Y-90451309D01*
X123521943Y-90170000D01*
X123494236Y-89888691D01*
X123412182Y-89618192D01*
X123278932Y-89368899D01*
X123099608Y-89150392D01*
X122881101Y-88971068D01*
X122748142Y-88900000D01*
X122881101Y-88828932D01*
X123099608Y-88649608D01*
X123278932Y-88431101D01*
X123412182Y-88181808D01*
X123494236Y-87911309D01*
X123521943Y-87630000D01*
X123494236Y-87348691D01*
X123412182Y-87078192D01*
X123278932Y-86828899D01*
X123099608Y-86610392D01*
X122881101Y-86431068D01*
X122748142Y-86360000D01*
X122881101Y-86288932D01*
X123099608Y-86109608D01*
X123278932Y-85891101D01*
X123412182Y-85641808D01*
X123494236Y-85371309D01*
X123521943Y-85090000D01*
X123494236Y-84808691D01*
X123412182Y-84538192D01*
X123278932Y-84288899D01*
X123099608Y-84070392D01*
X122881101Y-83891068D01*
X122748142Y-83820000D01*
X122881101Y-83748932D01*
X123099608Y-83569608D01*
X123278932Y-83351101D01*
X123412182Y-83101808D01*
X123494236Y-82831309D01*
X123521943Y-82550000D01*
X123494236Y-82268691D01*
X123412182Y-81998192D01*
X123278932Y-81748899D01*
X123146524Y-81587559D01*
X123234494Y-81540537D01*
X123331185Y-81461185D01*
X123410537Y-81364494D01*
X123469502Y-81254180D01*
X123505812Y-81134482D01*
X123518072Y-81010000D01*
X123518072Y-80010000D01*
X143098057Y-80010000D01*
X143125764Y-80291309D01*
X143207818Y-80561808D01*
X143341068Y-80811101D01*
X143520392Y-81029608D01*
X143738899Y-81208932D01*
X143871858Y-81280000D01*
X143738899Y-81351068D01*
X143520392Y-81530392D01*
X143341068Y-81748899D01*
X143207818Y-81998192D01*
X143125764Y-82268691D01*
X143098057Y-82550000D01*
X143125764Y-82831309D01*
X143207818Y-83101808D01*
X143341068Y-83351101D01*
X143520392Y-83569608D01*
X143738899Y-83748932D01*
X143871858Y-83820000D01*
X143738899Y-83891068D01*
X143520392Y-84070392D01*
X143341068Y-84288899D01*
X143207818Y-84538192D01*
X143125764Y-84808691D01*
X143098057Y-85090000D01*
X143125764Y-85371309D01*
X143207818Y-85641808D01*
X143341068Y-85891101D01*
X143520392Y-86109608D01*
X143738899Y-86288932D01*
X143871858Y-86360000D01*
X143738899Y-86431068D01*
X143520392Y-86610392D01*
X143341068Y-86828899D01*
X143207818Y-87078192D01*
X143125764Y-87348691D01*
X143098057Y-87630000D01*
X143125764Y-87911309D01*
X143207818Y-88181808D01*
X143341068Y-88431101D01*
X143520392Y-88649608D01*
X143738899Y-88828932D01*
X143871858Y-88900000D01*
X143738899Y-88971068D01*
X143520392Y-89150392D01*
X143341068Y-89368899D01*
X143207818Y-89618192D01*
X143125764Y-89888691D01*
X143098057Y-90170000D01*
X143125764Y-90451309D01*
X143207818Y-90721808D01*
X143341068Y-90971101D01*
X143520392Y-91189608D01*
X143738899Y-91368932D01*
X143871858Y-91440000D01*
X143738899Y-91511068D01*
X143520392Y-91690392D01*
X143341068Y-91908899D01*
X143207818Y-92158192D01*
X143125764Y-92428691D01*
X143098057Y-92710000D01*
X143125764Y-92991309D01*
X143207818Y-93261808D01*
X143341068Y-93511101D01*
X143520392Y-93729608D01*
X143738899Y-93908932D01*
X143868345Y-93978122D01*
X143850773Y-93985570D01*
X143617338Y-94144327D01*
X143419361Y-94345575D01*
X143264449Y-94581579D01*
X143158556Y-94843270D01*
X143148096Y-94900961D01*
X143270085Y-95123000D01*
X144613000Y-95123000D01*
X144613000Y-95103000D01*
X144867000Y-95103000D01*
X144867000Y-95123000D01*
X146209915Y-95123000D01*
X146331904Y-94900961D01*
X146321444Y-94843270D01*
X146215551Y-94581579D01*
X146060639Y-94345575D01*
X145862662Y-94144327D01*
X145629227Y-93985570D01*
X145611655Y-93978122D01*
X145741101Y-93908932D01*
X145959608Y-93729608D01*
X146138932Y-93511101D01*
X146272182Y-93261808D01*
X146354236Y-92991309D01*
X146381943Y-92710000D01*
X146354236Y-92428691D01*
X146272182Y-92158192D01*
X146138932Y-91908899D01*
X145959608Y-91690392D01*
X145741101Y-91511068D01*
X145608142Y-91440000D01*
X145741101Y-91368932D01*
X145959608Y-91189608D01*
X146138932Y-90971101D01*
X146272182Y-90721808D01*
X146354236Y-90451309D01*
X146381943Y-90170000D01*
X146354236Y-89888691D01*
X146272182Y-89618192D01*
X146138932Y-89368899D01*
X145959608Y-89150392D01*
X145741101Y-88971068D01*
X145608142Y-88900000D01*
X145741101Y-88828932D01*
X145959608Y-88649608D01*
X146138932Y-88431101D01*
X146272182Y-88181808D01*
X146354236Y-87911309D01*
X146381943Y-87630000D01*
X146354236Y-87348691D01*
X146272182Y-87078192D01*
X146138932Y-86828899D01*
X145959608Y-86610392D01*
X145741101Y-86431068D01*
X145608142Y-86360000D01*
X145741101Y-86288932D01*
X145959608Y-86109608D01*
X146138932Y-85891101D01*
X146272182Y-85641808D01*
X146354236Y-85371309D01*
X146381943Y-85090000D01*
X146354236Y-84808691D01*
X146272182Y-84538192D01*
X146138932Y-84288899D01*
X145959608Y-84070392D01*
X145741101Y-83891068D01*
X145608142Y-83820000D01*
X145741101Y-83748932D01*
X145959608Y-83569608D01*
X146138932Y-83351101D01*
X146272182Y-83101808D01*
X146354236Y-82831309D01*
X146381943Y-82550000D01*
X146354236Y-82268691D01*
X146272182Y-81998192D01*
X146138932Y-81748899D01*
X145959608Y-81530392D01*
X145741101Y-81351068D01*
X145608142Y-81280000D01*
X145741101Y-81208932D01*
X145959608Y-81029608D01*
X146138932Y-80811101D01*
X146272182Y-80561808D01*
X146354236Y-80291309D01*
X146381943Y-80010000D01*
X146354236Y-79728691D01*
X146272182Y-79458192D01*
X146138932Y-79208899D01*
X145959608Y-78990392D01*
X145741101Y-78811068D01*
X145491808Y-78677818D01*
X145221309Y-78595764D01*
X145010492Y-78575000D01*
X144469508Y-78575000D01*
X144258691Y-78595764D01*
X143988192Y-78677818D01*
X143738899Y-78811068D01*
X143520392Y-78990392D01*
X143341068Y-79208899D01*
X143207818Y-79458192D01*
X143125764Y-79728691D01*
X143098057Y-80010000D01*
X123518072Y-80010000D01*
X123518072Y-79010000D01*
X123505812Y-78885518D01*
X123469502Y-78765820D01*
X123410537Y-78655506D01*
X123331185Y-78558815D01*
X123234494Y-78479463D01*
X123124180Y-78420498D01*
X123004482Y-78384188D01*
X122880000Y-78371928D01*
X120880000Y-78371928D01*
X120755518Y-78384188D01*
X120635820Y-78420498D01*
X120525506Y-78479463D01*
X120428815Y-78558815D01*
X120349463Y-78655506D01*
X120290498Y-78765820D01*
X120254188Y-78885518D01*
X120241928Y-79010000D01*
X120241928Y-81010000D01*
X120254188Y-81134482D01*
X120290498Y-81254180D01*
X120349463Y-81364494D01*
X120428815Y-81461185D01*
X120525506Y-81540537D01*
X120613476Y-81587559D01*
X120481068Y-81748899D01*
X120347818Y-81998192D01*
X120265764Y-82268691D01*
X120238057Y-82550000D01*
X115635000Y-82550000D01*
X115635000Y-82418514D01*
X115583696Y-82160595D01*
X115483061Y-81917641D01*
X115336962Y-81698987D01*
X115151013Y-81513038D01*
X114932359Y-81366939D01*
X114722470Y-81280000D01*
X114932359Y-81193061D01*
X115151013Y-81046962D01*
X115336962Y-80861013D01*
X115483061Y-80642359D01*
X115570000Y-80432470D01*
X115656939Y-80642359D01*
X115803038Y-80861013D01*
X115988987Y-81046962D01*
X116207641Y-81193061D01*
X116450595Y-81293696D01*
X116708514Y-81345000D01*
X116971486Y-81345000D01*
X117229405Y-81293696D01*
X117472359Y-81193061D01*
X117691013Y-81046962D01*
X117876962Y-80861013D01*
X118023061Y-80642359D01*
X118123696Y-80399405D01*
X118175000Y-80141486D01*
X118175000Y-79878514D01*
X118123696Y-79620595D01*
X118023061Y-79377641D01*
X117876962Y-79158987D01*
X117691013Y-78973038D01*
X117472359Y-78826939D01*
X117262470Y-78740000D01*
X117472359Y-78653061D01*
X117691013Y-78506962D01*
X117876962Y-78321013D01*
X118023061Y-78102359D01*
X118123696Y-77859405D01*
X118175000Y-77601486D01*
X118175000Y-77338514D01*
X118123696Y-77080595D01*
X118023061Y-76837641D01*
X117876962Y-76618987D01*
X117691013Y-76433038D01*
X117472359Y-76286939D01*
X117229405Y-76186304D01*
X116971486Y-76135000D01*
X116708514Y-76135000D01*
X116450595Y-76186304D01*
X116207641Y-76286939D01*
X115988987Y-76433038D01*
X115803038Y-76618987D01*
X115656939Y-76837641D01*
X115556304Y-77080595D01*
X115505000Y-77338514D01*
X115505000Y-77601486D01*
X115556304Y-77859405D01*
X115656939Y-78102359D01*
X115803038Y-78321013D01*
X115988987Y-78506962D01*
X116207641Y-78653061D01*
X116417530Y-78740000D01*
X116207641Y-78826939D01*
X115988987Y-78973038D01*
X115803038Y-79158987D01*
X115656939Y-79377641D01*
X115570000Y-79587530D01*
X115483061Y-79377641D01*
X115336962Y-79158987D01*
X115151013Y-78973038D01*
X114932359Y-78826939D01*
X114689405Y-78726304D01*
X114431486Y-78675000D01*
X114168514Y-78675000D01*
X113910595Y-78726304D01*
X113667641Y-78826939D01*
X113448987Y-78973038D01*
X113263038Y-79158987D01*
X113116939Y-79377641D01*
X113016304Y-79620595D01*
X112965000Y-79878514D01*
X112965000Y-80141486D01*
X113016304Y-80399405D01*
X113116939Y-80642359D01*
X113263038Y-80861013D01*
X113448987Y-81046962D01*
X113667641Y-81193061D01*
X113877530Y-81280000D01*
X113667641Y-81366939D01*
X113448987Y-81513038D01*
X113263038Y-81698987D01*
X113116939Y-81917641D01*
X113030000Y-82127530D01*
X112943061Y-81917641D01*
X112796962Y-81698987D01*
X112611013Y-81513038D01*
X112392359Y-81366939D01*
X112149405Y-81266304D01*
X111891486Y-81215000D01*
X111628514Y-81215000D01*
X111370595Y-81266304D01*
X111127641Y-81366939D01*
X110908987Y-81513038D01*
X110723038Y-81698987D01*
X110576939Y-81917641D01*
X110476304Y-82160595D01*
X110425000Y-82418514D01*
X105470557Y-82418514D01*
X105439125Y-82215656D01*
X105348935Y-81968634D01*
X105295037Y-81867797D01*
X105061269Y-81808336D01*
X104319605Y-82550000D01*
X103960395Y-82550000D01*
X103218731Y-81808336D01*
X102984963Y-81867797D01*
X102874066Y-82106242D01*
X102811817Y-82361740D01*
X102800610Y-82624473D01*
X87757000Y-82624473D01*
X87757000Y-81628731D01*
X103398336Y-81628731D01*
X104140000Y-82370395D01*
X104881664Y-81628731D01*
X104822203Y-81394963D01*
X104583758Y-81284066D01*
X104328260Y-81221817D01*
X104065527Y-81210610D01*
X103805656Y-81250875D01*
X103558634Y-81341065D01*
X103457797Y-81394963D01*
X103398336Y-81628731D01*
X87757000Y-81628731D01*
X87757000Y-80931269D01*
X105938336Y-80931269D01*
X105997797Y-81165037D01*
X106236242Y-81275934D01*
X106491740Y-81338183D01*
X106754473Y-81349390D01*
X107014344Y-81309125D01*
X107261366Y-81218935D01*
X107362203Y-81165037D01*
X107421664Y-80931269D01*
X106680000Y-80189605D01*
X105938336Y-80931269D01*
X87757000Y-80931269D01*
X87757000Y-80084473D01*
X105340610Y-80084473D01*
X105380875Y-80344344D01*
X105471065Y-80591366D01*
X105524963Y-80692203D01*
X105758731Y-80751664D01*
X106500395Y-80010000D01*
X106859605Y-80010000D01*
X107601269Y-80751664D01*
X107835037Y-80692203D01*
X107945934Y-80453758D01*
X108008183Y-80198260D01*
X108019390Y-79935527D01*
X107979125Y-79675656D01*
X107888935Y-79428634D01*
X107835037Y-79327797D01*
X107601269Y-79268336D01*
X106859605Y-80010000D01*
X106500395Y-80010000D01*
X105758731Y-79268336D01*
X105524963Y-79327797D01*
X105414066Y-79566242D01*
X105351817Y-79821740D01*
X105340610Y-80084473D01*
X87757000Y-80084473D01*
X87757000Y-79088731D01*
X105938336Y-79088731D01*
X106680000Y-79830395D01*
X107421664Y-79088731D01*
X107362203Y-78854963D01*
X107123758Y-78744066D01*
X106868260Y-78681817D01*
X106605527Y-78670610D01*
X106345656Y-78710875D01*
X106098634Y-78801065D01*
X105997797Y-78854963D01*
X105938336Y-79088731D01*
X87757000Y-79088731D01*
X87757000Y-78391269D01*
X108478336Y-78391269D01*
X108537797Y-78625037D01*
X108776242Y-78735934D01*
X109031740Y-78798183D01*
X109294473Y-78809390D01*
X109554344Y-78769125D01*
X109801366Y-78678935D01*
X109902203Y-78625037D01*
X109961664Y-78391269D01*
X109220000Y-77649605D01*
X108478336Y-78391269D01*
X87757000Y-78391269D01*
X87757000Y-77544473D01*
X107880610Y-77544473D01*
X107920875Y-77804344D01*
X108011065Y-78051366D01*
X108064963Y-78152203D01*
X108298731Y-78211664D01*
X109040395Y-77470000D01*
X109399605Y-77470000D01*
X110141269Y-78211664D01*
X110375037Y-78152203D01*
X110485934Y-77913758D01*
X110548183Y-77658260D01*
X110559390Y-77395527D01*
X110519125Y-77135656D01*
X110428935Y-76888634D01*
X110375037Y-76787797D01*
X110141269Y-76728336D01*
X109399605Y-77470000D01*
X109040395Y-77470000D01*
X108298731Y-76728336D01*
X108064963Y-76787797D01*
X107954066Y-77026242D01*
X107891817Y-77281740D01*
X107880610Y-77544473D01*
X87757000Y-77544473D01*
X87757000Y-76548731D01*
X108478336Y-76548731D01*
X109220000Y-77290395D01*
X109961664Y-76548731D01*
X109902203Y-76314963D01*
X109663758Y-76204066D01*
X109408260Y-76141817D01*
X109145527Y-76130610D01*
X108885656Y-76170875D01*
X108638634Y-76261065D01*
X108537797Y-76314963D01*
X108478336Y-76548731D01*
X87757000Y-76548731D01*
X87757000Y-67178514D01*
X138365000Y-67178514D01*
X138365000Y-67441486D01*
X138416304Y-67699405D01*
X138516939Y-67942359D01*
X138663038Y-68161013D01*
X138848987Y-68346962D01*
X139067641Y-68493061D01*
X139277530Y-68580000D01*
X139067641Y-68666939D01*
X138848987Y-68813038D01*
X138663038Y-68998987D01*
X138516939Y-69217641D01*
X138416304Y-69460595D01*
X138365000Y-69718514D01*
X138365000Y-69981486D01*
X138416304Y-70239405D01*
X138516939Y-70482359D01*
X138663038Y-70701013D01*
X138848987Y-70886962D01*
X139067641Y-71033061D01*
X139310595Y-71133696D01*
X139568514Y-71185000D01*
X139831486Y-71185000D01*
X140089405Y-71133696D01*
X140332359Y-71033061D01*
X140551013Y-70886962D01*
X140736962Y-70701013D01*
X140883061Y-70482359D01*
X140983696Y-70239405D01*
X141035000Y-69981486D01*
X141035000Y-69718514D01*
X140983696Y-69460595D01*
X140883061Y-69217641D01*
X140736962Y-68998987D01*
X140551013Y-68813038D01*
X140332359Y-68666939D01*
X140122470Y-68580000D01*
X140332359Y-68493061D01*
X140551013Y-68346962D01*
X140736962Y-68161013D01*
X140883061Y-67942359D01*
X140983696Y-67699405D01*
X141035000Y-67441486D01*
X141035000Y-67178514D01*
X145985000Y-67178514D01*
X145985000Y-67441486D01*
X146036304Y-67699405D01*
X146136939Y-67942359D01*
X146283038Y-68161013D01*
X146468987Y-68346962D01*
X146687641Y-68493061D01*
X146897530Y-68580000D01*
X146687641Y-68666939D01*
X146468987Y-68813038D01*
X146283038Y-68998987D01*
X146136939Y-69217641D01*
X146036304Y-69460595D01*
X145985000Y-69718514D01*
X145985000Y-69981486D01*
X146036304Y-70239405D01*
X146136939Y-70482359D01*
X146283038Y-70701013D01*
X146468987Y-70886962D01*
X146687641Y-71033061D01*
X146930595Y-71133696D01*
X147188514Y-71185000D01*
X147451486Y-71185000D01*
X147709405Y-71133696D01*
X147952359Y-71033061D01*
X148090000Y-70941093D01*
X148090001Y-79319239D01*
X148084509Y-79375000D01*
X148106423Y-79597498D01*
X148171324Y-79811446D01*
X148207173Y-79878514D01*
X148276717Y-80008623D01*
X148418552Y-80181449D01*
X148461860Y-80216991D01*
X149063002Y-80818133D01*
X156153971Y-87909103D01*
X156177072Y-88025239D01*
X156279215Y-88271833D01*
X156427503Y-88493762D01*
X156616238Y-88682497D01*
X156838167Y-88830785D01*
X157084761Y-88932928D01*
X157346544Y-88985000D01*
X157613456Y-88985000D01*
X157875239Y-88932928D01*
X158121833Y-88830785D01*
X158343762Y-88682497D01*
X158532497Y-88493762D01*
X158680785Y-88271833D01*
X158750000Y-88104734D01*
X158819215Y-88271833D01*
X158967503Y-88493762D01*
X159156238Y-88682497D01*
X159378167Y-88830785D01*
X159624761Y-88932928D01*
X159886544Y-88985000D01*
X160153456Y-88985000D01*
X160415239Y-88932928D01*
X160661833Y-88830785D01*
X160883762Y-88682497D01*
X161000699Y-88565560D01*
X161804045Y-88565560D01*
X161865932Y-88801368D01*
X162107790Y-88914266D01*
X162367027Y-88977811D01*
X162633680Y-88989561D01*
X162897501Y-88949063D01*
X163148353Y-88857875D01*
X163254068Y-88801368D01*
X163315955Y-88565560D01*
X162560000Y-87809605D01*
X161804045Y-88565560D01*
X161000699Y-88565560D01*
X161072497Y-88493762D01*
X161220785Y-88271833D01*
X161290438Y-88103676D01*
X161332125Y-88218353D01*
X161388632Y-88324068D01*
X161624440Y-88385955D01*
X162380395Y-87630000D01*
X162739605Y-87630000D01*
X163495560Y-88385955D01*
X163731368Y-88324068D01*
X163844266Y-88082210D01*
X163907811Y-87822973D01*
X163919561Y-87556320D01*
X163879063Y-87292499D01*
X163787875Y-87041647D01*
X163731368Y-86935932D01*
X163495560Y-86874045D01*
X162739605Y-87630000D01*
X162380395Y-87630000D01*
X161624440Y-86874045D01*
X161388632Y-86935932D01*
X161288236Y-87151007D01*
X161220785Y-86988167D01*
X161072497Y-86766238D01*
X161000699Y-86694440D01*
X161804045Y-86694440D01*
X162560000Y-87450395D01*
X163315955Y-86694440D01*
X163254068Y-86458632D01*
X163012210Y-86345734D01*
X162752973Y-86282189D01*
X162486320Y-86270439D01*
X162222499Y-86310937D01*
X161971647Y-86402125D01*
X161865932Y-86458632D01*
X161804045Y-86694440D01*
X161000699Y-86694440D01*
X160883762Y-86577503D01*
X160661833Y-86429215D01*
X160415239Y-86327072D01*
X160153456Y-86275000D01*
X159886544Y-86275000D01*
X159624761Y-86327072D01*
X159378167Y-86429215D01*
X159156238Y-86577503D01*
X158967503Y-86766238D01*
X158819215Y-86988167D01*
X158750000Y-87155266D01*
X158680785Y-86988167D01*
X158532497Y-86766238D01*
X158343762Y-86577503D01*
X158121833Y-86429215D01*
X157875239Y-86327072D01*
X157759103Y-86303971D01*
X150668133Y-79213002D01*
X150360000Y-78904869D01*
X150360000Y-76023703D01*
X150482421Y-76124171D01*
X150683940Y-76231885D01*
X150902600Y-76298215D01*
X151130000Y-76320612D01*
X151357399Y-76298215D01*
X151576059Y-76231885D01*
X151764999Y-76130894D01*
X151953940Y-76231885D01*
X152172600Y-76298215D01*
X152400000Y-76320612D01*
X152627399Y-76298215D01*
X152836098Y-76234907D01*
X152900820Y-76269502D01*
X153020518Y-76305812D01*
X153145000Y-76318072D01*
X153384250Y-76315000D01*
X153543000Y-76156250D01*
X153543000Y-75383109D01*
X153543215Y-75382400D01*
X153560000Y-75211979D01*
X153560000Y-75057000D01*
X153797000Y-75057000D01*
X153797000Y-76156250D01*
X153955750Y-76315000D01*
X154195000Y-76318072D01*
X154319482Y-76305812D01*
X154439180Y-76269502D01*
X154549494Y-76210537D01*
X154646185Y-76131185D01*
X154725537Y-76034494D01*
X154784502Y-75924180D01*
X154820812Y-75804482D01*
X154833072Y-75680000D01*
X154830000Y-75215750D01*
X154671250Y-75057000D01*
X153797000Y-75057000D01*
X153560000Y-75057000D01*
X153560000Y-74648022D01*
X153543215Y-74477601D01*
X153543000Y-74476892D01*
X153543000Y-73703750D01*
X153797000Y-73703750D01*
X153797000Y-74803000D01*
X154671250Y-74803000D01*
X154826229Y-74648021D01*
X161400000Y-74648021D01*
X161400000Y-75211978D01*
X161416785Y-75382399D01*
X161483115Y-75601059D01*
X161590829Y-75802578D01*
X161735788Y-75979212D01*
X161912421Y-76124171D01*
X162113940Y-76231885D01*
X162332600Y-76298215D01*
X162560000Y-76320612D01*
X162787399Y-76298215D01*
X163006059Y-76231885D01*
X163194999Y-76130894D01*
X163383940Y-76231885D01*
X163602600Y-76298215D01*
X163830000Y-76320612D01*
X164057399Y-76298215D01*
X164266098Y-76234907D01*
X164330820Y-76269502D01*
X164450518Y-76305812D01*
X164575000Y-76318072D01*
X164814250Y-76315000D01*
X164973000Y-76156250D01*
X164973000Y-75383109D01*
X164973215Y-75382400D01*
X164990000Y-75211979D01*
X164990000Y-75057000D01*
X165227000Y-75057000D01*
X165227000Y-76156250D01*
X165385750Y-76315000D01*
X165625000Y-76318072D01*
X165749482Y-76305812D01*
X165869180Y-76269502D01*
X165979494Y-76210537D01*
X166076185Y-76131185D01*
X166155537Y-76034494D01*
X166214502Y-75924180D01*
X166250812Y-75804482D01*
X166263072Y-75680000D01*
X166260000Y-75215750D01*
X166101250Y-75057000D01*
X165227000Y-75057000D01*
X164990000Y-75057000D01*
X164990000Y-74648022D01*
X164973215Y-74477601D01*
X164973000Y-74476892D01*
X164973000Y-73703750D01*
X165227000Y-73703750D01*
X165227000Y-74803000D01*
X166101250Y-74803000D01*
X166260000Y-74644250D01*
X166263072Y-74180000D01*
X166250812Y-74055518D01*
X166214502Y-73935820D01*
X166155537Y-73825506D01*
X166076185Y-73728815D01*
X165979494Y-73649463D01*
X165869180Y-73590498D01*
X165749482Y-73554188D01*
X165625000Y-73541928D01*
X165385750Y-73545000D01*
X165227000Y-73703750D01*
X164973000Y-73703750D01*
X164814250Y-73545000D01*
X164575000Y-73541928D01*
X164450518Y-73554188D01*
X164330820Y-73590498D01*
X164266098Y-73625093D01*
X164057400Y-73561785D01*
X163830000Y-73539388D01*
X163602601Y-73561785D01*
X163383941Y-73628115D01*
X163195001Y-73729106D01*
X163006060Y-73628115D01*
X162787400Y-73561785D01*
X162560000Y-73539388D01*
X162332601Y-73561785D01*
X162113941Y-73628115D01*
X161912422Y-73735829D01*
X161735789Y-73880788D01*
X161590830Y-74057421D01*
X161483115Y-74258940D01*
X161416785Y-74477600D01*
X161400000Y-74648021D01*
X154826229Y-74648021D01*
X154830000Y-74644250D01*
X154833072Y-74180000D01*
X154820812Y-74055518D01*
X154784502Y-73935820D01*
X154725537Y-73825506D01*
X154646185Y-73728815D01*
X154549494Y-73649463D01*
X154439180Y-73590498D01*
X154319482Y-73554188D01*
X154195000Y-73541928D01*
X153955750Y-73545000D01*
X153797000Y-73703750D01*
X153543000Y-73703750D01*
X153384250Y-73545000D01*
X153145000Y-73541928D01*
X153020518Y-73554188D01*
X152900820Y-73590498D01*
X152836098Y-73625093D01*
X152627400Y-73561785D01*
X152400000Y-73539388D01*
X152172601Y-73561785D01*
X151953941Y-73628115D01*
X151765001Y-73729106D01*
X151576060Y-73628115D01*
X151357400Y-73561785D01*
X151130000Y-73539388D01*
X150902601Y-73561785D01*
X150683941Y-73628115D01*
X150482422Y-73735829D01*
X150360000Y-73836298D01*
X150360000Y-69270752D01*
X150365491Y-69215000D01*
X150343577Y-68992501D01*
X150278676Y-68778553D01*
X150173284Y-68581377D01*
X150160914Y-68566304D01*
X150031449Y-68408551D01*
X149988141Y-68373009D01*
X148793646Y-67178514D01*
X153605000Y-67178514D01*
X153605000Y-67441486D01*
X153656304Y-67699405D01*
X153756939Y-67942359D01*
X153903038Y-68161013D01*
X154088987Y-68346962D01*
X154307641Y-68493061D01*
X154517530Y-68580000D01*
X154307641Y-68666939D01*
X154088987Y-68813038D01*
X153903038Y-68998987D01*
X153756939Y-69217641D01*
X153656304Y-69460595D01*
X153605000Y-69718514D01*
X153605000Y-69981486D01*
X153656304Y-70239405D01*
X153756939Y-70482359D01*
X153903038Y-70701013D01*
X154088987Y-70886962D01*
X154307641Y-71033061D01*
X154550595Y-71133696D01*
X154808514Y-71185000D01*
X155071486Y-71185000D01*
X155329405Y-71133696D01*
X155572359Y-71033061D01*
X155791013Y-70886962D01*
X155976962Y-70701013D01*
X156123061Y-70482359D01*
X156223696Y-70239405D01*
X156275000Y-69981486D01*
X156275000Y-69718514D01*
X156223696Y-69460595D01*
X156123061Y-69217641D01*
X155976962Y-68998987D01*
X155791013Y-68813038D01*
X155572359Y-68666939D01*
X155362470Y-68580000D01*
X155572359Y-68493061D01*
X155791013Y-68346962D01*
X155976962Y-68161013D01*
X156123061Y-67942359D01*
X156223696Y-67699405D01*
X156275000Y-67441486D01*
X156275000Y-67178514D01*
X161225000Y-67178514D01*
X161225000Y-67441486D01*
X161276304Y-67699405D01*
X161376939Y-67942359D01*
X161523038Y-68161013D01*
X161708987Y-68346962D01*
X161927641Y-68493061D01*
X162137530Y-68580000D01*
X161927641Y-68666939D01*
X161708987Y-68813038D01*
X161523038Y-68998987D01*
X161376939Y-69217641D01*
X161276304Y-69460595D01*
X161225000Y-69718514D01*
X161225000Y-69981486D01*
X161276304Y-70239405D01*
X161376939Y-70482359D01*
X161523038Y-70701013D01*
X161708987Y-70886962D01*
X161927641Y-71033061D01*
X162170595Y-71133696D01*
X162428514Y-71185000D01*
X162691486Y-71185000D01*
X162949405Y-71133696D01*
X163192359Y-71033061D01*
X163411013Y-70886962D01*
X163596962Y-70701013D01*
X163743061Y-70482359D01*
X163843696Y-70239405D01*
X163895000Y-69981486D01*
X163895000Y-69718514D01*
X163843696Y-69460595D01*
X163743061Y-69217641D01*
X163596962Y-68998987D01*
X163411013Y-68813038D01*
X163192359Y-68666939D01*
X162982470Y-68580000D01*
X163192359Y-68493061D01*
X163264288Y-68445000D01*
X163359869Y-68445000D01*
X171585000Y-76670133D01*
X171585001Y-86889711D01*
X171519215Y-86988167D01*
X171417072Y-87234761D01*
X171365000Y-87496544D01*
X171365000Y-87763456D01*
X171417072Y-88025239D01*
X171519215Y-88271833D01*
X171667503Y-88493762D01*
X171856238Y-88682497D01*
X172078167Y-88830785D01*
X172324761Y-88932928D01*
X172586544Y-88985000D01*
X172853456Y-88985000D01*
X173115239Y-88932928D01*
X173361833Y-88830785D01*
X173583762Y-88682497D01*
X173772497Y-88493762D01*
X173920785Y-88271833D01*
X173990000Y-88104734D01*
X174059215Y-88271833D01*
X174207503Y-88493762D01*
X174396238Y-88682497D01*
X174618167Y-88830785D01*
X174864761Y-88932928D01*
X175126544Y-88985000D01*
X175393456Y-88985000D01*
X175655239Y-88932928D01*
X175901833Y-88830785D01*
X176123762Y-88682497D01*
X176240699Y-88565560D01*
X177044045Y-88565560D01*
X177105932Y-88801368D01*
X177347790Y-88914266D01*
X177607027Y-88977811D01*
X177873680Y-88989561D01*
X178137501Y-88949063D01*
X178388353Y-88857875D01*
X178494068Y-88801368D01*
X178555955Y-88565560D01*
X177800000Y-87809605D01*
X177044045Y-88565560D01*
X176240699Y-88565560D01*
X176312497Y-88493762D01*
X176460785Y-88271833D01*
X176530438Y-88103676D01*
X176572125Y-88218353D01*
X176628632Y-88324068D01*
X176864440Y-88385955D01*
X177620395Y-87630000D01*
X177979605Y-87630000D01*
X178735560Y-88385955D01*
X178971368Y-88324068D01*
X179084266Y-88082210D01*
X179147811Y-87822973D01*
X179159561Y-87556320D01*
X179119063Y-87292499D01*
X179027875Y-87041647D01*
X178971368Y-86935932D01*
X178735560Y-86874045D01*
X177979605Y-87630000D01*
X177620395Y-87630000D01*
X176864440Y-86874045D01*
X176628632Y-86935932D01*
X176528236Y-87151007D01*
X176460785Y-86988167D01*
X176312497Y-86766238D01*
X176240699Y-86694440D01*
X177044045Y-86694440D01*
X177800000Y-87450395D01*
X178555955Y-86694440D01*
X178494068Y-86458632D01*
X178252210Y-86345734D01*
X177992973Y-86282189D01*
X177726320Y-86270439D01*
X177462499Y-86310937D01*
X177211647Y-86402125D01*
X177105932Y-86458632D01*
X177044045Y-86694440D01*
X176240699Y-86694440D01*
X176123762Y-86577503D01*
X175901833Y-86429215D01*
X175655239Y-86327072D01*
X175393456Y-86275000D01*
X175126544Y-86275000D01*
X174864761Y-86327072D01*
X174618167Y-86429215D01*
X174396238Y-86577503D01*
X174207503Y-86766238D01*
X174059215Y-86988167D01*
X173990000Y-87155266D01*
X173920785Y-86988167D01*
X173855000Y-86889713D01*
X173855000Y-76307316D01*
X173990000Y-76320612D01*
X174217399Y-76298215D01*
X174436059Y-76231885D01*
X174624999Y-76130894D01*
X174813940Y-76231885D01*
X175032600Y-76298215D01*
X175260000Y-76320612D01*
X175487399Y-76298215D01*
X175696098Y-76234907D01*
X175760820Y-76269502D01*
X175880518Y-76305812D01*
X176005000Y-76318072D01*
X176244250Y-76315000D01*
X176403000Y-76156250D01*
X176403000Y-75383109D01*
X176403215Y-75382400D01*
X176420000Y-75211979D01*
X176420000Y-75057000D01*
X176657000Y-75057000D01*
X176657000Y-76156250D01*
X176815750Y-76315000D01*
X177055000Y-76318072D01*
X177179482Y-76305812D01*
X177299180Y-76269502D01*
X177409494Y-76210537D01*
X177506185Y-76131185D01*
X177585537Y-76034494D01*
X177644502Y-75924180D01*
X177680812Y-75804482D01*
X177693072Y-75680000D01*
X177690000Y-75215750D01*
X177531250Y-75057000D01*
X176657000Y-75057000D01*
X176420000Y-75057000D01*
X176420000Y-74648022D01*
X176403215Y-74477601D01*
X176403000Y-74476892D01*
X176403000Y-73703750D01*
X176657000Y-73703750D01*
X176657000Y-74803000D01*
X177531250Y-74803000D01*
X177690000Y-74644250D01*
X177693072Y-74180000D01*
X177680812Y-74055518D01*
X177644502Y-73935820D01*
X177585537Y-73825506D01*
X177506185Y-73728815D01*
X177409494Y-73649463D01*
X177299180Y-73590498D01*
X177179482Y-73554188D01*
X177055000Y-73541928D01*
X176815750Y-73545000D01*
X176657000Y-73703750D01*
X176403000Y-73703750D01*
X176244250Y-73545000D01*
X176005000Y-73541928D01*
X175880518Y-73554188D01*
X175760820Y-73590498D01*
X175696098Y-73625093D01*
X175487400Y-73561785D01*
X175260000Y-73539388D01*
X175032601Y-73561785D01*
X174813941Y-73628115D01*
X174625001Y-73729106D01*
X174436060Y-73628115D01*
X174217400Y-73561785D01*
X173990000Y-73539388D01*
X173855000Y-73552684D01*
X173855000Y-72860131D01*
X176509572Y-70205560D01*
X176516304Y-70239405D01*
X176616939Y-70482359D01*
X176763038Y-70701013D01*
X176948987Y-70886962D01*
X177167641Y-71033061D01*
X177410595Y-71133696D01*
X177668514Y-71185000D01*
X177931486Y-71185000D01*
X178189405Y-71133696D01*
X178432359Y-71033061D01*
X178651013Y-70886962D01*
X178836962Y-70701013D01*
X178983061Y-70482359D01*
X179083696Y-70239405D01*
X179135000Y-69981486D01*
X179135000Y-69718514D01*
X179083696Y-69460595D01*
X178983061Y-69217641D01*
X178836962Y-68998987D01*
X178651013Y-68813038D01*
X178432359Y-68666939D01*
X178222470Y-68580000D01*
X178432359Y-68493061D01*
X178651013Y-68346962D01*
X178836962Y-68161013D01*
X178983061Y-67942359D01*
X179083696Y-67699405D01*
X179135000Y-67441486D01*
X179135000Y-67178514D01*
X179083696Y-66920595D01*
X178983061Y-66677641D01*
X178836962Y-66458987D01*
X178651013Y-66273038D01*
X178432359Y-66126939D01*
X178189405Y-66026304D01*
X177931486Y-65975000D01*
X177668514Y-65975000D01*
X177410595Y-66026304D01*
X177167641Y-66126939D01*
X176948987Y-66273038D01*
X176763038Y-66458987D01*
X176616939Y-66677641D01*
X176516304Y-66920595D01*
X176499427Y-67005441D01*
X171956865Y-71548004D01*
X171913551Y-71583551D01*
X171771716Y-71756377D01*
X171666325Y-71953553D01*
X171666324Y-71953554D01*
X171601423Y-72167502D01*
X171579509Y-72390000D01*
X171585000Y-72445752D01*
X171585000Y-73459868D01*
X165303646Y-67178514D01*
X168845000Y-67178514D01*
X168845000Y-67441486D01*
X168896304Y-67699405D01*
X168996939Y-67942359D01*
X169143038Y-68161013D01*
X169328987Y-68346962D01*
X169547641Y-68493061D01*
X169757530Y-68580000D01*
X169547641Y-68666939D01*
X169328987Y-68813038D01*
X169143038Y-68998987D01*
X168996939Y-69217641D01*
X168896304Y-69460595D01*
X168845000Y-69718514D01*
X168845000Y-69981486D01*
X168896304Y-70239405D01*
X168996939Y-70482359D01*
X169143038Y-70701013D01*
X169328987Y-70886962D01*
X169547641Y-71033061D01*
X169790595Y-71133696D01*
X170048514Y-71185000D01*
X170311486Y-71185000D01*
X170569405Y-71133696D01*
X170812359Y-71033061D01*
X171031013Y-70886962D01*
X171216962Y-70701013D01*
X171363061Y-70482359D01*
X171463696Y-70239405D01*
X171515000Y-69981486D01*
X171515000Y-69718514D01*
X171463696Y-69460595D01*
X171363061Y-69217641D01*
X171216962Y-68998987D01*
X171031013Y-68813038D01*
X170812359Y-68666939D01*
X170602470Y-68580000D01*
X170812359Y-68493061D01*
X171031013Y-68346962D01*
X171216962Y-68161013D01*
X171363061Y-67942359D01*
X171463696Y-67699405D01*
X171515000Y-67441486D01*
X171515000Y-67178514D01*
X171463696Y-66920595D01*
X171363061Y-66677641D01*
X171216962Y-66458987D01*
X171031013Y-66273038D01*
X170812359Y-66126939D01*
X170569405Y-66026304D01*
X170311486Y-65975000D01*
X170048514Y-65975000D01*
X169790595Y-66026304D01*
X169547641Y-66126939D01*
X169328987Y-66273038D01*
X169143038Y-66458987D01*
X168996939Y-66677641D01*
X168896304Y-66920595D01*
X168845000Y-67178514D01*
X165303646Y-67178514D01*
X164671996Y-66546865D01*
X164636449Y-66503551D01*
X164463623Y-66361716D01*
X164266447Y-66256324D01*
X164052499Y-66191423D01*
X163885752Y-66175000D01*
X163885751Y-66175000D01*
X163830000Y-66169509D01*
X163774249Y-66175000D01*
X163264288Y-66175000D01*
X163192359Y-66126939D01*
X162949405Y-66026304D01*
X162691486Y-65975000D01*
X162428514Y-65975000D01*
X162170595Y-66026304D01*
X161927641Y-66126939D01*
X161708987Y-66273038D01*
X161523038Y-66458987D01*
X161376939Y-66677641D01*
X161276304Y-66920595D01*
X161225000Y-67178514D01*
X156275000Y-67178514D01*
X156223696Y-66920595D01*
X156123061Y-66677641D01*
X155976962Y-66458987D01*
X155791013Y-66273038D01*
X155572359Y-66126939D01*
X155329405Y-66026304D01*
X155071486Y-65975000D01*
X154808514Y-65975000D01*
X154550595Y-66026304D01*
X154307641Y-66126939D01*
X154088987Y-66273038D01*
X153903038Y-66458987D01*
X153756939Y-66677641D01*
X153656304Y-66920595D01*
X153605000Y-67178514D01*
X148793646Y-67178514D01*
X148620573Y-67005442D01*
X148603696Y-66920595D01*
X148503061Y-66677641D01*
X148356962Y-66458987D01*
X148171013Y-66273038D01*
X147952359Y-66126939D01*
X147709405Y-66026304D01*
X147451486Y-65975000D01*
X147188514Y-65975000D01*
X146930595Y-66026304D01*
X146687641Y-66126939D01*
X146468987Y-66273038D01*
X146283038Y-66458987D01*
X146136939Y-66677641D01*
X146036304Y-66920595D01*
X145985000Y-67178514D01*
X141035000Y-67178514D01*
X140983696Y-66920595D01*
X140883061Y-66677641D01*
X140736962Y-66458987D01*
X140551013Y-66273038D01*
X140332359Y-66126939D01*
X140089405Y-66026304D01*
X139831486Y-65975000D01*
X139568514Y-65975000D01*
X139310595Y-66026304D01*
X139067641Y-66126939D01*
X138848987Y-66273038D01*
X138663038Y-66458987D01*
X138516939Y-66677641D01*
X138416304Y-66920595D01*
X138365000Y-67178514D01*
X87757000Y-67178514D01*
X87757000Y-62500000D01*
X92389428Y-62500000D01*
X92389428Y-64500000D01*
X92401688Y-64624482D01*
X92437998Y-64744180D01*
X92496963Y-64854494D01*
X92576315Y-64951185D01*
X92673006Y-65030537D01*
X92783320Y-65089502D01*
X92903018Y-65125812D01*
X93027500Y-65138072D01*
X94932500Y-65138072D01*
X95056982Y-65125812D01*
X95176680Y-65089502D01*
X95286994Y-65030537D01*
X95383685Y-64951185D01*
X95463037Y-64854494D01*
X95507905Y-64770553D01*
X95633766Y-64873845D01*
X95909552Y-65021255D01*
X96208797Y-65112030D01*
X96520000Y-65142681D01*
X96831204Y-65112030D01*
X97130449Y-65021255D01*
X97406235Y-64873845D01*
X97647963Y-64675463D01*
X97795162Y-64496100D01*
X97950563Y-64681315D01*
X98193077Y-64875969D01*
X98468906Y-65019571D01*
X98687020Y-65090563D01*
X98933000Y-64970594D01*
X98933000Y-63627000D01*
X99187000Y-63627000D01*
X99187000Y-64970594D01*
X99432980Y-65090563D01*
X99651094Y-65019571D01*
X99926923Y-64875969D01*
X100169437Y-64681315D01*
X100369316Y-64443089D01*
X100518879Y-64170446D01*
X100612378Y-63873863D01*
X100485570Y-63627000D01*
X99187000Y-63627000D01*
X98933000Y-63627000D01*
X98913000Y-63627000D01*
X98913000Y-63373000D01*
X98933000Y-63373000D01*
X98933000Y-62029406D01*
X99187000Y-62029406D01*
X99187000Y-63373000D01*
X100485570Y-63373000D01*
X100612378Y-63126137D01*
X100518879Y-62829554D01*
X100369316Y-62556911D01*
X100321566Y-62500000D01*
X107629428Y-62500000D01*
X107629428Y-64500000D01*
X107641688Y-64624482D01*
X107677998Y-64744180D01*
X107736963Y-64854494D01*
X107816315Y-64951185D01*
X107913006Y-65030537D01*
X108023320Y-65089502D01*
X108143018Y-65125812D01*
X108267500Y-65138072D01*
X110172500Y-65138072D01*
X110296982Y-65125812D01*
X110416680Y-65089502D01*
X110526994Y-65030537D01*
X110623685Y-64951185D01*
X110703037Y-64854494D01*
X110747905Y-64770553D01*
X110873766Y-64873845D01*
X111149552Y-65021255D01*
X111448797Y-65112030D01*
X111760000Y-65142681D01*
X112071204Y-65112030D01*
X112370449Y-65021255D01*
X112646235Y-64873845D01*
X112887963Y-64675463D01*
X113035162Y-64496100D01*
X113190563Y-64681315D01*
X113433077Y-64875969D01*
X113708906Y-65019571D01*
X113927020Y-65090563D01*
X114173000Y-64970594D01*
X114173000Y-63627000D01*
X114427000Y-63627000D01*
X114427000Y-64970594D01*
X114672980Y-65090563D01*
X114891094Y-65019571D01*
X115166923Y-64875969D01*
X115409437Y-64681315D01*
X115609316Y-64443089D01*
X115758879Y-64170446D01*
X115852378Y-63873863D01*
X115725570Y-63627000D01*
X114427000Y-63627000D01*
X114173000Y-63627000D01*
X114153000Y-63627000D01*
X114153000Y-63373000D01*
X114173000Y-63373000D01*
X114173000Y-62029406D01*
X114427000Y-62029406D01*
X114427000Y-63373000D01*
X115725570Y-63373000D01*
X115852378Y-63126137D01*
X115758879Y-62829554D01*
X115609316Y-62556911D01*
X115561566Y-62500000D01*
X122869428Y-62500000D01*
X122869428Y-64500000D01*
X122881688Y-64624482D01*
X122917998Y-64744180D01*
X122976963Y-64854494D01*
X123056315Y-64951185D01*
X123153006Y-65030537D01*
X123263320Y-65089502D01*
X123383018Y-65125812D01*
X123507500Y-65138072D01*
X125412500Y-65138072D01*
X125536982Y-65125812D01*
X125656680Y-65089502D01*
X125766994Y-65030537D01*
X125863685Y-64951185D01*
X125943037Y-64854494D01*
X125987905Y-64770553D01*
X126113766Y-64873845D01*
X126389552Y-65021255D01*
X126688797Y-65112030D01*
X127000000Y-65142681D01*
X127311204Y-65112030D01*
X127610449Y-65021255D01*
X127886235Y-64873845D01*
X128127963Y-64675463D01*
X128275162Y-64496100D01*
X128430563Y-64681315D01*
X128673077Y-64875969D01*
X128948906Y-65019571D01*
X129167020Y-65090563D01*
X129413000Y-64970594D01*
X129413000Y-63627000D01*
X129667000Y-63627000D01*
X129667000Y-64970594D01*
X129912980Y-65090563D01*
X130131094Y-65019571D01*
X130406923Y-64875969D01*
X130649437Y-64681315D01*
X130849316Y-64443089D01*
X130998879Y-64170446D01*
X131092378Y-63873863D01*
X130965570Y-63627000D01*
X129667000Y-63627000D01*
X129413000Y-63627000D01*
X129393000Y-63627000D01*
X129393000Y-63373000D01*
X129413000Y-63373000D01*
X129413000Y-62029406D01*
X129667000Y-62029406D01*
X129667000Y-63373000D01*
X130965570Y-63373000D01*
X131092378Y-63126137D01*
X130998879Y-62829554D01*
X130849316Y-62556911D01*
X130801566Y-62500000D01*
X138109428Y-62500000D01*
X138109428Y-64500000D01*
X138121688Y-64624482D01*
X138157998Y-64744180D01*
X138216963Y-64854494D01*
X138296315Y-64951185D01*
X138393006Y-65030537D01*
X138503320Y-65089502D01*
X138623018Y-65125812D01*
X138747500Y-65138072D01*
X140652500Y-65138072D01*
X140776982Y-65125812D01*
X140896680Y-65089502D01*
X141006994Y-65030537D01*
X141103685Y-64951185D01*
X141183037Y-64854494D01*
X141227905Y-64770553D01*
X141353766Y-64873845D01*
X141629552Y-65021255D01*
X141928797Y-65112030D01*
X142240000Y-65142681D01*
X142551204Y-65112030D01*
X142850449Y-65021255D01*
X143126235Y-64873845D01*
X143367963Y-64675463D01*
X143510000Y-64502391D01*
X143652037Y-64675463D01*
X143893766Y-64873845D01*
X144169552Y-65021255D01*
X144468797Y-65112030D01*
X144780000Y-65142681D01*
X145091204Y-65112030D01*
X145390449Y-65021255D01*
X145666235Y-64873845D01*
X145907963Y-64675463D01*
X146106345Y-64433734D01*
X146253755Y-64157948D01*
X146344530Y-63858703D01*
X146367500Y-63625485D01*
X146367500Y-63374514D01*
X146344530Y-63141296D01*
X146253755Y-62842051D01*
X146106345Y-62566265D01*
X146051963Y-62500000D01*
X153349428Y-62500000D01*
X153349428Y-64500000D01*
X153361688Y-64624482D01*
X153397998Y-64744180D01*
X153456963Y-64854494D01*
X153536315Y-64951185D01*
X153633006Y-65030537D01*
X153743320Y-65089502D01*
X153863018Y-65125812D01*
X153987500Y-65138072D01*
X155892500Y-65138072D01*
X156016982Y-65125812D01*
X156136680Y-65089502D01*
X156246994Y-65030537D01*
X156343685Y-64951185D01*
X156423037Y-64854494D01*
X156467905Y-64770553D01*
X156593766Y-64873845D01*
X156869552Y-65021255D01*
X157168797Y-65112030D01*
X157480000Y-65142681D01*
X157791204Y-65112030D01*
X158090449Y-65021255D01*
X158366235Y-64873845D01*
X158607963Y-64675463D01*
X158750000Y-64502391D01*
X158892037Y-64675463D01*
X159133766Y-64873845D01*
X159409552Y-65021255D01*
X159708797Y-65112030D01*
X160020000Y-65142681D01*
X160331204Y-65112030D01*
X160630449Y-65021255D01*
X160906235Y-64873845D01*
X161147963Y-64675463D01*
X161346345Y-64433734D01*
X161493755Y-64157948D01*
X161584530Y-63858703D01*
X161607500Y-63625485D01*
X161607500Y-63374514D01*
X161584530Y-63141296D01*
X161493755Y-62842051D01*
X161346345Y-62566265D01*
X161291963Y-62500000D01*
X168589428Y-62500000D01*
X168589428Y-64500000D01*
X168601688Y-64624482D01*
X168637998Y-64744180D01*
X168696963Y-64854494D01*
X168776315Y-64951185D01*
X168873006Y-65030537D01*
X168983320Y-65089502D01*
X169103018Y-65125812D01*
X169227500Y-65138072D01*
X171132500Y-65138072D01*
X171256982Y-65125812D01*
X171376680Y-65089502D01*
X171486994Y-65030537D01*
X171583685Y-64951185D01*
X171663037Y-64854494D01*
X171707905Y-64770553D01*
X171833766Y-64873845D01*
X172109552Y-65021255D01*
X172408797Y-65112030D01*
X172720000Y-65142681D01*
X173031204Y-65112030D01*
X173330449Y-65021255D01*
X173606235Y-64873845D01*
X173847963Y-64675463D01*
X173990000Y-64502391D01*
X174132037Y-64675463D01*
X174373766Y-64873845D01*
X174649552Y-65021255D01*
X174948797Y-65112030D01*
X175260000Y-65142681D01*
X175571204Y-65112030D01*
X175870449Y-65021255D01*
X176146235Y-64873845D01*
X176387963Y-64675463D01*
X176586345Y-64433734D01*
X176733755Y-64157948D01*
X176824530Y-63858703D01*
X176847500Y-63625485D01*
X176847500Y-63374514D01*
X176824530Y-63141296D01*
X176733755Y-62842051D01*
X176586345Y-62566265D01*
X176387963Y-62324537D01*
X176146234Y-62126155D01*
X175870448Y-61978745D01*
X175571203Y-61887970D01*
X175260000Y-61857319D01*
X174948796Y-61887970D01*
X174649551Y-61978745D01*
X174373765Y-62126155D01*
X174132037Y-62324537D01*
X173990000Y-62497609D01*
X173847963Y-62324537D01*
X173606234Y-62126155D01*
X173330448Y-61978745D01*
X173031203Y-61887970D01*
X172720000Y-61857319D01*
X172408796Y-61887970D01*
X172109551Y-61978745D01*
X171833765Y-62126155D01*
X171707905Y-62229446D01*
X171663037Y-62145506D01*
X171583685Y-62048815D01*
X171486994Y-61969463D01*
X171376680Y-61910498D01*
X171256982Y-61874188D01*
X171132500Y-61861928D01*
X169227500Y-61861928D01*
X169103018Y-61874188D01*
X168983320Y-61910498D01*
X168873006Y-61969463D01*
X168776315Y-62048815D01*
X168696963Y-62145506D01*
X168637998Y-62255820D01*
X168601688Y-62375518D01*
X168589428Y-62500000D01*
X161291963Y-62500000D01*
X161147963Y-62324537D01*
X160906234Y-62126155D01*
X160630448Y-61978745D01*
X160331203Y-61887970D01*
X160020000Y-61857319D01*
X159708796Y-61887970D01*
X159409551Y-61978745D01*
X159133765Y-62126155D01*
X158892037Y-62324537D01*
X158750000Y-62497609D01*
X158607963Y-62324537D01*
X158366234Y-62126155D01*
X158090448Y-61978745D01*
X157791203Y-61887970D01*
X157480000Y-61857319D01*
X157168796Y-61887970D01*
X156869551Y-61978745D01*
X156593765Y-62126155D01*
X156467905Y-62229446D01*
X156423037Y-62145506D01*
X156343685Y-62048815D01*
X156246994Y-61969463D01*
X156136680Y-61910498D01*
X156016982Y-61874188D01*
X155892500Y-61861928D01*
X153987500Y-61861928D01*
X153863018Y-61874188D01*
X153743320Y-61910498D01*
X153633006Y-61969463D01*
X153536315Y-62048815D01*
X153456963Y-62145506D01*
X153397998Y-62255820D01*
X153361688Y-62375518D01*
X153349428Y-62500000D01*
X146051963Y-62500000D01*
X145907963Y-62324537D01*
X145666234Y-62126155D01*
X145390448Y-61978745D01*
X145091203Y-61887970D01*
X144780000Y-61857319D01*
X144468796Y-61887970D01*
X144169551Y-61978745D01*
X143893765Y-62126155D01*
X143652037Y-62324537D01*
X143510000Y-62497609D01*
X143367963Y-62324537D01*
X143126234Y-62126155D01*
X142850448Y-61978745D01*
X142551203Y-61887970D01*
X142240000Y-61857319D01*
X141928796Y-61887970D01*
X141629551Y-61978745D01*
X141353765Y-62126155D01*
X141227905Y-62229446D01*
X141183037Y-62145506D01*
X141103685Y-62048815D01*
X141006994Y-61969463D01*
X140896680Y-61910498D01*
X140776982Y-61874188D01*
X140652500Y-61861928D01*
X138747500Y-61861928D01*
X138623018Y-61874188D01*
X138503320Y-61910498D01*
X138393006Y-61969463D01*
X138296315Y-62048815D01*
X138216963Y-62145506D01*
X138157998Y-62255820D01*
X138121688Y-62375518D01*
X138109428Y-62500000D01*
X130801566Y-62500000D01*
X130649437Y-62318685D01*
X130406923Y-62124031D01*
X130131094Y-61980429D01*
X129912980Y-61909437D01*
X129667000Y-62029406D01*
X129413000Y-62029406D01*
X129167020Y-61909437D01*
X128948906Y-61980429D01*
X128673077Y-62124031D01*
X128430563Y-62318685D01*
X128275163Y-62503899D01*
X128127963Y-62324537D01*
X127886234Y-62126155D01*
X127610448Y-61978745D01*
X127311203Y-61887970D01*
X127000000Y-61857319D01*
X126688796Y-61887970D01*
X126389551Y-61978745D01*
X126113765Y-62126155D01*
X125987905Y-62229446D01*
X125943037Y-62145506D01*
X125863685Y-62048815D01*
X125766994Y-61969463D01*
X125656680Y-61910498D01*
X125536982Y-61874188D01*
X125412500Y-61861928D01*
X123507500Y-61861928D01*
X123383018Y-61874188D01*
X123263320Y-61910498D01*
X123153006Y-61969463D01*
X123056315Y-62048815D01*
X122976963Y-62145506D01*
X122917998Y-62255820D01*
X122881688Y-62375518D01*
X122869428Y-62500000D01*
X115561566Y-62500000D01*
X115409437Y-62318685D01*
X115166923Y-62124031D01*
X114891094Y-61980429D01*
X114672980Y-61909437D01*
X114427000Y-62029406D01*
X114173000Y-62029406D01*
X113927020Y-61909437D01*
X113708906Y-61980429D01*
X113433077Y-62124031D01*
X113190563Y-62318685D01*
X113035163Y-62503899D01*
X112887963Y-62324537D01*
X112646234Y-62126155D01*
X112370448Y-61978745D01*
X112071203Y-61887970D01*
X111760000Y-61857319D01*
X111448796Y-61887970D01*
X111149551Y-61978745D01*
X110873765Y-62126155D01*
X110747905Y-62229446D01*
X110703037Y-62145506D01*
X110623685Y-62048815D01*
X110526994Y-61969463D01*
X110416680Y-61910498D01*
X110296982Y-61874188D01*
X110172500Y-61861928D01*
X108267500Y-61861928D01*
X108143018Y-61874188D01*
X108023320Y-61910498D01*
X107913006Y-61969463D01*
X107816315Y-62048815D01*
X107736963Y-62145506D01*
X107677998Y-62255820D01*
X107641688Y-62375518D01*
X107629428Y-62500000D01*
X100321566Y-62500000D01*
X100169437Y-62318685D01*
X99926923Y-62124031D01*
X99651094Y-61980429D01*
X99432980Y-61909437D01*
X99187000Y-62029406D01*
X98933000Y-62029406D01*
X98687020Y-61909437D01*
X98468906Y-61980429D01*
X98193077Y-62124031D01*
X97950563Y-62318685D01*
X97795163Y-62503899D01*
X97647963Y-62324537D01*
X97406234Y-62126155D01*
X97130448Y-61978745D01*
X96831203Y-61887970D01*
X96520000Y-61857319D01*
X96208796Y-61887970D01*
X95909551Y-61978745D01*
X95633765Y-62126155D01*
X95507905Y-62229446D01*
X95463037Y-62145506D01*
X95383685Y-62048815D01*
X95286994Y-61969463D01*
X95176680Y-61910498D01*
X95056982Y-61874188D01*
X94932500Y-61861928D01*
X93027500Y-61861928D01*
X92903018Y-61874188D01*
X92783320Y-61910498D01*
X92673006Y-61969463D01*
X92576315Y-62048815D01*
X92496963Y-62145506D01*
X92437998Y-62255820D01*
X92401688Y-62375518D01*
X92389428Y-62500000D01*
X87757000Y-62500000D01*
X87757000Y-53119872D01*
X89205000Y-53119872D01*
X89205000Y-53560128D01*
X89290890Y-53991925D01*
X89459369Y-54398669D01*
X89703962Y-54764729D01*
X90015271Y-55076038D01*
X90381331Y-55320631D01*
X90788075Y-55489110D01*
X91219872Y-55575000D01*
X91660128Y-55575000D01*
X92091925Y-55489110D01*
X92498669Y-55320631D01*
X92864729Y-55076038D01*
X93176038Y-54764729D01*
X93420631Y-54398669D01*
X93589110Y-53991925D01*
X93675000Y-53560128D01*
X93675000Y-53119872D01*
X93589110Y-52688075D01*
X93420631Y-52281331D01*
X93176038Y-51915271D01*
X92864729Y-51603962D01*
X92498669Y-51359369D01*
X92162203Y-51220000D01*
X107731928Y-51220000D01*
X107731928Y-52920000D01*
X107744188Y-53044482D01*
X107780498Y-53164180D01*
X107839463Y-53274494D01*
X107918815Y-53371185D01*
X108015506Y-53450537D01*
X108125820Y-53509502D01*
X108245518Y-53545812D01*
X108370000Y-53558072D01*
X110070000Y-53558072D01*
X110194482Y-53545812D01*
X110314180Y-53509502D01*
X110424494Y-53450537D01*
X110521185Y-53371185D01*
X110600537Y-53274494D01*
X110659502Y-53164180D01*
X110681513Y-53091620D01*
X110813368Y-53223475D01*
X111056589Y-53385990D01*
X111326842Y-53497932D01*
X111613740Y-53555000D01*
X111906260Y-53555000D01*
X112193158Y-53497932D01*
X112463411Y-53385990D01*
X112706632Y-53223475D01*
X112913475Y-53016632D01*
X113030000Y-52842240D01*
X113146525Y-53016632D01*
X113353368Y-53223475D01*
X113596589Y-53385990D01*
X113866842Y-53497932D01*
X114153740Y-53555000D01*
X114446260Y-53555000D01*
X114733158Y-53497932D01*
X115003411Y-53385990D01*
X115246632Y-53223475D01*
X115453475Y-53016632D01*
X115615990Y-52773411D01*
X115727932Y-52503158D01*
X115785000Y-52216260D01*
X115785000Y-51923740D01*
X115727932Y-51636842D01*
X115615990Y-51366589D01*
X115518043Y-51220000D01*
X153451928Y-51220000D01*
X153451928Y-52920000D01*
X153464188Y-53044482D01*
X153500498Y-53164180D01*
X153559463Y-53274494D01*
X153638815Y-53371185D01*
X153735506Y-53450537D01*
X153845820Y-53509502D01*
X153965518Y-53545812D01*
X154090000Y-53558072D01*
X155790000Y-53558072D01*
X155914482Y-53545812D01*
X156034180Y-53509502D01*
X156144494Y-53450537D01*
X156241185Y-53371185D01*
X156320537Y-53274494D01*
X156379502Y-53164180D01*
X156401513Y-53091620D01*
X156533368Y-53223475D01*
X156776589Y-53385990D01*
X157046842Y-53497932D01*
X157333740Y-53555000D01*
X157626260Y-53555000D01*
X157913158Y-53497932D01*
X158183411Y-53385990D01*
X158426632Y-53223475D01*
X158633475Y-53016632D01*
X158750000Y-52842240D01*
X158866525Y-53016632D01*
X159073368Y-53223475D01*
X159316589Y-53385990D01*
X159586842Y-53497932D01*
X159873740Y-53555000D01*
X160166260Y-53555000D01*
X160453158Y-53497932D01*
X160723411Y-53385990D01*
X160966632Y-53223475D01*
X161070235Y-53119872D01*
X176835000Y-53119872D01*
X176835000Y-53560128D01*
X176920890Y-53991925D01*
X177089369Y-54398669D01*
X177333962Y-54764729D01*
X177645271Y-55076038D01*
X178011331Y-55320631D01*
X178418075Y-55489110D01*
X178849872Y-55575000D01*
X179290128Y-55575000D01*
X179721925Y-55489110D01*
X180128669Y-55320631D01*
X180494729Y-55076038D01*
X180806038Y-54764729D01*
X181050631Y-54398669D01*
X181219110Y-53991925D01*
X181305000Y-53560128D01*
X181305000Y-53119872D01*
X181219110Y-52688075D01*
X181050631Y-52281331D01*
X180806038Y-51915271D01*
X180494729Y-51603962D01*
X180128669Y-51359369D01*
X179721925Y-51190890D01*
X179290128Y-51105000D01*
X178849872Y-51105000D01*
X178418075Y-51190890D01*
X178011331Y-51359369D01*
X177645271Y-51603962D01*
X177333962Y-51915271D01*
X177089369Y-52281331D01*
X176920890Y-52688075D01*
X176835000Y-53119872D01*
X161070235Y-53119872D01*
X161173475Y-53016632D01*
X161335990Y-52773411D01*
X161447932Y-52503158D01*
X161505000Y-52216260D01*
X161505000Y-51923740D01*
X161447932Y-51636842D01*
X161335990Y-51366589D01*
X161173475Y-51123368D01*
X160966632Y-50916525D01*
X160723411Y-50754010D01*
X160453158Y-50642068D01*
X160166260Y-50585000D01*
X159873740Y-50585000D01*
X159586842Y-50642068D01*
X159316589Y-50754010D01*
X159073368Y-50916525D01*
X158866525Y-51123368D01*
X158750000Y-51297760D01*
X158633475Y-51123368D01*
X158426632Y-50916525D01*
X158183411Y-50754010D01*
X157913158Y-50642068D01*
X157626260Y-50585000D01*
X157333740Y-50585000D01*
X157046842Y-50642068D01*
X156776589Y-50754010D01*
X156533368Y-50916525D01*
X156401513Y-51048380D01*
X156379502Y-50975820D01*
X156320537Y-50865506D01*
X156241185Y-50768815D01*
X156144494Y-50689463D01*
X156034180Y-50630498D01*
X155914482Y-50594188D01*
X155790000Y-50581928D01*
X154090000Y-50581928D01*
X153965518Y-50594188D01*
X153845820Y-50630498D01*
X153735506Y-50689463D01*
X153638815Y-50768815D01*
X153559463Y-50865506D01*
X153500498Y-50975820D01*
X153464188Y-51095518D01*
X153451928Y-51220000D01*
X115518043Y-51220000D01*
X115453475Y-51123368D01*
X115246632Y-50916525D01*
X115003411Y-50754010D01*
X114733158Y-50642068D01*
X114446260Y-50585000D01*
X114153740Y-50585000D01*
X113866842Y-50642068D01*
X113596589Y-50754010D01*
X113353368Y-50916525D01*
X113146525Y-51123368D01*
X113030000Y-51297760D01*
X112913475Y-51123368D01*
X112706632Y-50916525D01*
X112463411Y-50754010D01*
X112193158Y-50642068D01*
X111906260Y-50585000D01*
X111613740Y-50585000D01*
X111326842Y-50642068D01*
X111056589Y-50754010D01*
X110813368Y-50916525D01*
X110681513Y-51048380D01*
X110659502Y-50975820D01*
X110600537Y-50865506D01*
X110521185Y-50768815D01*
X110424494Y-50689463D01*
X110314180Y-50630498D01*
X110194482Y-50594188D01*
X110070000Y-50581928D01*
X108370000Y-50581928D01*
X108245518Y-50594188D01*
X108125820Y-50630498D01*
X108015506Y-50689463D01*
X107918815Y-50768815D01*
X107839463Y-50865506D01*
X107780498Y-50975820D01*
X107744188Y-51095518D01*
X107731928Y-51220000D01*
X92162203Y-51220000D01*
X92091925Y-51190890D01*
X91660128Y-51105000D01*
X91219872Y-51105000D01*
X90788075Y-51190890D01*
X90381331Y-51359369D01*
X90015271Y-51603962D01*
X89703962Y-51915271D01*
X89459369Y-52281331D01*
X89290890Y-52688075D01*
X89205000Y-53119872D01*
X87757000Y-53119872D01*
X87757000Y-49657000D01*
X182753000Y-49657000D01*
X182753000Y-106553000D01*
G37*
%TD.AperFunction*%
%TD*%
M02*
