%TF.GenerationSoftware,KiCad,Pcbnew,(5.1.9)-1*%
%TF.CreationDate,2021-10-10T23:20:05-06:00*%
%TF.ProjectId,daBat,64614261-742e-46b6-9963-61645f706362,rev?*%
%TF.SameCoordinates,Original*%
%TF.FileFunction,Legend,Top*%
%TF.FilePolarity,Positive*%
%FSLAX46Y46*%
G04 Gerber Fmt 4.6, Leading zero omitted, Abs format (unit mm)*
G04 Created by KiCad (PCBNEW (5.1.9)-1) date 2021-10-10 23:20:05*
%MOMM*%
%LPD*%
G01*
G04 APERTURE LIST*
%ADD10C,0.120000*%
%ADD11C,0.150000*%
G04 APERTURE END LIST*
D10*
%TO.C,Q8*%
X128851000Y-60230000D02*
X128851000Y-61740000D01*
X125150000Y-60230000D02*
X125150000Y-61740000D01*
X121880000Y-61740000D02*
X132120000Y-61740000D01*
X132120000Y-60230000D02*
X132120000Y-64871000D01*
X121880000Y-60230000D02*
X121880000Y-64871000D01*
X121880000Y-64871000D02*
X132120000Y-64871000D01*
X121880000Y-60230000D02*
X132120000Y-60230000D01*
%TO.C,Q5*%
X113611000Y-60230000D02*
X113611000Y-61740000D01*
X109910000Y-60230000D02*
X109910000Y-61740000D01*
X106640000Y-61740000D02*
X116880000Y-61740000D01*
X116880000Y-60230000D02*
X116880000Y-64871000D01*
X106640000Y-60230000D02*
X106640000Y-64871000D01*
X106640000Y-64871000D02*
X116880000Y-64871000D01*
X106640000Y-60230000D02*
X116880000Y-60230000D01*
%TO.C,Q2*%
X98371000Y-60230000D02*
X98371000Y-61740000D01*
X94670000Y-60230000D02*
X94670000Y-61740000D01*
X91400000Y-61740000D02*
X101640000Y-61740000D01*
X101640000Y-60230000D02*
X101640000Y-64871000D01*
X91400000Y-60230000D02*
X91400000Y-64871000D01*
X91400000Y-64871000D02*
X101640000Y-64871000D01*
X91400000Y-60230000D02*
X101640000Y-60230000D01*
%TO.C,U3*%
X122920000Y-99230000D02*
X122920000Y-106130000D01*
X120380000Y-99230000D02*
X122920000Y-99230000D01*
D11*
G36*
X119340000Y-79375000D02*
G01*
X119340000Y-80645000D01*
X119975000Y-80010000D01*
X119340000Y-79375000D01*
G37*
X119340000Y-79375000D02*
X119340000Y-80645000D01*
X119975000Y-80010000D01*
X119340000Y-79375000D01*
D10*
X144120000Y-71670000D02*
X122510000Y-71670000D01*
X146240000Y-106130000D02*
X146240000Y-73800000D01*
X120380000Y-99230000D02*
X120380000Y-73800000D01*
X122920000Y-106130000D02*
X146240000Y-106130000D01*
X144110000Y-71670000D02*
G75*
G02*
X146240000Y-73800000I0J-2130000D01*
G01*
X120380000Y-73800000D02*
G75*
G02*
X122510000Y-71670000I2130000J0D01*
G01*
%TO.C,U2*%
X155629000Y-98520000D02*
X155629000Y-97010000D01*
X159330000Y-98520000D02*
X159330000Y-97010000D01*
X162600000Y-97010000D02*
X152360000Y-97010000D01*
X152360000Y-98520000D02*
X152360000Y-93879000D01*
X162600000Y-98520000D02*
X162600000Y-93879000D01*
X162600000Y-93879000D02*
X152360000Y-93879000D01*
X162600000Y-98520000D02*
X152360000Y-98520000D01*
%TO.C,U1*%
X170869000Y-98520000D02*
X170869000Y-97010000D01*
X174570000Y-98520000D02*
X174570000Y-97010000D01*
X177840000Y-97010000D02*
X167600000Y-97010000D01*
X167600000Y-98520000D02*
X167600000Y-93879000D01*
X177840000Y-98520000D02*
X177840000Y-93879000D01*
X177840000Y-93879000D02*
X167600000Y-93879000D01*
X177840000Y-98520000D02*
X167600000Y-98520000D01*
%TO.C,RV2*%
X155135000Y-90160000D02*
X155135000Y-85090000D01*
X164905000Y-90160000D02*
X164905000Y-85090000D01*
X164905000Y-85090000D02*
X155135000Y-85090000D01*
X164905000Y-90160000D02*
X155135000Y-90160000D01*
%TO.C,RV1*%
X170375000Y-90160000D02*
X170375000Y-85090000D01*
X180145000Y-90160000D02*
X180145000Y-85090000D01*
X180145000Y-85090000D02*
X170375000Y-85090000D01*
X180145000Y-90160000D02*
X170375000Y-90160000D01*
%TO.C,R12*%
X171120000Y-69850000D02*
X172070000Y-69850000D01*
X176860000Y-69850000D02*
X175910000Y-69850000D01*
X172070000Y-70770000D02*
X175910000Y-70770000D01*
X172070000Y-68930000D02*
X172070000Y-70770000D01*
X175910000Y-68930000D02*
X172070000Y-68930000D01*
X175910000Y-70770000D02*
X175910000Y-68930000D01*
%TO.C,R11*%
X176860000Y-67310000D02*
X175910000Y-67310000D01*
X171120000Y-67310000D02*
X172070000Y-67310000D01*
X175910000Y-66390000D02*
X172070000Y-66390000D01*
X175910000Y-68230000D02*
X175910000Y-66390000D01*
X172070000Y-68230000D02*
X175910000Y-68230000D01*
X172070000Y-66390000D02*
X172070000Y-68230000D01*
%TO.C,R10*%
X111110000Y-76550000D02*
X111110000Y-78390000D01*
X111110000Y-78390000D02*
X114950000Y-78390000D01*
X114950000Y-78390000D02*
X114950000Y-76550000D01*
X114950000Y-76550000D02*
X111110000Y-76550000D01*
X110160000Y-77470000D02*
X111110000Y-77470000D01*
X115900000Y-77470000D02*
X114950000Y-77470000D01*
%TO.C,R9*%
X117760000Y-81900000D02*
X115920000Y-81900000D01*
X115920000Y-81900000D02*
X115920000Y-85740000D01*
X115920000Y-85740000D02*
X117760000Y-85740000D01*
X117760000Y-85740000D02*
X117760000Y-81900000D01*
X116840000Y-80950000D02*
X116840000Y-81900000D01*
X116840000Y-86690000D02*
X116840000Y-85740000D01*
%TO.C,R8*%
X155880000Y-69850000D02*
X156830000Y-69850000D01*
X161620000Y-69850000D02*
X160670000Y-69850000D01*
X156830000Y-70770000D02*
X160670000Y-70770000D01*
X156830000Y-68930000D02*
X156830000Y-70770000D01*
X160670000Y-68930000D02*
X156830000Y-68930000D01*
X160670000Y-70770000D02*
X160670000Y-68930000D01*
%TO.C,R7*%
X161620000Y-67310000D02*
X160670000Y-67310000D01*
X155880000Y-67310000D02*
X156830000Y-67310000D01*
X160670000Y-66390000D02*
X156830000Y-66390000D01*
X160670000Y-68230000D02*
X160670000Y-66390000D01*
X156830000Y-68230000D02*
X160670000Y-68230000D01*
X156830000Y-66390000D02*
X156830000Y-68230000D01*
%TO.C,R6*%
X108570000Y-79090000D02*
X108570000Y-80930000D01*
X108570000Y-80930000D02*
X112410000Y-80930000D01*
X112410000Y-80930000D02*
X112410000Y-79090000D01*
X112410000Y-79090000D02*
X108570000Y-79090000D01*
X107620000Y-80010000D02*
X108570000Y-80010000D01*
X113360000Y-80010000D02*
X112410000Y-80010000D01*
%TO.C,R5*%
X115220000Y-84440000D02*
X113380000Y-84440000D01*
X113380000Y-84440000D02*
X113380000Y-88280000D01*
X113380000Y-88280000D02*
X115220000Y-88280000D01*
X115220000Y-88280000D02*
X115220000Y-84440000D01*
X114300000Y-83490000D02*
X114300000Y-84440000D01*
X114300000Y-89230000D02*
X114300000Y-88280000D01*
%TO.C,R4*%
X140640000Y-69850000D02*
X141590000Y-69850000D01*
X146380000Y-69850000D02*
X145430000Y-69850000D01*
X141590000Y-70770000D02*
X145430000Y-70770000D01*
X141590000Y-68930000D02*
X141590000Y-70770000D01*
X145430000Y-68930000D02*
X141590000Y-68930000D01*
X145430000Y-70770000D02*
X145430000Y-68930000D01*
%TO.C,R3*%
X146380000Y-67310000D02*
X145430000Y-67310000D01*
X140640000Y-67310000D02*
X141590000Y-67310000D01*
X145430000Y-66390000D02*
X141590000Y-66390000D01*
X145430000Y-68230000D02*
X145430000Y-66390000D01*
X141590000Y-68230000D02*
X145430000Y-68230000D01*
X141590000Y-66390000D02*
X141590000Y-68230000D01*
%TO.C,R2*%
X106030000Y-81630000D02*
X106030000Y-83470000D01*
X106030000Y-83470000D02*
X109870000Y-83470000D01*
X109870000Y-83470000D02*
X109870000Y-81630000D01*
X109870000Y-81630000D02*
X106030000Y-81630000D01*
X105080000Y-82550000D02*
X106030000Y-82550000D01*
X110820000Y-82550000D02*
X109870000Y-82550000D01*
%TO.C,R1*%
X112680000Y-86980000D02*
X110840000Y-86980000D01*
X110840000Y-86980000D02*
X110840000Y-90820000D01*
X110840000Y-90820000D02*
X112680000Y-90820000D01*
X112680000Y-90820000D02*
X112680000Y-86980000D01*
X111760000Y-86030000D02*
X111760000Y-86980000D01*
X111760000Y-91770000D02*
X111760000Y-90820000D01*
%TO.C,Q9*%
X174571000Y-60230000D02*
X174571000Y-61740000D01*
X170870000Y-60230000D02*
X170870000Y-61740000D01*
X167600000Y-61740000D02*
X177840000Y-61740000D01*
X177840000Y-60230000D02*
X177840000Y-64871000D01*
X167600000Y-60230000D02*
X167600000Y-64871000D01*
X167600000Y-64871000D02*
X177840000Y-64871000D01*
X167600000Y-60230000D02*
X177840000Y-60230000D01*
%TO.C,Q7*%
X177060000Y-73080000D02*
X173460000Y-73080000D01*
X173421522Y-73091522D02*
G75*
G03*
X175260000Y-77530000I1838478J-1838478D01*
G01*
X177098478Y-73091522D02*
G75*
G02*
X175260000Y-77530000I-1838478J-1838478D01*
G01*
%TO.C,Q6*%
X159331000Y-60230000D02*
X159331000Y-61740000D01*
X155630000Y-60230000D02*
X155630000Y-61740000D01*
X152360000Y-61740000D02*
X162600000Y-61740000D01*
X162600000Y-60230000D02*
X162600000Y-64871000D01*
X152360000Y-60230000D02*
X152360000Y-64871000D01*
X152360000Y-64871000D02*
X162600000Y-64871000D01*
X152360000Y-60230000D02*
X162600000Y-60230000D01*
%TO.C,Q4*%
X165630000Y-73080000D02*
X162030000Y-73080000D01*
X161991522Y-73091522D02*
G75*
G03*
X163830000Y-77530000I1838478J-1838478D01*
G01*
X165668478Y-73091522D02*
G75*
G02*
X163830000Y-77530000I-1838478J-1838478D01*
G01*
%TO.C,Q3*%
X144091000Y-60230000D02*
X144091000Y-61740000D01*
X140390000Y-60230000D02*
X140390000Y-61740000D01*
X137120000Y-61740000D02*
X147360000Y-61740000D01*
X147360000Y-60230000D02*
X147360000Y-64871000D01*
X137120000Y-60230000D02*
X137120000Y-64871000D01*
X137120000Y-64871000D02*
X147360000Y-64871000D01*
X137120000Y-60230000D02*
X147360000Y-60230000D01*
%TO.C,Q1*%
X154200000Y-73080000D02*
X150600000Y-73080000D01*
X150561522Y-73091522D02*
G75*
G03*
X152400000Y-77530000I1838478J-1838478D01*
G01*
X154238478Y-73091522D02*
G75*
G02*
X152400000Y-77530000I-1838478J-1838478D01*
G01*
%TO.C,J2*%
X107890000Y-53400000D02*
X107890000Y-52070000D01*
X109220000Y-53400000D02*
X107890000Y-53400000D01*
X110490000Y-53400000D02*
X110490000Y-50740000D01*
X110490000Y-50740000D02*
X115630000Y-50740000D01*
X110490000Y-53400000D02*
X115630000Y-53400000D01*
X115630000Y-53400000D02*
X115630000Y-50740000D01*
%TO.C,J1*%
X153610000Y-53400000D02*
X153610000Y-52070000D01*
X154940000Y-53400000D02*
X153610000Y-53400000D01*
X156210000Y-53400000D02*
X156210000Y-50740000D01*
X156210000Y-50740000D02*
X161350000Y-50740000D01*
X156210000Y-53400000D02*
X161350000Y-53400000D01*
X161350000Y-53400000D02*
X161350000Y-50740000D01*
%TO.C,H4*%
D11*
X178308095Y-100782380D02*
X178308095Y-99782380D01*
X178308095Y-100258571D02*
X178879523Y-100258571D01*
X178879523Y-100782380D02*
X178879523Y-99782380D01*
X179784285Y-100115714D02*
X179784285Y-100782380D01*
X179546190Y-99734761D02*
X179308095Y-100449047D01*
X179927142Y-100449047D01*
%TO.C,H3*%
X90678095Y-100782380D02*
X90678095Y-99782380D01*
X90678095Y-100258571D02*
X91249523Y-100258571D01*
X91249523Y-100782380D02*
X91249523Y-99782380D01*
X91630476Y-99782380D02*
X92249523Y-99782380D01*
X91916190Y-100163333D01*
X92059047Y-100163333D01*
X92154285Y-100210952D01*
X92201904Y-100258571D01*
X92249523Y-100353809D01*
X92249523Y-100591904D01*
X92201904Y-100687142D01*
X92154285Y-100734761D01*
X92059047Y-100782380D01*
X91773333Y-100782380D01*
X91678095Y-100734761D01*
X91630476Y-100687142D01*
%TO.C,H2*%
X178308095Y-56332380D02*
X178308095Y-55332380D01*
X178308095Y-55808571D02*
X178879523Y-55808571D01*
X178879523Y-56332380D02*
X178879523Y-55332380D01*
X179308095Y-55427619D02*
X179355714Y-55380000D01*
X179450952Y-55332380D01*
X179689047Y-55332380D01*
X179784285Y-55380000D01*
X179831904Y-55427619D01*
X179879523Y-55522857D01*
X179879523Y-55618095D01*
X179831904Y-55760952D01*
X179260476Y-56332380D01*
X179879523Y-56332380D01*
%TO.C,H1*%
X90678095Y-56332380D02*
X90678095Y-55332380D01*
X90678095Y-55808571D02*
X91249523Y-55808571D01*
X91249523Y-56332380D02*
X91249523Y-55332380D01*
X92249523Y-56332380D02*
X91678095Y-56332380D01*
X91963809Y-56332380D02*
X91963809Y-55332380D01*
X91868571Y-55475238D01*
X91773333Y-55570476D01*
X91678095Y-55618095D01*
%TO.C,Q8*%
X126904761Y-59777619D02*
X126809523Y-59730000D01*
X126714285Y-59634761D01*
X126571428Y-59491904D01*
X126476190Y-59444285D01*
X126380952Y-59444285D01*
X126428571Y-59682380D02*
X126333333Y-59634761D01*
X126238095Y-59539523D01*
X126190476Y-59349047D01*
X126190476Y-59015714D01*
X126238095Y-58825238D01*
X126333333Y-58730000D01*
X126428571Y-58682380D01*
X126619047Y-58682380D01*
X126714285Y-58730000D01*
X126809523Y-58825238D01*
X126857142Y-59015714D01*
X126857142Y-59349047D01*
X126809523Y-59539523D01*
X126714285Y-59634761D01*
X126619047Y-59682380D01*
X126428571Y-59682380D01*
X127428571Y-59110952D02*
X127333333Y-59063333D01*
X127285714Y-59015714D01*
X127238095Y-58920476D01*
X127238095Y-58872857D01*
X127285714Y-58777619D01*
X127333333Y-58730000D01*
X127428571Y-58682380D01*
X127619047Y-58682380D01*
X127714285Y-58730000D01*
X127761904Y-58777619D01*
X127809523Y-58872857D01*
X127809523Y-58920476D01*
X127761904Y-59015714D01*
X127714285Y-59063333D01*
X127619047Y-59110952D01*
X127428571Y-59110952D01*
X127333333Y-59158571D01*
X127285714Y-59206190D01*
X127238095Y-59301428D01*
X127238095Y-59491904D01*
X127285714Y-59587142D01*
X127333333Y-59634761D01*
X127428571Y-59682380D01*
X127619047Y-59682380D01*
X127714285Y-59634761D01*
X127761904Y-59587142D01*
X127809523Y-59491904D01*
X127809523Y-59301428D01*
X127761904Y-59206190D01*
X127714285Y-59158571D01*
X127619047Y-59110952D01*
%TO.C,Q5*%
X111664761Y-59777619D02*
X111569523Y-59730000D01*
X111474285Y-59634761D01*
X111331428Y-59491904D01*
X111236190Y-59444285D01*
X111140952Y-59444285D01*
X111188571Y-59682380D02*
X111093333Y-59634761D01*
X110998095Y-59539523D01*
X110950476Y-59349047D01*
X110950476Y-59015714D01*
X110998095Y-58825238D01*
X111093333Y-58730000D01*
X111188571Y-58682380D01*
X111379047Y-58682380D01*
X111474285Y-58730000D01*
X111569523Y-58825238D01*
X111617142Y-59015714D01*
X111617142Y-59349047D01*
X111569523Y-59539523D01*
X111474285Y-59634761D01*
X111379047Y-59682380D01*
X111188571Y-59682380D01*
X112521904Y-58682380D02*
X112045714Y-58682380D01*
X111998095Y-59158571D01*
X112045714Y-59110952D01*
X112140952Y-59063333D01*
X112379047Y-59063333D01*
X112474285Y-59110952D01*
X112521904Y-59158571D01*
X112569523Y-59253809D01*
X112569523Y-59491904D01*
X112521904Y-59587142D01*
X112474285Y-59634761D01*
X112379047Y-59682380D01*
X112140952Y-59682380D01*
X112045714Y-59634761D01*
X111998095Y-59587142D01*
%TO.C,Q2*%
X96424761Y-59777619D02*
X96329523Y-59730000D01*
X96234285Y-59634761D01*
X96091428Y-59491904D01*
X95996190Y-59444285D01*
X95900952Y-59444285D01*
X95948571Y-59682380D02*
X95853333Y-59634761D01*
X95758095Y-59539523D01*
X95710476Y-59349047D01*
X95710476Y-59015714D01*
X95758095Y-58825238D01*
X95853333Y-58730000D01*
X95948571Y-58682380D01*
X96139047Y-58682380D01*
X96234285Y-58730000D01*
X96329523Y-58825238D01*
X96377142Y-59015714D01*
X96377142Y-59349047D01*
X96329523Y-59539523D01*
X96234285Y-59634761D01*
X96139047Y-59682380D01*
X95948571Y-59682380D01*
X96758095Y-58777619D02*
X96805714Y-58730000D01*
X96900952Y-58682380D01*
X97139047Y-58682380D01*
X97234285Y-58730000D01*
X97281904Y-58777619D01*
X97329523Y-58872857D01*
X97329523Y-58968095D01*
X97281904Y-59110952D01*
X96710476Y-59682380D01*
X97329523Y-59682380D01*
%TO.C,U3*%
X132588095Y-89622380D02*
X132588095Y-90431904D01*
X132635714Y-90527142D01*
X132683333Y-90574761D01*
X132778571Y-90622380D01*
X132969047Y-90622380D01*
X133064285Y-90574761D01*
X133111904Y-90527142D01*
X133159523Y-90431904D01*
X133159523Y-89622380D01*
X133540476Y-89622380D02*
X134159523Y-89622380D01*
X133826190Y-90003333D01*
X133969047Y-90003333D01*
X134064285Y-90050952D01*
X134111904Y-90098571D01*
X134159523Y-90193809D01*
X134159523Y-90431904D01*
X134111904Y-90527142D01*
X134064285Y-90574761D01*
X133969047Y-90622380D01*
X133683333Y-90622380D01*
X133588095Y-90574761D01*
X133540476Y-90527142D01*
%TO.C,U2*%
X156718095Y-98972380D02*
X156718095Y-99781904D01*
X156765714Y-99877142D01*
X156813333Y-99924761D01*
X156908571Y-99972380D01*
X157099047Y-99972380D01*
X157194285Y-99924761D01*
X157241904Y-99877142D01*
X157289523Y-99781904D01*
X157289523Y-98972380D01*
X157718095Y-99067619D02*
X157765714Y-99020000D01*
X157860952Y-98972380D01*
X158099047Y-98972380D01*
X158194285Y-99020000D01*
X158241904Y-99067619D01*
X158289523Y-99162857D01*
X158289523Y-99258095D01*
X158241904Y-99400952D01*
X157670476Y-99972380D01*
X158289523Y-99972380D01*
%TO.C,U1*%
X171958095Y-98972380D02*
X171958095Y-99781904D01*
X172005714Y-99877142D01*
X172053333Y-99924761D01*
X172148571Y-99972380D01*
X172339047Y-99972380D01*
X172434285Y-99924761D01*
X172481904Y-99877142D01*
X172529523Y-99781904D01*
X172529523Y-98972380D01*
X173529523Y-99972380D02*
X172958095Y-99972380D01*
X173243809Y-99972380D02*
X173243809Y-98972380D01*
X173148571Y-99115238D01*
X173053333Y-99210476D01*
X172958095Y-99258095D01*
%TO.C,RV2*%
X159424761Y-91742380D02*
X159091428Y-91266190D01*
X158853333Y-91742380D02*
X158853333Y-90742380D01*
X159234285Y-90742380D01*
X159329523Y-90790000D01*
X159377142Y-90837619D01*
X159424761Y-90932857D01*
X159424761Y-91075714D01*
X159377142Y-91170952D01*
X159329523Y-91218571D01*
X159234285Y-91266190D01*
X158853333Y-91266190D01*
X159710476Y-90742380D02*
X160043809Y-91742380D01*
X160377142Y-90742380D01*
X160662857Y-90837619D02*
X160710476Y-90790000D01*
X160805714Y-90742380D01*
X161043809Y-90742380D01*
X161139047Y-90790000D01*
X161186666Y-90837619D01*
X161234285Y-90932857D01*
X161234285Y-91028095D01*
X161186666Y-91170952D01*
X160615238Y-91742380D01*
X161234285Y-91742380D01*
%TO.C,RV1*%
X174664761Y-91742380D02*
X174331428Y-91266190D01*
X174093333Y-91742380D02*
X174093333Y-90742380D01*
X174474285Y-90742380D01*
X174569523Y-90790000D01*
X174617142Y-90837619D01*
X174664761Y-90932857D01*
X174664761Y-91075714D01*
X174617142Y-91170952D01*
X174569523Y-91218571D01*
X174474285Y-91266190D01*
X174093333Y-91266190D01*
X174950476Y-90742380D02*
X175283809Y-91742380D01*
X175617142Y-90742380D01*
X176474285Y-91742380D02*
X175902857Y-91742380D01*
X176188571Y-91742380D02*
X176188571Y-90742380D01*
X176093333Y-90885238D01*
X175998095Y-90980476D01*
X175902857Y-91028095D01*
%TO.C,R12*%
X166997142Y-70302380D02*
X166663809Y-69826190D01*
X166425714Y-70302380D02*
X166425714Y-69302380D01*
X166806666Y-69302380D01*
X166901904Y-69350000D01*
X166949523Y-69397619D01*
X166997142Y-69492857D01*
X166997142Y-69635714D01*
X166949523Y-69730952D01*
X166901904Y-69778571D01*
X166806666Y-69826190D01*
X166425714Y-69826190D01*
X167949523Y-70302380D02*
X167378095Y-70302380D01*
X167663809Y-70302380D02*
X167663809Y-69302380D01*
X167568571Y-69445238D01*
X167473333Y-69540476D01*
X167378095Y-69588095D01*
X168330476Y-69397619D02*
X168378095Y-69350000D01*
X168473333Y-69302380D01*
X168711428Y-69302380D01*
X168806666Y-69350000D01*
X168854285Y-69397619D01*
X168901904Y-69492857D01*
X168901904Y-69588095D01*
X168854285Y-69730952D01*
X168282857Y-70302380D01*
X168901904Y-70302380D01*
%TO.C,R11*%
X166997142Y-67762380D02*
X166663809Y-67286190D01*
X166425714Y-67762380D02*
X166425714Y-66762380D01*
X166806666Y-66762380D01*
X166901904Y-66810000D01*
X166949523Y-66857619D01*
X166997142Y-66952857D01*
X166997142Y-67095714D01*
X166949523Y-67190952D01*
X166901904Y-67238571D01*
X166806666Y-67286190D01*
X166425714Y-67286190D01*
X167949523Y-67762380D02*
X167378095Y-67762380D01*
X167663809Y-67762380D02*
X167663809Y-66762380D01*
X167568571Y-66905238D01*
X167473333Y-67000476D01*
X167378095Y-67048095D01*
X168901904Y-67762380D02*
X168330476Y-67762380D01*
X168616190Y-67762380D02*
X168616190Y-66762380D01*
X168520952Y-66905238D01*
X168425714Y-67000476D01*
X168330476Y-67048095D01*
%TO.C,R10*%
X106037142Y-77922380D02*
X105703809Y-77446190D01*
X105465714Y-77922380D02*
X105465714Y-76922380D01*
X105846666Y-76922380D01*
X105941904Y-76970000D01*
X105989523Y-77017619D01*
X106037142Y-77112857D01*
X106037142Y-77255714D01*
X105989523Y-77350952D01*
X105941904Y-77398571D01*
X105846666Y-77446190D01*
X105465714Y-77446190D01*
X106989523Y-77922380D02*
X106418095Y-77922380D01*
X106703809Y-77922380D02*
X106703809Y-76922380D01*
X106608571Y-77065238D01*
X106513333Y-77160476D01*
X106418095Y-77208095D01*
X107608571Y-76922380D02*
X107703809Y-76922380D01*
X107799047Y-76970000D01*
X107846666Y-77017619D01*
X107894285Y-77112857D01*
X107941904Y-77303333D01*
X107941904Y-77541428D01*
X107894285Y-77731904D01*
X107846666Y-77827142D01*
X107799047Y-77874761D01*
X107703809Y-77922380D01*
X107608571Y-77922380D01*
X107513333Y-77874761D01*
X107465714Y-77827142D01*
X107418095Y-77731904D01*
X107370476Y-77541428D01*
X107370476Y-77303333D01*
X107418095Y-77112857D01*
X107465714Y-77017619D01*
X107513333Y-76970000D01*
X107608571Y-76922380D01*
%TO.C,R9*%
X117292380Y-90336666D02*
X116816190Y-90670000D01*
X117292380Y-90908095D02*
X116292380Y-90908095D01*
X116292380Y-90527142D01*
X116340000Y-90431904D01*
X116387619Y-90384285D01*
X116482857Y-90336666D01*
X116625714Y-90336666D01*
X116720952Y-90384285D01*
X116768571Y-90431904D01*
X116816190Y-90527142D01*
X116816190Y-90908095D01*
X117292380Y-89860476D02*
X117292380Y-89670000D01*
X117244761Y-89574761D01*
X117197142Y-89527142D01*
X117054285Y-89431904D01*
X116863809Y-89384285D01*
X116482857Y-89384285D01*
X116387619Y-89431904D01*
X116340000Y-89479523D01*
X116292380Y-89574761D01*
X116292380Y-89765238D01*
X116340000Y-89860476D01*
X116387619Y-89908095D01*
X116482857Y-89955714D01*
X116720952Y-89955714D01*
X116816190Y-89908095D01*
X116863809Y-89860476D01*
X116911428Y-89765238D01*
X116911428Y-89574761D01*
X116863809Y-89479523D01*
X116816190Y-89431904D01*
X116720952Y-89384285D01*
%TO.C,R8*%
X152233333Y-70302380D02*
X151900000Y-69826190D01*
X151661904Y-70302380D02*
X151661904Y-69302380D01*
X152042857Y-69302380D01*
X152138095Y-69350000D01*
X152185714Y-69397619D01*
X152233333Y-69492857D01*
X152233333Y-69635714D01*
X152185714Y-69730952D01*
X152138095Y-69778571D01*
X152042857Y-69826190D01*
X151661904Y-69826190D01*
X152804761Y-69730952D02*
X152709523Y-69683333D01*
X152661904Y-69635714D01*
X152614285Y-69540476D01*
X152614285Y-69492857D01*
X152661904Y-69397619D01*
X152709523Y-69350000D01*
X152804761Y-69302380D01*
X152995238Y-69302380D01*
X153090476Y-69350000D01*
X153138095Y-69397619D01*
X153185714Y-69492857D01*
X153185714Y-69540476D01*
X153138095Y-69635714D01*
X153090476Y-69683333D01*
X152995238Y-69730952D01*
X152804761Y-69730952D01*
X152709523Y-69778571D01*
X152661904Y-69826190D01*
X152614285Y-69921428D01*
X152614285Y-70111904D01*
X152661904Y-70207142D01*
X152709523Y-70254761D01*
X152804761Y-70302380D01*
X152995238Y-70302380D01*
X153090476Y-70254761D01*
X153138095Y-70207142D01*
X153185714Y-70111904D01*
X153185714Y-69921428D01*
X153138095Y-69826190D01*
X153090476Y-69778571D01*
X152995238Y-69730952D01*
%TO.C,R7*%
X152233333Y-67762380D02*
X151900000Y-67286190D01*
X151661904Y-67762380D02*
X151661904Y-66762380D01*
X152042857Y-66762380D01*
X152138095Y-66810000D01*
X152185714Y-66857619D01*
X152233333Y-66952857D01*
X152233333Y-67095714D01*
X152185714Y-67190952D01*
X152138095Y-67238571D01*
X152042857Y-67286190D01*
X151661904Y-67286190D01*
X152566666Y-66762380D02*
X153233333Y-66762380D01*
X152804761Y-67762380D01*
%TO.C,R6*%
X103973333Y-80462380D02*
X103640000Y-79986190D01*
X103401904Y-80462380D02*
X103401904Y-79462380D01*
X103782857Y-79462380D01*
X103878095Y-79510000D01*
X103925714Y-79557619D01*
X103973333Y-79652857D01*
X103973333Y-79795714D01*
X103925714Y-79890952D01*
X103878095Y-79938571D01*
X103782857Y-79986190D01*
X103401904Y-79986190D01*
X104830476Y-79462380D02*
X104640000Y-79462380D01*
X104544761Y-79510000D01*
X104497142Y-79557619D01*
X104401904Y-79700476D01*
X104354285Y-79890952D01*
X104354285Y-80271904D01*
X104401904Y-80367142D01*
X104449523Y-80414761D01*
X104544761Y-80462380D01*
X104735238Y-80462380D01*
X104830476Y-80414761D01*
X104878095Y-80367142D01*
X104925714Y-80271904D01*
X104925714Y-80033809D01*
X104878095Y-79938571D01*
X104830476Y-79890952D01*
X104735238Y-79843333D01*
X104544761Y-79843333D01*
X104449523Y-79890952D01*
X104401904Y-79938571D01*
X104354285Y-80033809D01*
%TO.C,R5*%
X114752380Y-92876666D02*
X114276190Y-93210000D01*
X114752380Y-93448095D02*
X113752380Y-93448095D01*
X113752380Y-93067142D01*
X113800000Y-92971904D01*
X113847619Y-92924285D01*
X113942857Y-92876666D01*
X114085714Y-92876666D01*
X114180952Y-92924285D01*
X114228571Y-92971904D01*
X114276190Y-93067142D01*
X114276190Y-93448095D01*
X113752380Y-91971904D02*
X113752380Y-92448095D01*
X114228571Y-92495714D01*
X114180952Y-92448095D01*
X114133333Y-92352857D01*
X114133333Y-92114761D01*
X114180952Y-92019523D01*
X114228571Y-91971904D01*
X114323809Y-91924285D01*
X114561904Y-91924285D01*
X114657142Y-91971904D01*
X114704761Y-92019523D01*
X114752380Y-92114761D01*
X114752380Y-92352857D01*
X114704761Y-92448095D01*
X114657142Y-92495714D01*
%TO.C,R4*%
X136993333Y-70302380D02*
X136660000Y-69826190D01*
X136421904Y-70302380D02*
X136421904Y-69302380D01*
X136802857Y-69302380D01*
X136898095Y-69350000D01*
X136945714Y-69397619D01*
X136993333Y-69492857D01*
X136993333Y-69635714D01*
X136945714Y-69730952D01*
X136898095Y-69778571D01*
X136802857Y-69826190D01*
X136421904Y-69826190D01*
X137850476Y-69635714D02*
X137850476Y-70302380D01*
X137612380Y-69254761D02*
X137374285Y-69969047D01*
X137993333Y-69969047D01*
%TO.C,R3*%
X136993333Y-67762380D02*
X136660000Y-67286190D01*
X136421904Y-67762380D02*
X136421904Y-66762380D01*
X136802857Y-66762380D01*
X136898095Y-66810000D01*
X136945714Y-66857619D01*
X136993333Y-66952857D01*
X136993333Y-67095714D01*
X136945714Y-67190952D01*
X136898095Y-67238571D01*
X136802857Y-67286190D01*
X136421904Y-67286190D01*
X137326666Y-66762380D02*
X137945714Y-66762380D01*
X137612380Y-67143333D01*
X137755238Y-67143333D01*
X137850476Y-67190952D01*
X137898095Y-67238571D01*
X137945714Y-67333809D01*
X137945714Y-67571904D01*
X137898095Y-67667142D01*
X137850476Y-67714761D01*
X137755238Y-67762380D01*
X137469523Y-67762380D01*
X137374285Y-67714761D01*
X137326666Y-67667142D01*
%TO.C,R2*%
X101433333Y-83002380D02*
X101100000Y-82526190D01*
X100861904Y-83002380D02*
X100861904Y-82002380D01*
X101242857Y-82002380D01*
X101338095Y-82050000D01*
X101385714Y-82097619D01*
X101433333Y-82192857D01*
X101433333Y-82335714D01*
X101385714Y-82430952D01*
X101338095Y-82478571D01*
X101242857Y-82526190D01*
X100861904Y-82526190D01*
X101814285Y-82097619D02*
X101861904Y-82050000D01*
X101957142Y-82002380D01*
X102195238Y-82002380D01*
X102290476Y-82050000D01*
X102338095Y-82097619D01*
X102385714Y-82192857D01*
X102385714Y-82288095D01*
X102338095Y-82430952D01*
X101766666Y-83002380D01*
X102385714Y-83002380D01*
%TO.C,R1*%
X112212380Y-95416666D02*
X111736190Y-95750000D01*
X112212380Y-95988095D02*
X111212380Y-95988095D01*
X111212380Y-95607142D01*
X111260000Y-95511904D01*
X111307619Y-95464285D01*
X111402857Y-95416666D01*
X111545714Y-95416666D01*
X111640952Y-95464285D01*
X111688571Y-95511904D01*
X111736190Y-95607142D01*
X111736190Y-95988095D01*
X112212380Y-94464285D02*
X112212380Y-95035714D01*
X112212380Y-94750000D02*
X111212380Y-94750000D01*
X111355238Y-94845238D01*
X111450476Y-94940476D01*
X111498095Y-95035714D01*
%TO.C,Q9*%
X172624761Y-59777619D02*
X172529523Y-59730000D01*
X172434285Y-59634761D01*
X172291428Y-59491904D01*
X172196190Y-59444285D01*
X172100952Y-59444285D01*
X172148571Y-59682380D02*
X172053333Y-59634761D01*
X171958095Y-59539523D01*
X171910476Y-59349047D01*
X171910476Y-59015714D01*
X171958095Y-58825238D01*
X172053333Y-58730000D01*
X172148571Y-58682380D01*
X172339047Y-58682380D01*
X172434285Y-58730000D01*
X172529523Y-58825238D01*
X172577142Y-59015714D01*
X172577142Y-59349047D01*
X172529523Y-59539523D01*
X172434285Y-59634761D01*
X172339047Y-59682380D01*
X172148571Y-59682380D01*
X173053333Y-59682380D02*
X173243809Y-59682380D01*
X173339047Y-59634761D01*
X173386666Y-59587142D01*
X173481904Y-59444285D01*
X173529523Y-59253809D01*
X173529523Y-58872857D01*
X173481904Y-58777619D01*
X173434285Y-58730000D01*
X173339047Y-58682380D01*
X173148571Y-58682380D01*
X173053333Y-58730000D01*
X173005714Y-58777619D01*
X172958095Y-58872857D01*
X172958095Y-59110952D01*
X173005714Y-59206190D01*
X173053333Y-59253809D01*
X173148571Y-59301428D01*
X173339047Y-59301428D01*
X173434285Y-59253809D01*
X173481904Y-59206190D01*
X173529523Y-59110952D01*
%TO.C,Q7*%
X175164761Y-79037619D02*
X175069523Y-78990000D01*
X174974285Y-78894761D01*
X174831428Y-78751904D01*
X174736190Y-78704285D01*
X174640952Y-78704285D01*
X174688571Y-78942380D02*
X174593333Y-78894761D01*
X174498095Y-78799523D01*
X174450476Y-78609047D01*
X174450476Y-78275714D01*
X174498095Y-78085238D01*
X174593333Y-77990000D01*
X174688571Y-77942380D01*
X174879047Y-77942380D01*
X174974285Y-77990000D01*
X175069523Y-78085238D01*
X175117142Y-78275714D01*
X175117142Y-78609047D01*
X175069523Y-78799523D01*
X174974285Y-78894761D01*
X174879047Y-78942380D01*
X174688571Y-78942380D01*
X175450476Y-77942380D02*
X176117142Y-77942380D01*
X175688571Y-78942380D01*
%TO.C,Q6*%
X157384761Y-59777619D02*
X157289523Y-59730000D01*
X157194285Y-59634761D01*
X157051428Y-59491904D01*
X156956190Y-59444285D01*
X156860952Y-59444285D01*
X156908571Y-59682380D02*
X156813333Y-59634761D01*
X156718095Y-59539523D01*
X156670476Y-59349047D01*
X156670476Y-59015714D01*
X156718095Y-58825238D01*
X156813333Y-58730000D01*
X156908571Y-58682380D01*
X157099047Y-58682380D01*
X157194285Y-58730000D01*
X157289523Y-58825238D01*
X157337142Y-59015714D01*
X157337142Y-59349047D01*
X157289523Y-59539523D01*
X157194285Y-59634761D01*
X157099047Y-59682380D01*
X156908571Y-59682380D01*
X158194285Y-58682380D02*
X158003809Y-58682380D01*
X157908571Y-58730000D01*
X157860952Y-58777619D01*
X157765714Y-58920476D01*
X157718095Y-59110952D01*
X157718095Y-59491904D01*
X157765714Y-59587142D01*
X157813333Y-59634761D01*
X157908571Y-59682380D01*
X158099047Y-59682380D01*
X158194285Y-59634761D01*
X158241904Y-59587142D01*
X158289523Y-59491904D01*
X158289523Y-59253809D01*
X158241904Y-59158571D01*
X158194285Y-59110952D01*
X158099047Y-59063333D01*
X157908571Y-59063333D01*
X157813333Y-59110952D01*
X157765714Y-59158571D01*
X157718095Y-59253809D01*
%TO.C,Q4*%
X163734761Y-79037619D02*
X163639523Y-78990000D01*
X163544285Y-78894761D01*
X163401428Y-78751904D01*
X163306190Y-78704285D01*
X163210952Y-78704285D01*
X163258571Y-78942380D02*
X163163333Y-78894761D01*
X163068095Y-78799523D01*
X163020476Y-78609047D01*
X163020476Y-78275714D01*
X163068095Y-78085238D01*
X163163333Y-77990000D01*
X163258571Y-77942380D01*
X163449047Y-77942380D01*
X163544285Y-77990000D01*
X163639523Y-78085238D01*
X163687142Y-78275714D01*
X163687142Y-78609047D01*
X163639523Y-78799523D01*
X163544285Y-78894761D01*
X163449047Y-78942380D01*
X163258571Y-78942380D01*
X164544285Y-78275714D02*
X164544285Y-78942380D01*
X164306190Y-77894761D02*
X164068095Y-78609047D01*
X164687142Y-78609047D01*
%TO.C,Q3*%
X142144761Y-59777619D02*
X142049523Y-59730000D01*
X141954285Y-59634761D01*
X141811428Y-59491904D01*
X141716190Y-59444285D01*
X141620952Y-59444285D01*
X141668571Y-59682380D02*
X141573333Y-59634761D01*
X141478095Y-59539523D01*
X141430476Y-59349047D01*
X141430476Y-59015714D01*
X141478095Y-58825238D01*
X141573333Y-58730000D01*
X141668571Y-58682380D01*
X141859047Y-58682380D01*
X141954285Y-58730000D01*
X142049523Y-58825238D01*
X142097142Y-59015714D01*
X142097142Y-59349047D01*
X142049523Y-59539523D01*
X141954285Y-59634761D01*
X141859047Y-59682380D01*
X141668571Y-59682380D01*
X142430476Y-58682380D02*
X143049523Y-58682380D01*
X142716190Y-59063333D01*
X142859047Y-59063333D01*
X142954285Y-59110952D01*
X143001904Y-59158571D01*
X143049523Y-59253809D01*
X143049523Y-59491904D01*
X143001904Y-59587142D01*
X142954285Y-59634761D01*
X142859047Y-59682380D01*
X142573333Y-59682380D01*
X142478095Y-59634761D01*
X142430476Y-59587142D01*
%TO.C,Q1*%
X152304761Y-79037619D02*
X152209523Y-78990000D01*
X152114285Y-78894761D01*
X151971428Y-78751904D01*
X151876190Y-78704285D01*
X151780952Y-78704285D01*
X151828571Y-78942380D02*
X151733333Y-78894761D01*
X151638095Y-78799523D01*
X151590476Y-78609047D01*
X151590476Y-78275714D01*
X151638095Y-78085238D01*
X151733333Y-77990000D01*
X151828571Y-77942380D01*
X152019047Y-77942380D01*
X152114285Y-77990000D01*
X152209523Y-78085238D01*
X152257142Y-78275714D01*
X152257142Y-78609047D01*
X152209523Y-78799523D01*
X152114285Y-78894761D01*
X152019047Y-78942380D01*
X151828571Y-78942380D01*
X153209523Y-78942380D02*
X152638095Y-78942380D01*
X152923809Y-78942380D02*
X152923809Y-77942380D01*
X152828571Y-78085238D01*
X152733333Y-78180476D01*
X152638095Y-78228095D01*
%TO.C,J2*%
X106342380Y-52403333D02*
X107056666Y-52403333D01*
X107199523Y-52450952D01*
X107294761Y-52546190D01*
X107342380Y-52689047D01*
X107342380Y-52784285D01*
X106437619Y-51974761D02*
X106390000Y-51927142D01*
X106342380Y-51831904D01*
X106342380Y-51593809D01*
X106390000Y-51498571D01*
X106437619Y-51450952D01*
X106532857Y-51403333D01*
X106628095Y-51403333D01*
X106770952Y-51450952D01*
X107342380Y-52022380D01*
X107342380Y-51403333D01*
%TO.C,J1*%
X152062380Y-52403333D02*
X152776666Y-52403333D01*
X152919523Y-52450952D01*
X153014761Y-52546190D01*
X153062380Y-52689047D01*
X153062380Y-52784285D01*
X153062380Y-51403333D02*
X153062380Y-51974761D01*
X153062380Y-51689047D02*
X152062380Y-51689047D01*
X152205238Y-51784285D01*
X152300476Y-51879523D01*
X152348095Y-51974761D01*
%TD*%
M02*
